<svg width="834" height="87" viewBox="0 0 834 87" fill="none" xmlns="http://www.w3.org/2000/svg">
<path d="M216.063 26.804C319.089 26.804 333.093 11.6992 404.111 17.3635C475.13 23.0278 558.151 30.7576 607.164 26.804C656.176 22.8505 715.191 17.8156 737.197 15.2981C759.203 12.7806 800.213 9.00445 832.222 15.2981V37.5031C832.222 37.5031 836.223 74.4586 832.222 73.8292C828.22 73.1998 838.223 74.2813 790.211 70.6824C742.198 67.0835 733.196 75.8946 709.19 78.8641C685.184 81.8337 671.18 88.3046 612.165 85.1578C553.15 82.011 460.126 61.8713 404.111 58.095C348.097 54.3187 288.081 73.1999 194.057 78.8641C100.033 84.5284 70.9397 75.0889 -28 67.0835V37.5031V1C58.0222 20.3331 113.036 26.804 216.063 26.804Z" fill="#0E5835"/>
<path d="M-28 37.5031L832.222 37.5031M-28 37.5031V67.0835C70.9397 75.0889 100.033 84.5284 194.057 78.8641C288.081 73.1999 348.097 54.3187 404.111 58.095C460.126 61.8714 553.15 82.011 612.165 85.1578C671.18 88.3046 685.184 81.8337 709.19 78.8641C733.196 75.8946 742.198 67.0835 790.211 70.6824C838.223 74.2813 828.22 73.1998 832.222 73.8292C836.223 74.4586 832.222 37.5031 832.222 37.5031M-28 37.5031V1C58.0222 20.3331 113.036 26.804 216.063 26.804C319.089 26.804 333.093 11.6992 404.111 17.3635C475.13 23.0278 558.151 30.7576 607.164 26.804C656.176 22.8505 715.191 17.8156 737.197 15.2981C759.203 12.7806 800.213 9.00445 832.222 15.2981V37.5031" stroke="#0E5835"/>
</svg>
