<svg width="431" height="66" viewBox="0 0 431 66" fill="none" xmlns="http://www.w3.org/2000/svg">
<path d="M122 21.5C173.5 21.5 179 13.5 205 16C231 18.5 293 24.6409 317.5 21.5C342 18.3591 371.5 14.3591 382.5 12.3591C393.5 10.3591 414 7.35913 430 12.3591V29.9999C430 29.9999 432 59.3591 430 58.8591C428 58.3591 433 59.2183 409 56.3591C385 53.5 380.5 60.5 368.5 62.8591L368.288 62.9009C356.317 65.2548 340.815 68.3032 309.5 58.8591C278 49.3591 217 46.4485 197.5 44.3591C178 42.2698 157.5 46.8591 99.5 58.8591C41.5 70.8591 49.4571 59.8599 0 53.5V29.9999V1C43 16.3592 70.5 21.5 122 21.5Z" fill="#0E5835"/>
<path d="M0 29.9999L430 29.9999M0 29.9999V53.5C49.4571 59.8599 41.5 70.8591 99.5 58.8591C157.5 46.8591 178 42.2698 197.5 44.3591C217 46.4485 278 49.3591 309.5 58.8591C341 68.3591 356.5 65.2183 368.5 62.8591C380.5 60.5 385 53.5 409 56.3591C433 59.2183 428 58.3591 430 58.8591C432 59.3591 430 29.9999 430 29.9999M0 29.9999V1C43 16.3592 70.5 21.5 122 21.5C173.5 21.5 179 13.5 205 16C231 18.5 293 24.6409 317.5 21.5C342 18.3591 371.5 14.3591 382.5 12.3591C393.5 10.3591 414 7.35913 430 12.3591V29.9999" stroke="#0E5835"/>
</svg>
