<svg width="431" height="66" viewBox="0 0 431 66" fill="none" xmlns="http://www.w3.org/2000/svg">
<path d="M123 21.6409C174.5 21.6409 192.5 -1.98472 220 7.5C247.5 16.9847 294 24.7818 318.5 21.6409C343 18.5 372.5 14.5 383.5 12.5C394.5 10.5 415 7.5 431 12.5V30.1408C431 30.1408 433 59.5 431 59C429 58.5 434 59.3591 410 56.5C386 53.6409 381.5 60.6409 369.5 63L369.288 63.0417C357.317 65.3957 341.815 68.4441 310.5 59C279 49.5 218 46.5893 198.5 44.5C179 42.4107 158.5 47 100.5 59C42.5 71 50.4571 60.0007 1 53.6409V30.1408V1.14087C44 16.5001 71.5 21.6409 123 21.6409Z" fill="#0E5835"/>
<path d="M1 30.1408L431 30.1408M1 30.1408V53.6409C50.4571 60.0007 42.5 71 100.5 59C158.5 47 179 42.4107 198.5 44.5C218 46.5893 279 49.5 310.5 59C342 68.5 357.5 65.3592 369.5 63C381.5 60.6409 386 53.6409 410 56.5C434 59.3591 429 58.5 431 59C433 59.5 431 30.1408 431 30.1408M1 30.1408V1.14087C44 16.5001 71.5 21.6409 123 21.6409C174.5 21.6409 192.5 -1.98472 220 7.5C247.5 16.9847 294 24.7818 318.5 21.6409C343 18.5 372.5 14.5 383.5 12.5C394.5 10.5 415 7.5 431 12.5V30.1408" stroke="#0E5835"/>
</svg>
