<svg width="397" height="203" viewBox="0 0 397 203" fill="none" xmlns="http://www.w3.org/2000/svg">
<g filter="url(#filter0_d_400_941)">
<rect x="24.5" y="12.5" width="356" height="162" rx="12" fill="#0E5835" shape-rendering="crispEdges"/>
<rect x="25" y="13" width="355" height="161" rx="11.5" stroke="white" shape-rendering="crispEdges"/>
<path d="M52.3011 31.8636H54.0511V40.1136C54.0511 40.8598 53.9034 41.4981 53.608 42.0284C53.3163 42.5587 52.9053 42.964 52.375 43.2443C51.8447 43.5208 51.2235 43.6591 50.5114 43.6591C49.8561 43.6591 49.267 43.5398 48.7443 43.3011C48.2254 43.0625 47.8144 42.7159 47.5114 42.2614C47.2121 41.803 47.0625 41.2462 47.0625 40.5909H48.8068C48.8068 40.9129 48.8807 41.1913 49.0284 41.4261C49.1799 41.661 49.3864 41.8447 49.6477 41.9773C49.9129 42.1061 50.2159 42.1705 50.5568 42.1705C50.928 42.1705 51.2424 42.0928 51.5 41.9375C51.7614 41.7784 51.9602 41.5455 52.0966 41.2386C52.233 40.9318 52.3011 40.5568 52.3011 40.1136V31.8636ZM60.2315 43.6761C59.3717 43.6761 58.6312 43.4924 58.0099 43.125C57.3925 42.7538 56.9152 42.233 56.5781 41.5625C56.2448 40.8883 56.0781 40.0985 56.0781 39.1932C56.0781 38.2992 56.2448 37.5114 56.5781 36.8295C56.9152 36.1477 57.3849 35.6155 57.9872 35.233C58.5933 34.8504 59.3016 34.6591 60.1122 34.6591C60.6046 34.6591 61.0819 34.7405 61.544 34.9034C62.0062 35.0663 62.4209 35.322 62.7884 35.6705C63.1558 36.0189 63.4455 36.4716 63.6577 37.0284C63.8698 37.5814 63.9759 38.2538 63.9759 39.0455V39.6477H57.0384V38.375H62.3111C62.3111 37.928 62.2202 37.5322 62.0384 37.1875C61.8565 36.839 61.6009 36.5644 61.2713 36.3636C60.9455 36.1629 60.563 36.0625 60.1236 36.0625C59.6463 36.0625 59.2296 36.1799 58.8736 36.4148C58.5213 36.6458 58.2486 36.9489 58.0554 37.3239C57.866 37.6951 57.7713 38.0985 57.7713 38.5341V39.5284C57.7713 40.1117 57.8736 40.608 58.0781 41.017C58.2865 41.4261 58.5762 41.7386 58.9474 41.9545C59.3187 42.1667 59.7524 42.2727 60.2486 42.2727C60.5705 42.2727 60.8641 42.2273 61.1293 42.1364C61.3944 42.0417 61.6236 41.9015 61.8168 41.7159C62.0099 41.5303 62.1577 41.3011 62.2599 41.0284L63.8679 41.3182C63.7391 41.7917 63.508 42.2064 63.1747 42.5625C62.8452 42.9148 62.4304 43.1894 61.9304 43.3864C61.4342 43.5795 60.8679 43.6761 60.2315 43.6761ZM68.4006 43.6932C67.8475 43.6932 67.3475 43.5909 66.9006 43.3864C66.4536 43.178 66.0994 42.8769 65.8381 42.483C65.5805 42.089 65.4517 41.6061 65.4517 41.0341C65.4517 40.5417 65.5464 40.1364 65.7358 39.8182C65.9252 39.5 66.1809 39.2481 66.5028 39.0625C66.8248 38.8769 67.1847 38.7367 67.5824 38.642C67.9801 38.5473 68.3854 38.4754 68.7983 38.4261C69.321 38.3655 69.7453 38.3163 70.071 38.2784C70.3968 38.2367 70.6335 38.1705 70.7812 38.0795C70.929 37.9886 71.0028 37.8409 71.0028 37.6364V37.5966C71.0028 37.1004 70.8627 36.7159 70.5824 36.4432C70.3059 36.1705 69.893 36.0341 69.3438 36.0341C68.7718 36.0341 68.321 36.161 67.9915 36.4148C67.6657 36.6648 67.4403 36.9432 67.3153 37.25L65.7188 36.8864C65.9081 36.3561 66.1847 35.928 66.5483 35.6023C66.9157 35.2727 67.3381 35.0341 67.8153 34.8864C68.2926 34.7348 68.7945 34.6591 69.321 34.6591C69.6695 34.6591 70.0388 34.7008 70.429 34.7841C70.8229 34.8636 71.1903 35.0114 71.5312 35.2273C71.8759 35.4432 72.1581 35.7519 72.3778 36.1534C72.5975 36.5511 72.7074 37.0682 72.7074 37.7045V43.5H71.0483V42.3068H70.9801C70.8703 42.5265 70.7055 42.7424 70.4858 42.9545C70.2661 43.1667 69.9839 43.3428 69.6392 43.483C69.2945 43.6231 68.8816 43.6932 68.4006 43.6932ZM68.7699 42.3295C69.2396 42.3295 69.6411 42.2367 69.9744 42.0511C70.3116 41.8655 70.5672 41.6231 70.7415 41.3239C70.9195 41.0208 71.0085 40.697 71.0085 40.3523V39.2273C70.9479 39.2879 70.8305 39.3447 70.6562 39.3977C70.4858 39.447 70.2907 39.4905 70.071 39.5284C69.8513 39.5625 69.6373 39.5947 69.429 39.625C69.2206 39.6515 69.0464 39.6742 68.9062 39.6932C68.5767 39.7348 68.2756 39.8049 68.0028 39.9034C67.7339 40.0019 67.518 40.1439 67.3551 40.3295C67.196 40.5114 67.1165 40.7538 67.1165 41.0568C67.1165 41.4773 67.2718 41.7955 67.5824 42.0114C67.893 42.2235 68.2888 42.3295 68.7699 42.3295ZM76.669 38.3182V43.5H74.9702V34.7727H76.6009V36.1932H76.7088C76.9096 35.7311 77.224 35.3598 77.652 35.0795C78.0838 34.7992 78.6274 34.6591 79.2827 34.6591C79.8774 34.6591 80.3982 34.7841 80.8452 35.0341C81.2921 35.2803 81.6387 35.6477 81.8849 36.1364C82.1312 36.625 82.2543 37.2292 82.2543 37.9489V43.5H80.5554V38.1534C80.5554 37.5208 80.3906 37.0265 80.0611 36.6705C79.7315 36.3106 79.2789 36.1307 78.7031 36.1307C78.3092 36.1307 77.9588 36.2159 77.652 36.3864C77.349 36.5568 77.1084 36.8068 76.9304 37.1364C76.7562 37.4621 76.669 37.8561 76.669 38.3182Z" fill="white"/>
<path d="M91.0341 31.8636V43.5H89.2727V33.625H89.2045L86.4205 35.4432V33.7614L89.3239 31.8636H91.0341ZM94.1818 43.5V42.2273L98.1193 38.1477C98.5398 37.7045 98.8864 37.3163 99.1591 36.983C99.4356 36.6458 99.642 36.3258 99.7784 36.0227C99.9148 35.7197 99.983 35.3977 99.983 35.0568C99.983 34.6705 99.892 34.3371 99.7102 34.0568C99.5284 33.7727 99.2803 33.5549 98.9659 33.4034C98.6515 33.2481 98.2973 33.1705 97.9034 33.1705C97.4867 33.1705 97.1231 33.2557 96.8125 33.4261C96.5019 33.5966 96.2633 33.8371 96.0966 34.1477C95.9299 34.4583 95.8466 34.822 95.8466 35.2386H94.1705C94.1705 34.5303 94.3333 33.911 94.6591 33.3807C94.9848 32.8504 95.4318 32.4394 96 32.1477C96.5682 31.8523 97.214 31.7045 97.9375 31.7045C98.6686 31.7045 99.3125 31.8504 99.8693 32.142C100.43 32.4299 100.867 32.8239 101.182 33.3239C101.496 33.8201 101.653 34.3807 101.653 35.0057C101.653 35.4375 101.572 35.8598 101.409 36.2727C101.25 36.6856 100.972 37.1458 100.574 37.6534C100.176 38.1572 99.6231 38.7689 98.9148 39.4886L96.6023 41.9091V41.9943H101.841V43.5H94.1818ZM108.449 31.3182L104.699 45.25H103.182L106.932 31.3182H108.449ZM113.92 43.6932C113.023 43.6894 112.256 43.4527 111.619 42.983C110.983 42.5133 110.496 41.8295 110.159 40.9318C109.822 40.0341 109.653 38.9527 109.653 37.6875C109.653 36.4261 109.822 35.3485 110.159 34.4545C110.5 33.5606 110.989 32.8788 111.625 32.4091C112.265 31.9394 113.03 31.7045 113.92 31.7045C114.811 31.7045 115.574 31.9413 116.21 32.4148C116.847 32.8845 117.333 33.5663 117.67 34.4602C118.011 35.3504 118.182 36.4261 118.182 37.6875C118.182 38.9564 118.013 40.0398 117.676 40.9375C117.339 41.8314 116.852 42.5152 116.216 42.9886C115.58 43.4583 114.814 43.6932 113.92 43.6932ZM113.92 42.1761C114.708 42.1761 115.324 41.7917 115.767 41.0227C116.214 40.2538 116.438 39.142 116.438 37.6875C116.438 36.7216 116.335 35.9053 116.131 35.2386C115.93 34.5682 115.64 34.0606 115.261 33.7159C114.886 33.3674 114.439 33.1932 113.92 33.1932C113.136 33.1932 112.521 33.5795 112.074 34.3523C111.627 35.125 111.402 36.2367 111.398 37.6875C111.398 38.6572 111.498 39.4773 111.699 40.1477C111.903 40.8144 112.193 41.3201 112.568 41.6648C112.943 42.0057 113.394 42.1761 113.92 42.1761ZM124.26 43.6591C123.741 43.6515 123.23 43.5568 122.726 43.375C122.226 43.1932 121.771 42.8902 121.362 42.4659C120.953 42.0417 120.625 41.4716 120.379 40.7557C120.137 40.0398 120.016 39.1458 120.016 38.0739C120.016 37.0587 120.116 36.1572 120.317 35.3693C120.521 34.5814 120.815 33.9167 121.197 33.375C121.58 32.8295 122.042 32.4148 122.584 32.1307C123.125 31.8466 123.733 31.7045 124.408 31.7045C125.101 31.7045 125.716 31.8409 126.254 32.1136C126.792 32.3864 127.228 32.7633 127.561 33.2443C127.898 33.7254 128.112 34.2727 128.203 34.8864H126.47C126.353 34.4015 126.12 34.0057 125.771 33.6989C125.423 33.392 124.968 33.2386 124.408 33.2386C123.555 33.2386 122.891 33.6098 122.413 34.3523C121.94 35.0947 121.701 36.1269 121.697 37.4489H121.783C121.983 37.1193 122.23 36.839 122.521 36.608C122.817 36.3731 123.146 36.1932 123.51 36.0682C123.877 35.9394 124.264 35.875 124.669 35.875C125.343 35.875 125.953 36.0398 126.499 36.3693C127.048 36.6951 127.485 37.1458 127.811 37.7216C128.137 38.2973 128.3 38.9564 128.3 39.6989C128.3 40.4413 128.131 41.1136 127.794 41.7159C127.461 42.3182 126.991 42.7955 126.385 43.1477C125.779 43.4962 125.071 43.6667 124.26 43.6591ZM124.254 42.1818C124.701 42.1818 125.101 42.072 125.453 41.8523C125.805 41.6326 126.084 41.3371 126.288 40.9659C126.493 40.5947 126.595 40.1799 126.595 39.7216C126.595 39.2746 126.495 38.8674 126.294 38.5C126.097 38.1326 125.824 37.8409 125.476 37.625C125.131 37.4091 124.737 37.3011 124.294 37.3011C123.957 37.3011 123.644 37.3655 123.357 37.4943C123.072 37.6231 122.822 37.8011 122.607 38.0284C122.391 38.2557 122.22 38.517 122.095 38.8125C121.974 39.1042 121.913 39.4129 121.913 39.7386C121.913 40.1742 122.014 40.5777 122.214 40.9489C122.419 41.3201 122.697 41.6193 123.05 41.8466C123.406 42.0701 123.807 42.1818 124.254 42.1818ZM134.824 31.3182L131.074 45.25H129.557L133.307 31.3182H134.824ZM136.244 43.5V42.2273L140.182 38.1477C140.602 37.7045 140.949 37.3163 141.222 36.983C141.498 36.6458 141.705 36.3258 141.841 36.0227C141.977 35.7197 142.045 35.3977 142.045 35.0568C142.045 34.6705 141.955 34.3371 141.773 34.0568C141.591 33.7727 141.343 33.5549 141.028 33.4034C140.714 33.2481 140.36 33.1705 139.966 33.1705C139.549 33.1705 139.186 33.2557 138.875 33.4261C138.564 33.5966 138.326 33.8371 138.159 34.1477C137.992 34.4583 137.909 34.822 137.909 35.2386H136.233C136.233 34.5303 136.396 33.911 136.722 33.3807C137.047 32.8504 137.494 32.4394 138.062 32.1477C138.631 31.8523 139.277 31.7045 140 31.7045C140.731 31.7045 141.375 31.8504 141.932 32.142C142.492 32.4299 142.93 32.8239 143.244 33.3239C143.559 33.8201 143.716 34.3807 143.716 35.0057C143.716 35.4375 143.634 35.8598 143.472 36.2727C143.313 36.6856 143.034 37.1458 142.636 37.6534C142.239 38.1572 141.686 38.7689 140.977 39.4886L138.665 41.9091V41.9943H143.903V43.5H136.244ZM150.108 43.6932C149.21 43.6894 148.443 43.4527 147.807 42.983C147.17 42.5133 146.684 41.8295 146.347 40.9318C146.009 40.0341 145.841 38.9527 145.841 37.6875C145.841 36.4261 146.009 35.3485 146.347 34.4545C146.688 33.5606 147.176 32.8788 147.812 32.4091C148.453 31.9394 149.218 31.7045 150.108 31.7045C150.998 31.7045 151.761 31.9413 152.398 32.4148C153.034 32.8845 153.521 33.5663 153.858 34.4602C154.199 35.3504 154.369 36.4261 154.369 37.6875C154.369 38.9564 154.201 40.0398 153.864 40.9375C153.527 41.8314 153.04 42.5152 152.403 42.9886C151.767 43.4583 151.002 43.6932 150.108 43.6932ZM150.108 42.1761C150.896 42.1761 151.511 41.7917 151.955 41.0227C152.402 40.2538 152.625 39.142 152.625 37.6875C152.625 36.7216 152.523 35.9053 152.318 35.2386C152.117 34.5682 151.828 34.0606 151.449 33.7159C151.074 33.3674 150.627 33.1932 150.108 33.1932C149.324 33.1932 148.708 33.5795 148.261 34.3523C147.814 35.125 147.589 36.2367 147.585 37.6875C147.585 38.6572 147.686 39.4773 147.886 40.1477C148.091 40.8144 148.381 41.3201 148.756 41.6648C149.131 42.0057 149.581 42.1761 150.108 42.1761ZM156.385 43.5V42.2273L160.322 38.1477C160.743 37.7045 161.089 37.3163 161.362 36.983C161.639 36.6458 161.845 36.3258 161.982 36.0227C162.118 35.7197 162.186 35.3977 162.186 35.0568C162.186 34.6705 162.095 34.3371 161.913 34.0568C161.732 33.7727 161.483 33.5549 161.169 33.4034C160.855 33.2481 160.5 33.1705 160.107 33.1705C159.69 33.1705 159.326 33.2557 159.016 33.4261C158.705 33.5966 158.466 33.8371 158.3 34.1477C158.133 34.4583 158.05 34.822 158.05 35.2386H156.374C156.374 34.5303 156.536 33.911 156.862 33.3807C157.188 32.8504 157.635 32.4394 158.203 32.1477C158.771 31.8523 159.417 31.7045 160.141 31.7045C160.872 31.7045 161.516 31.8504 162.072 32.142C162.633 32.4299 163.071 32.8239 163.385 33.3239C163.699 33.8201 163.857 34.3807 163.857 35.0057C163.857 35.4375 163.775 35.8598 163.612 36.2727C163.453 36.6856 163.175 37.1458 162.777 37.6534C162.379 38.1572 161.826 38.7689 161.118 39.4886L158.805 41.9091V41.9943H164.044V43.5H156.385ZM165.703 41.2273V39.8068L170.732 31.8636H171.851V33.9545H171.141L167.544 39.6477V39.7386H174.436V41.2273H165.703ZM171.22 43.5V40.7955L171.232 40.1477V31.8636H172.896V43.5H171.22Z" fill="white"/>
<g clip-path="url(#clip0_400_941)">
<rect width="240" height="48" transform="translate(82.5 121.5)" fill="#0E5835"/>
<rect width="48" height="48" transform="translate(82.5 121.5)" fill="#0E5835"/>
<path fill-rule="evenodd" clip-rule="evenodd" d="M106.5 150.77L112.68 154.5L111.04 147.47L116.5 142.74L109.31 142.13L106.5 135.5L103.69 142.13L96.5 142.74L101.96 147.47L100.32 154.5L106.5 150.77Z" fill="#F3AF00"/>
<rect width="48" height="48" transform="translate(130.5 121.5)" fill="#0E5835"/>
<path fill-rule="evenodd" clip-rule="evenodd" d="M154.5 150.77L160.68 154.5L159.04 147.47L164.5 142.74L157.31 142.13L154.5 135.5L151.69 142.13L144.5 142.74L149.96 147.47L148.32 154.5L154.5 150.77Z" fill="#F3AF00"/>
<rect width="48" height="48" transform="translate(178.5 121.5)" fill="#0E5835"/>
<path fill-rule="evenodd" clip-rule="evenodd" d="M202.5 150.77L208.68 154.5L207.04 147.47L212.5 142.74L205.31 142.13L202.5 135.5L199.69 142.13L192.5 142.74L197.96 147.47L196.32 154.5L202.5 150.77Z" fill="#F3AF00"/>
<rect width="48" height="48" transform="translate(226.5 121.5)" fill="#0E5835"/>
<path fill-rule="evenodd" clip-rule="evenodd" d="M250.5 150.77L256.68 154.5L255.04 147.47L260.5 142.74L253.31 142.13L250.5 135.5L247.69 142.13L240.5 142.74L245.96 147.47L244.32 154.5L250.5 150.77Z" fill="#F3AF00"/>
<rect width="48" height="48" transform="translate(274.5 121.5)" fill="#0E5835"/>
<path fill-rule="evenodd" clip-rule="evenodd" d="M298.5 150.77L304.68 154.5L303.04 147.47L308.5 142.74L301.31 142.13L298.5 135.5L295.69 142.13L288.5 142.74L293.96 147.47L292.32 154.5L298.5 150.77Z" fill="#F3AF00"/>
</g>
<path d="M43.206 87.5V86.5455C43.206 86.2637 43.259 85.9671 43.3651 85.6555C43.4711 85.344 43.6186 85.0457 43.8075 84.7607C43.9964 84.4756 44.2185 84.232 44.4737 84.0298L45.2095 84.5568C45.0073 84.8518 44.835 85.16 44.6925 85.4815C44.55 85.803 44.4787 86.1527 44.4787 86.5305V87.5H43.206ZM45.7415 87.5V86.5455C45.7415 86.2637 45.7945 85.9671 45.9006 85.6555C46.0066 85.344 46.1541 85.0457 46.343 84.7607C46.532 84.4756 46.754 84.232 47.0092 84.0298L47.745 84.5568C47.5429 84.8518 47.3705 85.16 47.228 85.4815C47.0855 85.803 47.0142 86.1527 47.0142 86.5305V87.5H45.7415ZM49.142 94.5V84.3182H50.6783V93.1776H55.2919V94.5H49.142ZM60.2163 94.6541C59.4639 94.6541 58.8159 94.4934 58.2724 94.1719C57.7321 93.8471 57.3145 93.3913 57.0195 92.8047C56.7279 92.2147 56.582 91.5237 56.582 90.7315C56.582 89.9493 56.7279 89.2599 57.0195 88.6634C57.3145 88.0668 57.7255 87.6011 58.2525 87.2663C58.7828 86.9316 59.4026 86.7642 60.1119 86.7642C60.5427 86.7642 60.9603 86.8355 61.3647 86.978C61.7691 87.1205 62.132 87.3442 62.4535 87.6491C62.775 87.9541 63.0285 88.3501 63.2141 88.8374C63.3997 89.3213 63.4925 89.9096 63.4925 90.6023V91.1293H57.4222V90.0156H62.0359C62.0359 89.6245 61.9563 89.2782 61.7972 88.9766C61.6381 88.6716 61.4144 88.4313 61.1261 88.2557C60.841 88.08 60.5063 87.9922 60.1218 87.9922C59.7042 87.9922 59.3396 88.0949 59.0281 88.3004C58.7198 88.5026 58.4812 88.7678 58.3121 89.0959C58.1464 89.4207 58.0636 89.7737 58.0636 90.1548V91.0249C58.0636 91.5353 58.1531 91.9695 58.332 92.3274C58.5143 92.6854 58.7679 92.9588 59.0927 93.1477C59.4175 93.3333 59.797 93.4261 60.2312 93.4261C60.5129 93.4261 60.7698 93.3864 61.0018 93.3068C61.2338 93.224 61.4343 93.1013 61.6033 92.9389C61.7724 92.7765 61.9016 92.576 61.9911 92.3374L63.3981 92.5909C63.2854 93.0052 63.0832 93.3681 62.7915 93.6797C62.5032 93.9879 62.1403 94.2282 61.7028 94.4006C61.2686 94.5696 60.7731 94.6541 60.2163 94.6541ZM70.8642 88.728L69.5169 88.9666C69.4605 88.7943 69.371 88.6302 69.2484 88.4744C69.1291 88.3187 68.9667 88.1911 68.7612 88.0916C68.5557 87.9922 68.2988 87.9425 67.9906 87.9425C67.5697 87.9425 67.2183 88.0369 66.9366 88.2259C66.6549 88.4115 66.514 88.6518 66.514 88.9467C66.514 89.2019 66.6085 89.4074 66.7974 89.5632C66.9863 89.719 67.2913 89.8466 67.7122 89.946L68.9252 90.2244C69.6279 90.3868 70.1516 90.6371 70.4963 90.9751C70.841 91.3132 71.0133 91.7524 71.0133 92.2926C71.0133 92.75 70.8807 93.1577 70.6156 93.5156C70.3538 93.8703 69.9875 94.1487 69.5169 94.3509C69.0495 94.553 68.5076 94.6541 67.8912 94.6541C67.036 94.6541 66.3384 94.4718 65.7981 94.1072C65.2579 93.7393 64.9264 93.2173 64.8038 92.5412L66.2406 92.3224C66.3301 92.697 66.514 92.9804 66.7924 93.1726C67.0708 93.3615 67.4338 93.456 67.8812 93.456C68.3684 93.456 68.7579 93.3549 69.0495 93.1527C69.3412 92.9472 69.487 92.697 69.487 92.402C69.487 92.1634 69.3975 91.9628 69.2186 91.8004C69.0429 91.638 68.7728 91.5154 68.4082 91.4325L67.1156 91.1491C66.403 90.9867 65.876 90.7282 65.5346 90.3736C65.1966 90.0189 65.0275 89.5698 65.0275 89.0263C65.0275 88.5755 65.1535 88.1811 65.4054 87.843C65.6573 87.505 66.0053 87.2415 66.4494 87.0526C66.8935 86.8603 67.4023 86.7642 67.9757 86.7642C68.801 86.7642 69.4506 86.9432 69.9245 87.3011C70.3985 87.6558 70.7117 88.1314 70.8642 88.728ZM79.644 94.6541C78.8916 94.6541 78.2437 94.4934 77.7001 94.1719C77.1599 93.8471 76.7422 93.3913 76.4473 92.8047C76.1556 92.2147 76.0098 91.5237 76.0098 90.7315C76.0098 89.9493 76.1556 89.2599 76.4473 88.6634C76.7422 88.0668 77.1532 87.6011 77.6802 87.2663C78.2105 86.9316 78.8303 86.7642 79.5396 86.7642C79.9705 86.7642 80.3881 86.8355 80.7924 86.978C81.1968 87.1205 81.5597 87.3442 81.8812 87.6491C82.2027 87.9541 82.4563 88.3501 82.6419 88.8374C82.8275 89.3213 82.9203 89.9096 82.9203 90.6023V91.1293H76.85V90.0156H81.4636C81.4636 89.6245 81.3841 89.2782 81.225 88.9766C81.0659 88.6716 80.8422 88.4313 80.5538 88.2557C80.2688 88.08 79.934 87.9922 79.5495 87.9922C79.1319 87.9922 78.7673 88.0949 78.4558 88.3004C78.1475 88.5026 77.9089 88.7678 77.7399 89.0959C77.5742 89.4207 77.4913 89.7737 77.4913 90.1548V91.0249C77.4913 91.5353 77.5808 91.9695 77.7598 92.3274C77.9421 92.6854 78.1956 92.9588 78.5204 93.1477C78.8452 93.3333 79.2247 93.4261 79.6589 93.4261C79.9406 93.4261 80.1975 93.3864 80.4295 93.3068C80.6615 93.224 80.862 93.1013 81.0311 92.9389C81.2001 92.7765 81.3294 92.576 81.4189 92.3374L82.8258 92.5909C82.7131 93.0052 82.5109 93.3681 82.2193 93.6797C81.9309 93.9879 81.568 94.2282 81.1305 94.4006C80.6963 94.5696 80.2008 94.6541 79.644 94.6541ZM86.0561 89.9659V94.5H84.5696V86.8636H85.9964V88.1065H86.0909C86.2666 87.7022 86.5417 87.3774 86.9162 87.1321C87.294 86.8868 87.7696 86.7642 88.343 86.7642C88.8634 86.7642 89.3191 86.8736 89.7102 87.0923C90.1013 87.3078 90.4046 87.6293 90.62 88.0568C90.8355 88.4844 90.9432 89.013 90.9432 89.6428V94.5H89.4567V89.8217C89.4567 89.2682 89.3125 88.8357 89.0241 88.5241C88.7358 88.2093 88.3397 88.0518 87.8359 88.0518C87.4912 88.0518 87.1847 88.1264 86.9162 88.2756C86.651 88.4247 86.4406 88.6435 86.2848 88.9318C86.1323 89.2169 86.0561 89.5616 86.0561 89.9659ZM96.571 86.8636V88.0568H92.2557V86.8636H96.571ZM93.4389 94.5V85.9787C93.4389 85.5014 93.5433 85.1053 93.7521 84.7905C93.9609 84.4723 94.2377 84.2353 94.5824 84.0795C94.9271 83.9205 95.3016 83.8409 95.706 83.8409C96.0043 83.8409 96.2595 83.8658 96.4716 83.9155C96.6837 83.9619 96.8411 84.005 96.9439 84.0447L96.5959 85.2479C96.5263 85.228 96.4368 85.2048 96.3274 85.1783C96.218 85.1484 96.0855 85.1335 95.9297 85.1335C95.5684 85.1335 95.3099 85.223 95.1541 85.402C95.0017 85.581 94.9254 85.8395 94.9254 86.1776V94.5H93.4389ZM100.095 94.669C99.6107 94.669 99.1732 94.5795 98.7821 94.4006C98.391 94.2183 98.0811 93.9548 97.8525 93.6101C97.6271 93.2654 97.5144 92.8428 97.5144 92.3423C97.5144 91.9115 97.5972 91.5568 97.763 91.2784C97.9287 91 98.1524 90.7796 98.4341 90.6172C98.7158 90.4548 99.0307 90.3321 99.3787 90.2493C99.7267 90.1664 100.081 90.1035 100.443 90.0604C100.9 90.0073 101.271 89.9643 101.556 89.9311C101.841 89.8946 102.048 89.8366 102.178 89.7571C102.307 89.6776 102.372 89.5483 102.372 89.3693V89.3345C102.372 88.9003 102.249 88.5639 102.004 88.3253C101.762 88.0866 101.401 87.9673 100.92 87.9673C100.419 87.9673 100.025 88.0784 99.7367 88.3004C99.4516 88.5192 99.2544 88.7628 99.1451 89.0312L97.748 88.7131C97.9138 88.2491 98.1557 87.8745 98.4739 87.5895C98.7954 87.3011 99.165 87.0923 99.5826 86.9631C100 86.8305 100.439 86.7642 100.9 86.7642C101.205 86.7642 101.528 86.8007 101.869 86.8736C102.214 86.9432 102.536 87.0724 102.834 87.2614C103.136 87.4503 103.383 87.7204 103.575 88.0717C103.767 88.4197 103.863 88.8722 103.863 89.429V94.5H102.411V93.456H102.352C102.256 93.6482 102.111 93.8371 101.919 94.0227C101.727 94.2083 101.48 94.3625 101.178 94.4851C100.877 94.6077 100.516 94.669 100.095 94.669ZM100.418 93.4759C100.829 93.4759 101.18 93.3946 101.472 93.2322C101.767 93.0698 101.99 92.8577 102.143 92.5959C102.299 92.3307 102.377 92.0473 102.377 91.7457V90.7614C102.324 90.8144 102.221 90.8641 102.068 90.9105C101.919 90.9536 101.749 90.9917 101.556 91.0249C101.364 91.0547 101.177 91.0829 100.994 91.1094C100.812 91.1326 100.66 91.1525 100.537 91.169C100.249 91.2055 99.9853 91.2668 99.7466 91.353C99.5113 91.4392 99.3224 91.5634 99.1799 91.7259C99.0407 91.8849 98.9711 92.0971 98.9711 92.3622C98.9711 92.7301 99.1069 93.0085 99.3787 93.1974C99.6505 93.383 99.9969 93.4759 100.418 93.4759ZM107.33 89.9659V94.5H105.843V86.8636H107.27V88.1065H107.364C107.54 87.7022 107.815 87.3774 108.19 87.1321C108.567 86.8868 109.043 86.7642 109.616 86.7642C110.137 86.7642 110.593 86.8736 110.984 87.0923C111.375 87.3078 111.678 87.6293 111.893 88.0568C112.109 88.4844 112.217 89.013 112.217 89.6428V94.5H110.73V89.8217C110.73 89.2682 110.586 88.8357 110.298 88.5241C110.009 88.2093 109.613 88.0518 109.109 88.0518C108.765 88.0518 108.458 88.1264 108.19 88.2756C107.924 88.4247 107.714 88.6435 107.558 88.9318C107.406 89.2169 107.33 89.5616 107.33 89.9659ZM117.775 86.8636V88.0568H113.604V86.8636H117.775ZM114.722 85.0341H116.209V92.2578C116.209 92.5462 116.252 92.7633 116.338 92.9091C116.424 93.0516 116.535 93.1494 116.671 93.2024C116.81 93.2521 116.961 93.277 117.124 93.277C117.243 93.277 117.347 93.2687 117.437 93.2521C117.526 93.2356 117.596 93.2223 117.646 93.2124L117.914 94.4403C117.828 94.4735 117.705 94.5066 117.546 94.5398C117.387 94.5762 117.188 94.5961 116.95 94.5994C116.558 94.6061 116.194 94.5365 115.856 94.3906C115.518 94.2448 115.244 94.0194 115.036 93.7145C114.827 93.4096 114.722 93.0268 114.722 92.5661V85.0341ZM125.018 88.728L123.671 88.9666C123.615 88.7943 123.525 88.6302 123.403 88.4744C123.283 88.3187 123.121 88.1911 122.915 88.0916C122.71 87.9922 122.453 87.9425 122.145 87.9425C121.724 87.9425 121.373 88.0369 121.091 88.2259C120.809 88.4115 120.668 88.6518 120.668 88.9467C120.668 89.2019 120.763 89.4074 120.952 89.5632C121.141 89.719 121.446 89.8466 121.866 89.946L123.08 90.2244C123.782 90.3868 124.306 90.6371 124.651 90.9751C124.995 91.3132 125.168 91.7524 125.168 92.2926C125.168 92.75 125.035 93.1577 124.77 93.5156C124.508 93.8703 124.142 94.1487 123.671 94.3509C123.204 94.553 122.662 94.6541 122.045 94.6541C121.19 94.6541 120.493 94.4718 119.952 94.1072C119.412 93.7393 119.081 93.2173 118.958 92.5412L120.395 92.3224C120.484 92.697 120.668 92.9804 120.947 93.1726C121.225 93.3615 121.588 93.456 122.036 93.456C122.523 93.456 122.912 93.3549 123.204 93.1527C123.496 92.9472 123.641 92.697 123.641 92.402C123.641 92.1634 123.552 91.9628 123.373 91.8004C123.197 91.638 122.927 91.5154 122.562 91.4325L121.27 91.1491C120.557 90.9867 120.03 90.7282 119.689 90.3736C119.351 90.0189 119.182 89.5698 119.182 89.0263C119.182 88.5755 119.308 88.1811 119.56 87.843C119.812 87.505 120.16 87.2415 120.604 87.0526C121.048 86.8603 121.557 86.7642 122.13 86.7642C122.955 86.7642 123.605 86.9432 124.079 87.3011C124.553 87.6558 124.866 88.1314 125.018 88.728ZM133.724 94.6541C133.008 94.6541 132.383 94.4901 131.849 94.1619C131.316 93.8338 130.902 93.3748 130.607 92.7848C130.312 92.1948 130.164 91.5054 130.164 90.7166C130.164 89.9245 130.312 89.2318 130.607 88.6385C130.902 88.0452 131.316 87.5845 131.849 87.2564C132.383 86.9283 133.008 86.7642 133.724 86.7642C134.44 86.7642 135.064 86.9283 135.598 87.2564C136.132 87.5845 136.546 88.0452 136.841 88.6385C137.136 89.2318 137.283 89.9245 137.283 90.7166C137.283 91.5054 137.136 92.1948 136.841 92.7848C136.546 93.3748 136.132 93.8338 135.598 94.1619C135.064 94.4901 134.44 94.6541 133.724 94.6541ZM133.729 93.4062C134.193 93.4062 134.577 93.2836 134.882 93.0384C135.187 92.7931 135.412 92.4666 135.558 92.0589C135.707 91.6513 135.782 91.2022 135.782 90.7116C135.782 90.2244 135.707 89.777 135.558 89.3693C135.412 88.9583 135.187 88.6286 134.882 88.38C134.577 88.1314 134.193 88.0071 133.729 88.0071C133.261 88.0071 132.874 88.1314 132.565 88.38C132.26 88.6286 132.033 88.9583 131.884 89.3693C131.738 89.777 131.665 90.2244 131.665 90.7116C131.665 91.2022 131.738 91.6513 131.884 92.0589C132.033 92.4666 132.26 92.7931 132.565 93.0384C132.874 93.2836 133.261 93.4062 133.729 93.4062ZM140.429 89.9659V94.5H138.943V86.8636H140.369V88.1065H140.464C140.64 87.7022 140.915 87.3774 141.289 87.1321C141.667 86.8868 142.143 86.7642 142.716 86.7642C143.236 86.7642 143.692 86.8736 144.083 87.0923C144.474 87.3078 144.778 87.6293 144.993 88.0568C145.209 88.4844 145.316 89.013 145.316 89.6428V94.5H143.83V89.8217C143.83 89.2682 143.686 88.8357 143.397 88.5241C143.109 88.2093 142.713 88.0518 142.209 88.0518C141.864 88.0518 141.558 88.1264 141.289 88.2756C141.024 88.4247 140.814 88.6435 140.658 88.9318C140.505 89.2169 140.429 89.5616 140.429 89.9659ZM150.874 86.8636V88.0568H146.703V86.8636H150.874ZM147.822 85.0341H149.308V92.2578C149.308 92.5462 149.352 92.7633 149.438 92.9091C149.524 93.0516 149.635 93.1494 149.771 93.2024C149.91 93.2521 150.061 93.277 150.223 93.277C150.343 93.277 150.447 93.2687 150.536 93.2521C150.626 93.2356 150.695 93.2223 150.745 93.2124L151.014 94.4403C150.927 94.4735 150.805 94.5066 150.646 94.5398C150.487 94.5762 150.288 94.5961 150.049 94.5994C149.658 94.6061 149.294 94.5365 148.955 94.3906C148.617 94.2448 148.344 94.0194 148.135 93.7145C147.926 93.4096 147.822 93.0268 147.822 92.5661V85.0341ZM158.446 94.669C157.962 94.669 157.525 94.5795 157.134 94.4006C156.743 94.2183 156.433 93.9548 156.204 93.6101C155.979 93.2654 155.866 92.8428 155.866 92.3423C155.866 91.9115 155.949 91.5568 156.115 91.2784C156.28 91 156.504 90.7796 156.786 90.6172C157.067 90.4548 157.382 90.3321 157.73 90.2493C158.078 90.1664 158.433 90.1035 158.794 90.0604C159.252 90.0073 159.623 89.9643 159.908 89.9311C160.193 89.8946 160.4 89.8366 160.529 89.7571C160.659 89.6776 160.723 89.5483 160.723 89.3693V89.3345C160.723 88.9003 160.601 88.5639 160.355 88.3253C160.113 88.0866 159.752 87.9673 159.271 87.9673C158.771 87.9673 158.377 88.0784 158.088 88.3004C157.803 88.5192 157.606 88.7628 157.497 89.0312L156.1 88.7131C156.265 88.2491 156.507 87.8745 156.825 87.5895C157.147 87.3011 157.517 87.0923 157.934 86.9631C158.352 86.8305 158.791 86.7642 159.252 86.7642C159.557 86.7642 159.88 86.8007 160.221 86.8736C160.566 86.9432 160.887 87.0724 161.186 87.2614C161.487 87.4503 161.734 87.7204 161.926 88.0717C162.119 88.4197 162.215 88.8722 162.215 89.429V94.5H160.763V93.456H160.703C160.607 93.6482 160.463 93.8371 160.271 94.0227C160.079 94.2083 159.832 94.3625 159.53 94.4851C159.228 94.6077 158.867 94.669 158.446 94.669ZM158.769 93.4759C159.18 93.4759 159.532 93.3946 159.823 93.2322C160.118 93.0698 160.342 92.8577 160.494 92.5959C160.65 92.3307 160.728 92.0473 160.728 91.7457V90.7614C160.675 90.8144 160.572 90.8641 160.42 90.9105C160.271 90.9536 160.1 90.9917 159.908 91.0249C159.716 91.0547 159.528 91.0829 159.346 91.1094C159.164 91.1326 159.011 91.1525 158.889 91.169C158.6 91.2055 158.337 91.2668 158.098 91.353C157.863 91.4392 157.674 91.5634 157.531 91.7259C157.392 91.8849 157.323 92.0971 157.323 92.3622C157.323 92.7301 157.459 93.0085 157.73 93.1974C158.002 93.383 158.348 93.4759 158.769 93.4759ZM167.053 94.6491C166.437 94.6491 165.887 94.4917 165.403 94.1768C164.922 93.8587 164.544 93.4062 164.269 92.8196C163.997 92.2296 163.862 91.522 163.862 90.6967C163.862 89.8714 163.999 89.1655 164.274 88.5788C164.553 87.9922 164.934 87.5431 165.418 87.2315C165.902 86.92 166.45 86.7642 167.063 86.7642C167.537 86.7642 167.918 86.8438 168.207 87.0028C168.498 87.1586 168.724 87.3409 168.883 87.5497C169.045 87.7585 169.171 87.9425 169.261 88.1016H169.35V84.3182H170.837V94.5H169.385V93.3118H169.261C169.171 93.4742 169.042 93.6598 168.873 93.8686C168.707 94.0774 168.478 94.2597 168.187 94.4155C167.895 94.5713 167.517 94.6491 167.053 94.6491ZM167.381 93.3814C167.809 93.3814 168.17 93.2687 168.465 93.0433C168.763 92.8146 168.989 92.4981 169.141 92.0938C169.297 91.6894 169.375 91.2187 169.375 90.6818C169.375 90.1515 169.299 89.6875 169.146 89.2898C168.994 88.892 168.77 88.5821 168.475 88.3601C168.18 88.138 167.816 88.027 167.381 88.027C166.934 88.027 166.561 88.143 166.263 88.375C165.964 88.607 165.739 88.9235 165.587 89.3246C165.438 89.7256 165.363 90.178 165.363 90.6818C165.363 91.1922 165.439 91.6513 165.592 92.0589C165.744 92.4666 165.969 92.7898 166.268 93.0284C166.569 93.2637 166.941 93.3814 167.381 93.3814ZM176.175 94.6541C175.459 94.6541 174.834 94.4901 174.301 94.1619C173.767 93.8338 173.353 93.3748 173.058 92.7848C172.763 92.1948 172.615 91.5054 172.615 90.7166C172.615 89.9245 172.763 89.2318 173.058 88.6385C173.353 88.0452 173.767 87.5845 174.301 87.2564C174.834 86.9283 175.459 86.7642 176.175 86.7642C176.891 86.7642 177.516 86.9283 178.049 87.2564C178.583 87.5845 178.997 88.0452 179.292 88.6385C179.587 89.2318 179.735 89.9245 179.735 90.7166C179.735 91.5054 179.587 92.1948 179.292 92.7848C178.997 93.3748 178.583 93.8338 178.049 94.1619C177.516 94.4901 176.891 94.6541 176.175 94.6541ZM176.18 93.4062C176.644 93.4062 177.028 93.2836 177.333 93.0384C177.638 92.7931 177.864 92.4666 178.009 92.0589C178.159 91.6513 178.233 91.2022 178.233 90.7116C178.233 90.2244 178.159 89.777 178.009 89.3693C177.864 88.9583 177.638 88.6286 177.333 88.38C177.028 88.1314 176.644 88.0071 176.18 88.0071C175.713 88.0071 175.325 88.1314 175.017 88.38C174.712 88.6286 174.485 88.9583 174.335 89.3693C174.19 89.777 174.117 90.2244 174.117 90.7116C174.117 91.2022 174.19 91.6513 174.335 92.0589C174.485 92.4666 174.712 92.7931 175.017 93.0384C175.325 93.2836 175.713 93.4062 176.18 93.4062ZM181.394 94.5V86.8636H182.831V88.0767H182.91C183.049 87.6657 183.295 87.3426 183.646 87.1072C184.001 86.8686 184.402 86.7493 184.849 86.7493C184.942 86.7493 185.051 86.7526 185.177 86.7592C185.306 86.7659 185.408 86.7741 185.48 86.7841V88.206C185.421 88.1894 185.315 88.1712 185.162 88.1513C185.01 88.1281 184.857 88.1165 184.705 88.1165C184.354 88.1165 184.04 88.1911 183.765 88.3402C183.493 88.486 183.278 88.6899 183.119 88.9517C182.96 89.2102 182.88 89.5052 182.88 89.8366V94.5H181.394ZM189.785 94.6541C189.032 94.6541 188.384 94.4934 187.841 94.1719C187.3 93.8471 186.883 93.3913 186.588 92.8047C186.296 92.2147 186.15 91.5237 186.15 90.7315C186.15 89.9493 186.296 89.2599 186.588 88.6634C186.883 88.0668 187.294 87.6011 187.821 87.2663C188.351 86.9316 188.971 86.7642 189.68 86.7642C190.111 86.7642 190.529 86.8355 190.933 86.978C191.337 87.1205 191.7 87.3442 192.022 87.6491C192.343 87.9541 192.597 88.3501 192.782 88.8374C192.968 89.3213 193.061 89.9096 193.061 90.6023V91.1293H186.991V90.0156H191.604C191.604 89.6245 191.525 89.2782 191.366 88.9766C191.206 88.6716 190.983 88.4313 190.694 88.2557C190.409 88.08 190.075 87.9922 189.69 87.9922C189.273 87.9922 188.908 88.0949 188.596 88.3004C188.288 88.5026 188.05 88.7678 187.881 89.0959C187.715 89.4207 187.632 89.7737 187.632 90.1548V91.0249C187.632 91.5353 187.721 91.9695 187.9 92.3274C188.083 92.6854 188.336 92.9588 188.661 93.1477C188.986 93.3333 189.365 93.4261 189.8 93.4261C190.081 93.4261 190.338 93.3864 190.57 93.3068C190.802 93.224 191.003 93.1013 191.172 92.9389C191.341 92.7765 191.47 92.576 191.559 92.3374L192.966 92.5909C192.854 93.0052 192.652 93.3681 192.36 93.6797C192.072 93.9879 191.709 94.2282 191.271 94.4006C190.837 94.5696 190.341 94.6541 189.785 94.6541ZM189.009 85.8445L190.172 83.5526H191.738L190.197 85.8445H189.009ZM200.433 88.728L199.085 88.9666C199.029 88.7943 198.939 88.6302 198.817 88.4744C198.697 88.3187 198.535 88.1911 198.33 88.0916C198.124 87.9922 197.867 87.9425 197.559 87.9425C197.138 87.9425 196.787 88.0369 196.505 88.2259C196.223 88.4115 196.082 88.6518 196.082 88.9467C196.082 89.2019 196.177 89.4074 196.366 89.5632C196.555 89.719 196.86 89.8466 197.281 89.946L198.494 90.2244C199.196 90.3868 199.72 90.6371 200.065 90.9751C200.409 91.3132 200.582 91.7524 200.582 92.2926C200.582 92.75 200.449 93.1577 200.184 93.5156C199.922 93.8703 199.556 94.1487 199.085 94.3509C198.618 94.553 198.076 94.6541 197.46 94.6541C196.604 94.6541 195.907 94.4718 195.366 94.1072C194.826 93.7393 194.495 93.2173 194.372 92.5412L195.809 92.3224C195.898 92.697 196.082 92.9804 196.361 93.1726C196.639 93.3615 197.002 93.456 197.45 93.456C197.937 93.456 198.326 93.3549 198.618 93.1527C198.91 92.9472 199.055 92.697 199.055 92.402C199.055 92.1634 198.966 91.9628 198.787 91.8004C198.611 91.638 198.341 91.5154 197.977 91.4325L196.684 91.1491C195.971 90.9867 195.444 90.7282 195.103 90.3736C194.765 90.0189 194.596 89.5698 194.596 89.0263C194.596 88.5755 194.722 88.1811 194.974 87.843C195.226 87.505 195.574 87.2415 196.018 87.0526C196.462 86.8603 196.971 86.7642 197.544 86.7642C198.369 86.7642 199.019 86.9432 199.493 87.3011C199.967 87.6558 200.28 88.1314 200.433 88.728ZM204.15 93.108L204.075 93.6499C204.026 94.0476 203.941 94.4619 203.822 94.8928C203.706 95.3269 203.585 95.7296 203.459 96.1009C203.336 96.4721 203.235 96.767 203.156 96.9858H202.102C202.145 96.7803 202.204 96.5019 202.281 96.1506C202.357 95.8026 202.432 95.4131 202.504 94.9822C202.577 94.5514 202.632 94.1122 202.669 93.6648L202.718 93.108H204.15ZM209.79 97.3636V86.8636H211.242V88.1016H211.366C211.452 87.9425 211.577 87.7585 211.739 87.5497C211.902 87.3409 212.127 87.1586 212.415 87.0028C212.704 86.8438 213.085 86.7642 213.559 86.7642C214.175 86.7642 214.725 86.92 215.209 87.2315C215.693 87.5431 216.073 87.9922 216.348 88.5788C216.626 89.1655 216.765 89.8714 216.765 90.6967C216.765 91.522 216.628 92.2296 216.353 92.8196C216.078 93.4062 215.7 93.8587 215.219 94.1768C214.739 94.4917 214.19 94.6491 213.574 94.6491C213.11 94.6491 212.73 94.5713 212.435 94.4155C212.144 94.2597 211.915 94.0774 211.749 93.8686C211.583 93.6598 211.456 93.4742 211.366 93.3118H211.277V97.3636H209.79ZM211.247 90.6818C211.247 91.2187 211.325 91.6894 211.481 92.0938C211.636 92.4981 211.862 92.8146 212.157 93.0433C212.452 93.2687 212.813 93.3814 213.241 93.3814C213.685 93.3814 214.056 93.2637 214.354 93.0284C214.653 92.7898 214.878 92.4666 215.03 92.0589C215.186 91.6513 215.264 91.1922 215.264 90.6818C215.264 90.178 215.188 89.7256 215.035 89.3246C214.886 88.9235 214.661 88.607 214.359 88.375C214.061 88.143 213.688 88.027 213.241 88.027C212.81 88.027 212.445 88.138 212.147 88.3601C211.852 88.5821 211.628 88.892 211.476 89.2898C211.323 89.6875 211.247 90.1515 211.247 90.6818ZM220.653 94.669C220.169 94.669 219.732 94.5795 219.341 94.4006C218.95 94.2183 218.64 93.9548 218.411 93.6101C218.186 93.2654 218.073 92.8428 218.073 92.3423C218.073 91.9115 218.156 91.5568 218.322 91.2784C218.487 91 218.711 90.7796 218.993 90.6172C219.274 90.4548 219.589 90.3321 219.937 90.2493C220.285 90.1664 220.64 90.1035 221.001 90.0604C221.459 90.0073 221.83 89.9643 222.115 89.9311C222.4 89.8946 222.607 89.8366 222.736 89.7571C222.866 89.6776 222.93 89.5483 222.93 89.3693V89.3345C222.93 88.9003 222.808 88.5639 222.562 88.3253C222.32 88.0866 221.959 87.9673 221.479 87.9673C220.978 87.9673 220.584 88.0784 220.295 88.3004C220.01 88.5192 219.813 88.7628 219.704 89.0312L218.307 88.7131C218.472 88.2491 218.714 87.8745 219.032 87.5895C219.354 87.3011 219.724 87.0923 220.141 86.9631C220.559 86.8305 220.998 86.7642 221.459 86.7642C221.764 86.7642 222.087 86.8007 222.428 86.8736C222.773 86.9432 223.094 87.0724 223.393 87.2614C223.694 87.4503 223.941 87.7204 224.133 88.0717C224.326 88.4197 224.422 88.8722 224.422 89.429V94.5H222.97V93.456H222.91C222.814 93.6482 222.67 93.8371 222.478 94.0227C222.286 94.2083 222.039 94.3625 221.737 94.4851C221.435 94.6077 221.074 94.669 220.653 94.669ZM220.976 93.4759C221.387 93.4759 221.739 93.3946 222.03 93.2322C222.325 93.0698 222.549 92.8577 222.702 92.5959C222.857 92.3307 222.935 92.0473 222.935 91.7457V90.7614C222.882 90.8144 222.779 90.8641 222.627 90.9105C222.478 90.9536 222.307 90.9917 222.115 91.0249C221.923 91.0547 221.735 91.0829 221.553 91.1094C221.371 91.1326 221.218 91.1525 221.096 91.169C220.807 91.2055 220.544 91.2668 220.305 91.353C220.07 91.4392 219.881 91.5634 219.738 91.7259C219.599 91.8849 219.53 92.0971 219.53 92.3622C219.53 92.7301 219.666 93.0085 219.937 93.1974C220.209 93.383 220.555 93.4759 220.976 93.4759ZM226.402 94.5V86.8636H227.838V88.0767H227.918C228.057 87.6657 228.302 87.3426 228.654 87.1072C229.008 86.8686 229.409 86.7493 229.857 86.7493C229.95 86.7493 230.059 86.7526 230.185 86.7592C230.314 86.7659 230.415 86.7741 230.488 86.7841V88.206C230.429 88.1894 230.323 88.1712 230.17 88.1513C230.018 88.1281 229.865 88.1165 229.713 88.1165C229.361 88.1165 229.048 88.1911 228.773 88.3402C228.501 88.486 228.286 88.6899 228.127 88.9517C227.968 89.2102 227.888 89.5052 227.888 89.8366V94.5H226.402ZM235.79 86.8636V88.0568H231.619V86.8636H235.79ZM232.738 85.0341H234.224V92.2578C234.224 92.5462 234.268 92.7633 234.354 92.9091C234.44 93.0516 234.551 93.1494 234.687 93.2024C234.826 93.2521 234.977 93.277 235.139 93.277C235.259 93.277 235.363 93.2687 235.452 93.2521C235.542 93.2356 235.612 93.2223 235.661 93.2124L235.93 94.4403C235.844 94.4735 235.721 94.5066 235.562 94.5398C235.403 94.5762 235.204 94.5961 234.965 94.5994C234.574 94.6061 234.21 94.5365 233.871 94.3906C233.533 94.2448 233.26 94.0194 233.051 93.7145C232.842 93.4096 232.738 93.0268 232.738 92.5661V85.0341ZM237.435 94.5V86.8636H238.921V94.5H237.435ZM238.186 85.6854C237.927 85.6854 237.705 85.5992 237.519 85.4268C237.337 85.2512 237.246 85.0424 237.246 84.8004C237.246 84.5552 237.337 84.3464 237.519 84.174C237.705 83.9983 237.927 83.9105 238.186 83.9105C238.444 83.9105 238.664 83.9983 238.847 84.174C239.032 84.3464 239.125 84.5552 239.125 84.8004C239.125 85.0424 239.032 85.2512 238.847 85.4268C238.664 85.5992 238.444 85.6854 238.186 85.6854ZM244.138 94.6541C243.399 94.6541 242.762 94.4867 242.229 94.152C241.698 93.8139 241.291 93.3482 241.006 92.755C240.721 92.1617 240.578 91.4822 240.578 90.7166C240.578 89.9411 240.724 89.2566 241.016 88.6634C241.307 88.0668 241.718 87.6011 242.249 87.2663C242.779 86.9316 243.404 86.7642 244.123 86.7642C244.703 86.7642 245.22 86.8719 245.674 87.0874C246.128 87.2995 246.494 87.5978 246.773 87.9822C247.054 88.3667 247.222 88.8158 247.275 89.3295H245.828C245.749 88.9716 245.566 88.6634 245.281 88.4048C245 88.1463 244.622 88.017 244.148 88.017C243.733 88.017 243.371 88.1264 243.059 88.3452C242.751 88.5606 242.51 88.8688 242.338 89.2699C242.166 89.6676 242.08 90.1383 242.08 90.6818C242.08 91.2386 242.164 91.7192 242.333 92.1236C242.502 92.5279 242.741 92.8411 243.049 93.0632C243.361 93.2853 243.727 93.3963 244.148 93.3963C244.429 93.3963 244.685 93.3449 244.913 93.2422C245.145 93.1361 245.339 92.9853 245.495 92.7898C245.654 92.5942 245.765 92.3589 245.828 92.0838H247.275C247.222 92.5777 247.061 93.0185 246.793 93.4062C246.524 93.794 246.165 94.099 245.714 94.321C245.266 94.5431 244.741 94.6541 244.138 94.6541ZM253.702 91.3331V86.8636H255.193V94.5H253.732V93.1776H253.652C253.477 93.5852 253.195 93.925 252.807 94.1967C252.423 94.4652 251.944 94.5994 251.37 94.5994C250.88 94.5994 250.445 94.4917 250.068 94.2763C249.693 94.0575 249.398 93.7344 249.183 93.3068C248.971 92.8793 248.865 92.3506 248.865 91.7209V86.8636H250.351V91.5419C250.351 92.0623 250.495 92.4766 250.784 92.7848C251.072 93.093 251.446 93.2472 251.907 93.2472C252.186 93.2472 252.462 93.1776 252.737 93.0384C253.016 92.8991 253.246 92.6887 253.428 92.407C253.614 92.1252 253.705 91.7673 253.702 91.3331ZM258.677 84.3182V94.5H257.191V84.3182H258.677ZM260.677 94.5V86.8636H262.164V94.5H260.677ZM261.428 85.6854C261.169 85.6854 260.947 85.5992 260.762 85.4268C260.579 85.2512 260.488 85.0424 260.488 84.8004C260.488 84.5552 260.579 84.3464 260.762 84.174C260.947 83.9983 261.169 83.9105 261.428 83.9105C261.686 83.9105 261.907 83.9983 262.089 84.174C262.275 84.3464 262.367 84.5552 262.367 84.8004C262.367 85.0424 262.275 85.2512 262.089 85.4268C261.907 85.5992 261.686 85.6854 261.428 85.6854ZM267.455 94.6541C266.702 94.6541 266.054 94.4934 265.511 94.1719C264.97 93.8471 264.553 93.3913 264.258 92.8047C263.966 92.2147 263.82 91.5237 263.82 90.7315C263.82 89.9493 263.966 89.2599 264.258 88.6634C264.553 88.0668 264.964 87.6011 265.491 87.2663C266.021 86.9316 266.641 86.7642 267.35 86.7642C267.781 86.7642 268.199 86.8355 268.603 86.978C269.007 87.1205 269.37 87.3442 269.692 87.6491C270.013 87.9541 270.267 88.3501 270.452 88.8374C270.638 89.3213 270.731 89.9096 270.731 90.6023V91.1293H264.661V90.0156H269.274C269.274 89.6245 269.195 89.2782 269.036 88.9766C268.876 88.6716 268.653 88.4313 268.364 88.2557C268.079 88.08 267.745 87.9922 267.36 87.9922C266.942 87.9922 266.578 88.0949 266.266 88.3004C265.958 88.5026 265.719 88.7678 265.55 89.0959C265.385 89.4207 265.302 89.7737 265.302 90.1548V91.0249C265.302 91.5353 265.391 91.9695 265.57 92.3274C265.753 92.6854 266.006 92.9588 266.331 93.1477C266.656 93.3333 267.035 93.4261 267.469 93.4261C267.751 93.4261 268.008 93.3864 268.24 93.3068C268.472 93.224 268.673 93.1013 268.842 92.9389C269.011 92.7765 269.14 92.576 269.229 92.3374L270.636 92.5909C270.524 93.0052 270.321 93.3681 270.03 93.6797C269.741 93.9879 269.379 94.2282 268.941 94.4006C268.507 94.5696 268.011 94.6541 267.455 94.6541ZM266.714 85.8445L265.178 83.5526H266.744L267.902 85.8445H266.714ZM272.38 94.5V86.8636H273.817V88.0767H273.896C274.036 87.6657 274.281 87.3426 274.632 87.1072C274.987 86.8686 275.388 86.7493 275.835 86.7493C275.928 86.7493 276.038 86.7526 276.164 86.7592C276.293 86.7659 276.394 86.7741 276.467 86.7841V88.206C276.407 88.1894 276.301 88.1712 276.149 88.1513C275.996 88.1281 275.844 88.1165 275.691 88.1165C275.34 88.1165 275.027 88.1911 274.752 88.3402C274.48 88.486 274.264 88.6899 274.105 88.9517C273.946 89.2102 273.867 89.5052 273.867 89.8366V94.5H272.38ZM280.771 94.6541C280.019 94.6541 279.371 94.4934 278.827 94.1719C278.287 93.8471 277.869 93.3913 277.574 92.8047C277.283 92.2147 277.137 91.5237 277.137 90.7315C277.137 89.9493 277.283 89.2599 277.574 88.6634C277.869 88.0668 278.28 87.6011 278.807 87.2663C279.337 86.9316 279.957 86.7642 280.667 86.7642C281.097 86.7642 281.515 86.8355 281.919 86.978C282.324 87.1205 282.687 87.3442 283.008 87.6491C283.33 87.9541 283.583 88.3501 283.769 88.8374C283.954 89.3213 284.047 89.9096 284.047 90.6023V91.1293H277.977V90.0156H282.591C282.591 89.6245 282.511 89.2782 282.352 88.9766C282.193 88.6716 281.969 88.4313 281.681 88.2557C281.396 88.08 281.061 87.9922 280.676 87.9922C280.259 87.9922 279.894 88.0949 279.583 88.3004C279.275 88.5026 279.036 88.7678 278.867 89.0959C278.701 89.4207 278.618 89.7737 278.618 90.1548V91.0249C278.618 91.5353 278.708 91.9695 278.887 92.3274C279.069 92.6854 279.323 92.9588 279.647 93.1477C279.972 93.3333 280.352 93.4261 280.786 93.4261C281.068 93.4261 281.324 93.3864 281.556 93.3068C281.788 93.224 281.989 93.1013 282.158 92.9389C282.327 92.7765 282.456 92.576 282.546 92.3374L283.953 92.5909C283.84 93.0052 283.638 93.3681 283.346 93.6797C283.058 93.9879 282.695 94.2282 282.257 94.4006C281.823 94.5696 281.328 94.6541 280.771 94.6541ZM285.697 94.5V86.8636H287.123V88.1065H287.218C287.377 87.6856 287.637 87.3575 287.998 87.1222C288.36 86.8835 288.792 86.7642 289.296 86.7642C289.806 86.7642 290.234 86.8835 290.579 87.1222C290.927 87.3608 291.184 87.6889 291.349 88.1065H291.429C291.611 87.6989 291.901 87.3741 292.299 87.1321C292.697 86.8868 293.171 86.7642 293.721 86.7642C294.413 86.7642 294.979 86.9813 295.416 87.4155C295.857 87.8497 296.077 88.5043 296.077 89.3793V94.5H294.591V89.5185C294.591 89.0014 294.45 88.6269 294.168 88.3949C293.886 88.1629 293.55 88.0469 293.159 88.0469C292.675 88.0469 292.299 88.196 292.03 88.4943C291.762 88.7893 291.628 89.1688 291.628 89.6328V94.5H290.146V89.424C290.146 89.0097 290.017 88.6766 289.758 88.4247C289.5 88.1728 289.163 88.0469 288.749 88.0469C288.467 88.0469 288.207 88.1214 287.969 88.2706C287.733 88.4164 287.543 88.6203 287.397 88.8821C287.254 89.1439 287.183 89.4472 287.183 89.7919V94.5H285.697ZM301.361 94.6541C300.608 94.6541 299.96 94.4934 299.417 94.1719C298.877 93.8471 298.459 93.3913 298.164 92.8047C297.872 92.2147 297.727 91.5237 297.727 90.7315C297.727 89.9493 297.872 89.2599 298.164 88.6634C298.459 88.0668 298.87 87.6011 299.397 87.2663C299.927 86.9316 300.547 86.7642 301.256 86.7642C301.687 86.7642 302.105 86.8355 302.509 86.978C302.914 87.1205 303.277 87.3442 303.598 87.6491C303.92 87.9541 304.173 88.3501 304.359 88.8374C304.544 89.3213 304.637 89.9096 304.637 90.6023V91.1293H298.567V90.0156H303.18C303.18 89.6245 303.101 89.2782 302.942 88.9766C302.783 88.6716 302.559 88.4313 302.271 88.2557C301.986 88.08 301.651 87.9922 301.266 87.9922C300.849 87.9922 300.484 88.0949 300.173 88.3004C299.864 88.5026 299.626 88.7678 299.457 89.0959C299.291 89.4207 299.208 89.7737 299.208 90.1548V91.0249C299.208 91.5353 299.298 91.9695 299.477 92.3274C299.659 92.6854 299.912 92.9588 300.237 93.1477C300.562 93.3333 300.942 93.4261 301.376 93.4261C301.657 93.4261 301.914 93.3864 302.146 93.3068C302.378 93.224 302.579 93.1013 302.748 92.9389C302.917 92.7765 303.046 92.576 303.136 92.3374L304.543 92.5909C304.43 93.0052 304.228 93.3681 303.936 93.6797C303.648 93.9879 303.285 94.2282 302.847 94.4006C302.413 94.5696 301.918 94.6541 301.361 94.6541ZM307.773 89.9659V94.5H306.286V86.8636H307.713V88.1065H307.808C307.983 87.7022 308.258 87.3774 308.633 87.1321C309.011 86.8868 309.486 86.7642 310.06 86.7642C310.58 86.7642 311.036 86.8736 311.427 87.0923C311.818 87.3078 312.121 87.6293 312.337 88.0568C312.552 88.4844 312.66 89.013 312.66 89.6428V94.5H311.173V89.8217C311.173 89.2682 311.029 88.8357 310.741 88.5241C310.453 88.2093 310.057 88.0518 309.553 88.0518C309.208 88.0518 308.901 88.1264 308.633 88.2756C308.368 88.4247 308.157 88.6435 308.002 88.9318C307.849 89.2169 307.773 89.5616 307.773 89.9659ZM318.218 86.8636V88.0568H314.047V86.8636H318.218ZM315.166 85.0341H316.652V92.2578C316.652 92.5462 316.695 92.7633 316.781 92.9091C316.868 93.0516 316.979 93.1494 317.115 93.2024C317.254 93.2521 317.405 93.277 317.567 93.277C317.686 93.277 317.791 93.2687 317.88 93.2521C317.97 93.2356 318.039 93.2223 318.089 93.2124L318.357 94.4403C318.271 94.4735 318.149 94.5066 317.99 94.5398C317.83 94.5762 317.632 94.5961 317.393 94.5994C317.002 94.6061 316.637 94.5365 316.299 94.3906C315.961 94.2448 315.688 94.0194 315.479 93.7145C315.27 93.4096 315.166 93.0268 315.166 92.5661V85.0341ZM325.054 84.3182V94.5H323.568V84.3182H325.054ZM330.345 94.6541C329.593 94.6541 328.945 94.4934 328.401 94.1719C327.861 93.8471 327.443 93.3913 327.148 92.8047C326.857 92.2147 326.711 91.5237 326.711 90.7315C326.711 89.9493 326.857 89.2599 327.148 88.6634C327.443 88.0668 327.854 87.6011 328.381 87.2663C328.912 86.9316 329.531 86.7642 330.241 86.7642C330.672 86.7642 331.089 86.8355 331.494 86.978C331.898 87.1205 332.261 87.3442 332.582 87.6491C332.904 87.9541 333.157 88.3501 333.343 88.8374C333.529 89.3213 333.621 89.9096 333.621 90.6023V91.1293H327.551V90.0156H332.165C332.165 89.6245 332.085 89.2782 331.926 88.9766C331.767 88.6716 331.543 88.4313 331.255 88.2557C330.97 88.08 330.635 87.9922 330.251 87.9922C329.833 87.9922 329.469 88.0949 329.157 88.3004C328.849 88.5026 328.61 88.7678 328.441 89.0959C328.275 89.4207 328.192 89.7737 328.192 90.1548V91.0249C328.192 91.5353 328.282 91.9695 328.461 92.3274C328.643 92.6854 328.897 92.9588 329.222 93.1477C329.546 93.3333 329.926 93.4261 330.36 93.4261C330.642 93.4261 330.899 93.3864 331.131 93.3068C331.363 93.224 331.563 93.1013 331.732 92.9389C331.901 92.7765 332.031 92.576 332.12 92.3374L333.527 92.5909C333.414 93.0052 333.212 93.3681 332.92 93.6797C332.632 93.9879 332.269 94.2282 331.832 94.4006C331.397 94.5696 330.902 94.6541 330.345 94.6541ZM43.4993 118.364V107.864H44.951V109.102H45.0753C45.1615 108.942 45.2857 108.759 45.4482 108.55C45.6106 108.341 45.8359 108.159 46.1243 108.003C46.4126 107.844 46.7938 107.764 47.2678 107.764C47.8842 107.764 48.4344 107.92 48.9183 108.232C49.4022 108.543 49.7817 108.992 50.0568 109.579C50.3352 110.165 50.4744 110.871 50.4744 111.697C50.4744 112.522 50.3369 113.23 50.0618 113.82C49.7867 114.406 49.4089 114.859 48.9283 115.177C48.4477 115.492 47.8991 115.649 47.2827 115.649C46.8187 115.649 46.4392 115.571 46.1442 115.415C45.8525 115.26 45.6238 115.077 45.4581 114.869C45.2924 114.66 45.1648 114.474 45.0753 114.312H44.9858V118.364H43.4993ZM44.956 111.682C44.956 112.219 45.0339 112.689 45.1896 113.094C45.3454 113.498 45.5708 113.815 45.8658 114.043C46.1607 114.269 46.522 114.381 46.9496 114.381C47.3937 114.381 47.7649 114.264 48.0632 114.028C48.3615 113.79 48.5869 113.467 48.7393 113.059C48.8951 112.651 48.973 112.192 48.973 111.682C48.973 111.178 48.8968 110.726 48.7443 110.325C48.5952 109.924 48.3698 109.607 48.0682 109.375C47.7699 109.143 47.397 109.027 46.9496 109.027C46.5187 109.027 46.1541 109.138 45.8558 109.36C45.5608 109.582 45.3371 109.892 45.1847 110.29C45.0322 110.687 44.956 111.152 44.956 111.682ZM55.4311 115.654C54.6787 115.654 54.0308 115.493 53.4872 115.172C52.947 114.847 52.5294 114.391 52.2344 113.805C51.9427 113.215 51.7969 112.524 51.7969 111.732C51.7969 110.949 51.9427 110.26 52.2344 109.663C52.5294 109.067 52.9403 108.601 53.4673 108.266C53.9976 107.932 54.6174 107.764 55.3267 107.764C55.7576 107.764 56.1752 107.835 56.5795 107.978C56.9839 108.121 57.3468 108.344 57.6683 108.649C57.9898 108.954 58.2434 109.35 58.429 109.837C58.6146 110.321 58.7074 110.91 58.7074 111.602V112.129H52.6371V111.016H57.2507C57.2507 110.625 57.1712 110.278 57.0121 109.977C56.853 109.672 56.6293 109.431 56.3409 109.256C56.0559 109.08 55.7211 108.992 55.3366 108.992C54.919 108.992 54.5545 109.095 54.2429 109.3C53.9347 109.503 53.696 109.768 53.527 110.096C53.3613 110.421 53.2784 110.774 53.2784 111.155V112.025C53.2784 112.535 53.3679 112.969 53.5469 113.327C53.7292 113.685 53.9827 113.959 54.3075 114.148C54.6323 114.333 55.0118 114.426 55.446 114.426C55.7277 114.426 55.9846 114.386 56.2166 114.307C56.4486 114.224 56.6491 114.101 56.8182 113.939C56.9872 113.777 57.1165 113.576 57.206 113.337L58.6129 113.591C58.5002 114.005 58.2981 114.368 58.0064 114.68C57.718 114.988 57.3551 115.228 56.9176 115.401C56.4834 115.57 55.9879 115.654 55.4311 115.654ZM63.9213 107.864V109.057H59.7502V107.864H63.9213ZM60.8688 106.034H62.3553V113.258C62.3553 113.546 62.3984 113.763 62.4846 113.909C62.5707 114.052 62.6818 114.149 62.8176 114.202C62.9569 114.252 63.1077 114.277 63.2701 114.277C63.3894 114.277 63.4938 114.269 63.5833 114.252C63.6728 114.236 63.7424 114.222 63.7921 114.212L64.0605 115.44C63.9744 115.473 63.8517 115.507 63.6926 115.54C63.5336 115.576 63.3347 115.596 63.0961 115.599C62.705 115.606 62.3404 115.536 62.0023 115.391C61.6642 115.245 61.3908 115.019 61.182 114.714C60.9732 114.41 60.8688 114.027 60.8688 113.566V106.034ZM65.5657 115.5V107.864H67.0522V115.5H65.5657ZM66.3164 106.685C66.0579 106.685 65.8358 106.599 65.6502 106.427C65.4679 106.251 65.3768 106.042 65.3768 105.8C65.3768 105.555 65.4679 105.346 65.6502 105.174C65.8358 104.998 66.0579 104.911 66.3164 104.911C66.5749 104.911 66.7953 104.998 66.9776 105.174C67.1632 105.346 67.256 105.555 67.256 105.8C67.256 106.042 67.1632 106.251 66.9776 106.427C66.7953 106.599 66.5749 106.685 66.3164 106.685ZM72.6167 107.864V109.057H68.4455V107.864H72.6167ZM69.5641 106.034H71.0506V113.258C71.0506 113.546 71.0937 113.763 71.1799 113.909C71.266 114.052 71.3771 114.149 71.513 114.202C71.6522 114.252 71.803 114.277 71.9654 114.277C72.0847 114.277 72.1891 114.269 72.2786 114.252C72.3681 114.236 72.4377 114.222 72.4874 114.212L72.7559 115.44C72.6697 115.473 72.5471 115.507 72.388 115.54C72.2289 115.576 72.03 115.596 71.7914 115.599C71.4003 115.606 71.0357 115.536 70.6976 115.391C70.3596 115.245 70.0861 115.019 69.8773 114.714C69.6685 114.41 69.5641 114.027 69.5641 113.566V106.034ZM81.5307 107.864V109.057H77.3596V107.864H81.5307ZM78.4782 106.034H79.9647V113.258C79.9647 113.546 80.0078 113.763 80.0939 113.909C80.1801 114.052 80.2911 114.149 80.427 114.202C80.5662 114.252 80.717 114.277 80.8794 114.277C80.9988 114.277 81.1032 114.269 81.1926 114.252C81.2821 114.236 81.3517 114.222 81.4015 114.212L81.6699 115.44C81.5837 115.473 81.4611 115.507 81.302 115.54C81.1429 115.576 80.9441 115.596 80.7054 115.599C80.3143 115.606 79.9498 115.536 79.6117 115.391C79.2736 115.245 79.0002 115.019 78.7914 114.714C78.5826 114.41 78.4782 114.027 78.4782 113.566V106.034ZM83.1751 115.5V107.864H84.6119V109.077H84.6914C84.8306 108.666 85.0759 108.343 85.4272 108.107C85.7818 107.869 86.1829 107.749 86.6303 107.749C86.7231 107.749 86.8325 107.753 86.9585 107.759C87.0877 107.766 87.1888 107.774 87.2617 107.784V109.206C87.2021 109.189 87.096 109.171 86.9435 109.151C86.7911 109.128 86.6386 109.116 86.4862 109.116C86.1348 109.116 85.8216 109.191 85.5465 109.34C85.2747 109.486 85.0593 109.69 84.9002 109.952C84.7411 110.21 84.6616 110.505 84.6616 110.837V115.5H83.1751ZM90.7021 115.669C90.2182 115.669 89.7807 115.58 89.3896 115.401C88.9985 115.218 88.6886 114.955 88.4599 114.61C88.2345 114.265 88.1218 113.843 88.1218 113.342C88.1218 112.911 88.2047 112.557 88.3704 112.278C88.5361 112 88.7598 111.78 89.0415 111.617C89.3233 111.455 89.6381 111.332 89.9862 111.249C90.3342 111.166 90.6888 111.103 91.0501 111.06C91.5075 111.007 91.8787 110.964 92.1637 110.931C92.4487 110.895 92.6559 110.837 92.7852 110.757C92.9144 110.678 92.979 110.548 92.979 110.369V110.335C92.979 109.9 92.8564 109.564 92.6112 109.325C92.3692 109.087 92.0079 108.967 91.5273 108.967C91.0269 108.967 90.6325 109.078 90.3441 109.3C90.0591 109.519 89.8619 109.763 89.7525 110.031L88.3555 109.713C88.5212 109.249 88.7631 108.875 89.0813 108.589C89.4028 108.301 89.7724 108.092 90.19 107.963C90.6076 107.83 91.0468 107.764 91.5075 107.764C91.8124 107.764 92.1355 107.801 92.4769 107.874C92.8216 107.943 93.1431 108.072 93.4414 108.261C93.743 108.45 93.9899 108.72 94.1822 109.072C94.3744 109.42 94.4705 109.872 94.4705 110.429V115.5H93.0188V114.456H92.9592C92.863 114.648 92.7189 114.837 92.5266 115.023C92.3344 115.208 92.0875 115.362 91.7859 115.485C91.4843 115.608 91.123 115.669 90.7021 115.669ZM91.0252 114.476C91.4362 114.476 91.7875 114.395 92.0792 114.232C92.3742 114.07 92.5979 113.858 92.7504 113.596C92.9061 113.331 92.984 113.047 92.984 112.746V111.761C92.931 111.814 92.8282 111.864 92.6758 111.911C92.5266 111.954 92.3559 111.992 92.1637 112.025C91.9715 112.055 91.7842 112.083 91.6019 112.109C91.4196 112.133 91.2672 112.152 91.1445 112.169C90.8562 112.205 90.5927 112.267 90.354 112.353C90.1187 112.439 89.9298 112.563 89.7873 112.726C89.6481 112.885 89.5785 113.097 89.5785 113.362C89.5785 113.73 89.7144 114.009 89.9862 114.197C90.2579 114.383 90.6043 114.476 91.0252 114.476ZM96.4505 115.5V107.864H97.937V115.5H96.4505ZM97.2012 106.685C96.9426 106.685 96.7206 106.599 96.535 106.427C96.3527 106.251 96.2615 106.042 96.2615 105.8C96.2615 105.555 96.3527 105.346 96.535 105.174C96.7206 104.998 96.9426 104.911 97.2012 104.911C97.4597 104.911 97.6801 104.998 97.8624 105.174C98.048 105.346 98.1408 105.555 98.1408 105.8C98.1408 106.042 98.048 106.251 97.8624 106.427C97.6801 106.599 97.4597 106.685 97.2012 106.685ZM101.423 110.966V115.5H99.9368V107.864H101.364V109.107H101.458C101.634 108.702 101.909 108.377 102.283 108.132C102.661 107.887 103.137 107.764 103.71 107.764C104.231 107.764 104.686 107.874 105.077 108.092C105.469 108.308 105.772 108.629 105.987 109.057C106.203 109.484 106.31 110.013 106.31 110.643V115.5H104.824V110.822C104.824 110.268 104.68 109.836 104.391 109.524C104.103 109.209 103.707 109.052 103.203 109.052C102.858 109.052 102.552 109.126 102.283 109.276C102.018 109.425 101.808 109.643 101.652 109.932C101.5 110.217 101.423 110.562 101.423 110.966ZM109.582 105.318V106.273C109.582 106.554 109.529 106.851 109.423 107.163C109.32 107.471 109.174 107.768 108.985 108.053C108.796 108.338 108.574 108.583 108.319 108.788L107.583 108.261C107.779 107.976 107.948 107.673 108.09 107.352C108.236 107.03 108.309 106.675 108.309 106.288V105.318H109.582ZM112.112 105.318V106.273C112.112 106.554 112.059 106.851 111.953 107.163C111.85 107.471 111.705 107.768 111.516 108.053C111.327 108.338 111.105 108.583 110.849 108.788L110.114 108.261C110.309 107.976 110.478 107.673 110.621 107.352C110.767 107.03 110.839 106.675 110.839 106.288V105.318H112.112Z" fill="white"/>
</g>
<defs>
<filter id="filter0_d_400_941" x="0.5" y="0.5" width="396" height="202" filterUnits="userSpaceOnUse" color-interpolation-filters="sRGB">
<feFlood flood-opacity="0" result="BackgroundImageFix"/>
<feColorMatrix in="SourceAlpha" type="matrix" values="0 0 0 0 0 0 0 0 0 0 0 0 0 0 0 0 0 0 127 0" result="hardAlpha"/>
<feOffset dx="-4" dy="8"/>
<feGaussianBlur stdDeviation="10"/>
<feComposite in2="hardAlpha" operator="out"/>
<feColorMatrix type="matrix" values="0 0 0 0 0 0 0 0 0 0 0 0 0 0 0 0 0 0 0.1 0"/>
<feBlend mode="normal" in2="BackgroundImageFix" result="effect1_dropShadow_400_941"/>
<feBlend mode="normal" in="SourceGraphic" in2="effect1_dropShadow_400_941" result="shape"/>
</filter>
<clipPath id="clip0_400_941">
<rect width="240" height="48" fill="white" transform="translate(82.5 121.5)"/>
</clipPath>
</defs>
</svg>
