<svg width="397" height="203" viewBox="0 0 397 203" fill="none" xmlns="http://www.w3.org/2000/svg">
<g filter="url(#filter0_d_400_987)">
<rect x="24.5" y="12.5" width="356" height="162" rx="12" fill="#0E5835" shape-rendering="crispEdges"/>
<rect x="25" y="13" width="355" height="161" rx="11.5" stroke="white" shape-rendering="crispEdges"/>
<path d="M48.7614 43.5H46.8977L51.0852 31.8636H53.1136L57.3011 43.5H55.4375L52.1477 33.9773H52.0568L48.7614 43.5ZM49.0739 38.9432H55.1193V40.4205H49.0739V38.9432ZM60.544 31.8636V43.5H58.8452V31.8636H60.544ZM62.8295 43.5V34.7727H64.5284V43.5H62.8295ZM63.6875 33.4261C63.392 33.4261 63.1383 33.3277 62.9261 33.1307C62.7178 32.9299 62.6136 32.6913 62.6136 32.4148C62.6136 32.1345 62.7178 31.8958 62.9261 31.6989C63.1383 31.4981 63.392 31.3977 63.6875 31.3977C63.983 31.3977 64.2348 31.4981 64.4432 31.6989C64.6553 31.8958 64.7614 32.1345 64.7614 32.4148C64.7614 32.6913 64.6553 32.9299 64.4432 33.1307C64.2348 33.3277 63.983 33.4261 63.6875 33.4261ZM70.4901 43.6761C69.6454 43.6761 68.9181 43.4848 68.3082 43.1023C67.7022 42.7159 67.2363 42.1837 66.9105 41.5057C66.5848 40.8277 66.4219 40.0511 66.4219 39.1761C66.4219 38.2898 66.5885 37.5076 66.9219 36.8295C67.2552 36.1477 67.7249 35.6155 68.331 35.233C68.937 34.8504 69.651 34.6591 70.473 34.6591C71.1359 34.6591 71.7268 34.7822 72.2457 35.0284C72.7647 35.2708 73.1832 35.6117 73.5014 36.0511C73.8234 36.4905 74.0147 37.0038 74.0753 37.5909H72.4219C72.331 37.1818 72.1226 36.8295 71.7969 36.5341C71.4749 36.2386 71.0431 36.0909 70.5014 36.0909C70.0279 36.0909 69.6132 36.2159 69.2571 36.4659C68.9048 36.7121 68.6302 37.0644 68.4332 37.5227C68.2363 37.9773 68.1378 38.5152 68.1378 39.1364C68.1378 39.7727 68.2344 40.322 68.4276 40.7841C68.6207 41.2462 68.8935 41.6042 69.2457 41.858C69.6018 42.1117 70.0204 42.2386 70.5014 42.2386C70.8234 42.2386 71.1151 42.1799 71.3764 42.0625C71.6416 41.9413 71.8632 41.7689 72.0412 41.5455C72.223 41.322 72.3499 41.053 72.4219 40.7386H74.0753C74.0147 41.303 73.831 41.8068 73.5241 42.25C73.2173 42.6932 72.8063 43.0417 72.2912 43.2955C71.7798 43.5492 71.1795 43.6761 70.4901 43.6761ZM79.6534 43.6761C78.7936 43.6761 78.053 43.4924 77.4318 43.125C76.8144 42.7538 76.3371 42.233 76 41.5625C75.6667 40.8883 75.5 40.0985 75.5 39.1932C75.5 38.2992 75.6667 37.5114 76 36.8295C76.3371 36.1477 76.8068 35.6155 77.4091 35.233C78.0152 34.8504 78.7235 34.6591 79.5341 34.6591C80.0265 34.6591 80.5038 34.7405 80.9659 34.9034C81.428 35.0663 81.8428 35.322 82.2102 35.6705C82.5777 36.0189 82.8674 36.4716 83.0795 37.0284C83.2917 37.5814 83.3977 38.2538 83.3977 39.0455V39.6477H76.4602V38.375H81.733C81.733 37.928 81.642 37.5322 81.4602 37.1875C81.2784 36.839 81.0227 36.5644 80.6932 36.3636C80.3674 36.1629 79.9848 36.0625 79.5455 36.0625C79.0682 36.0625 78.6515 36.1799 78.2955 36.4148C77.9432 36.6458 77.6705 36.9489 77.4773 37.3239C77.2879 37.6951 77.1932 38.0985 77.1932 38.5341V39.5284C77.1932 40.1117 77.2955 40.608 77.5 41.017C77.7083 41.4261 77.9981 41.7386 78.3693 41.9545C78.7405 42.1667 79.1742 42.2727 79.6705 42.2727C79.9924 42.2727 80.286 42.2273 80.5511 42.1364C80.8163 42.0417 81.0455 41.9015 81.2386 41.7159C81.4318 41.5303 81.5795 41.3011 81.6818 41.0284L83.2898 41.3182C83.161 41.7917 82.9299 42.2064 82.5966 42.5625C82.267 42.9148 81.8523 43.1894 81.3523 43.3864C80.8561 43.5795 80.2898 43.6761 79.6534 43.6761Z" fill="white"/>
<path d="M92.0341 31.8636V43.5H90.2727V33.625H90.2045L87.4205 35.4432V33.7614L90.3239 31.8636H92.0341ZM95.5739 43.5L100.653 33.4545V33.3693H94.7784V31.8636H102.472V33.4205L97.4091 43.5H95.5739ZM108.902 31.3182L105.152 45.25H103.635L107.385 31.3182H108.902ZM114.374 43.6932C113.476 43.6894 112.709 43.4527 112.072 42.983C111.436 42.5133 110.949 41.8295 110.612 40.9318C110.275 40.0341 110.107 38.9527 110.107 37.6875C110.107 36.4261 110.275 35.3485 110.612 34.4545C110.953 33.5606 111.442 32.8788 112.078 32.4091C112.718 31.9394 113.483 31.7045 114.374 31.7045C115.264 31.7045 116.027 31.9413 116.663 32.4148C117.3 32.8845 117.786 33.5663 118.124 34.4602C118.464 35.3504 118.635 36.4261 118.635 37.6875C118.635 38.9564 118.466 40.0398 118.129 40.9375C117.792 41.8314 117.305 42.5152 116.669 42.9886C116.033 43.4583 115.268 43.6932 114.374 43.6932ZM114.374 42.1761C115.161 42.1761 115.777 41.7917 116.22 41.0227C116.667 40.2538 116.891 39.142 116.891 37.6875C116.891 36.7216 116.788 35.9053 116.584 35.2386C116.383 34.5682 116.093 34.0606 115.714 33.7159C115.339 33.3674 114.893 33.1932 114.374 33.1932C113.589 33.1932 112.974 33.5795 112.527 34.3523C112.08 35.125 111.855 36.2367 111.851 37.6875C111.851 38.6572 111.951 39.4773 112.152 40.1477C112.357 40.8144 112.646 41.3201 113.021 41.6648C113.396 42.0057 113.847 42.1761 114.374 42.1761ZM124.491 43.6591C123.779 43.6591 123.139 43.5227 122.571 43.25C122.007 42.9735 121.556 42.5947 121.219 42.1136C120.882 41.6326 120.702 41.0833 120.679 40.4659H122.384C122.425 40.9659 122.647 41.3769 123.048 41.6989C123.45 42.0208 123.931 42.1818 124.491 42.1818C124.938 42.1818 125.334 42.0795 125.679 41.875C126.027 41.6667 126.3 41.3807 126.497 41.017C126.698 40.6534 126.798 40.2386 126.798 39.7727C126.798 39.2992 126.696 38.8769 126.491 38.5057C126.287 38.1345 126.005 37.8428 125.645 37.6307C125.289 37.4186 124.88 37.3106 124.418 37.3068C124.065 37.3068 123.711 37.3674 123.355 37.4886C122.999 37.6098 122.711 37.7689 122.491 37.9659L120.884 37.7273L121.537 31.8636H127.935V33.3693H122.997L122.628 36.625H122.696C122.923 36.4053 123.224 36.2216 123.599 36.0739C123.978 35.9261 124.384 35.8523 124.815 35.8523C125.524 35.8523 126.154 36.0208 126.707 36.358C127.264 36.6951 127.702 37.1553 128.02 37.7386C128.342 38.3182 128.501 38.9848 128.497 39.7386C128.501 40.4924 128.33 41.1648 127.986 41.7557C127.645 42.3466 127.171 42.8125 126.565 43.1534C125.963 43.4905 125.272 43.6591 124.491 43.6591ZM135.027 31.3182L131.277 45.25H129.76L133.51 31.3182H135.027ZM136.447 43.5V42.2273L140.385 38.1477C140.805 37.7045 141.152 37.3163 141.425 36.983C141.701 36.6458 141.908 36.3258 142.044 36.0227C142.18 35.7197 142.249 35.3977 142.249 35.0568C142.249 34.6705 142.158 34.3371 141.976 34.0568C141.794 33.7727 141.546 33.5549 141.232 33.4034C140.917 33.2481 140.563 33.1705 140.169 33.1705C139.752 33.1705 139.389 33.2557 139.078 33.4261C138.768 33.5966 138.529 33.8371 138.362 34.1477C138.196 34.4583 138.112 34.822 138.112 35.2386H136.436C136.436 34.5303 136.599 33.911 136.925 33.3807C137.25 32.8504 137.697 32.4394 138.266 32.1477C138.834 31.8523 139.48 31.7045 140.203 31.7045C140.934 31.7045 141.578 31.8504 142.135 32.142C142.696 32.4299 143.133 32.8239 143.447 33.3239C143.762 33.8201 143.919 34.3807 143.919 35.0057C143.919 35.4375 143.838 35.8598 143.675 36.2727C143.516 36.6856 143.237 37.1458 142.839 37.6534C142.442 38.1572 141.889 38.7689 141.18 39.4886L138.868 41.9091V41.9943H144.107V43.5H136.447ZM150.311 43.6932C149.413 43.6894 148.646 43.4527 148.01 42.983C147.374 42.5133 146.887 41.8295 146.55 40.9318C146.213 40.0341 146.044 38.9527 146.044 37.6875C146.044 36.4261 146.213 35.3485 146.55 34.4545C146.891 33.5606 147.379 32.8788 148.016 32.4091C148.656 31.9394 149.421 31.7045 150.311 31.7045C151.201 31.7045 151.964 31.9413 152.601 32.4148C153.237 32.8845 153.724 33.5663 154.061 34.4602C154.402 35.3504 154.572 36.4261 154.572 37.6875C154.572 38.9564 154.404 40.0398 154.067 40.9375C153.73 41.8314 153.243 42.5152 152.607 42.9886C151.97 43.4583 151.205 43.6932 150.311 43.6932ZM150.311 42.1761C151.099 42.1761 151.714 41.7917 152.158 41.0227C152.605 40.2538 152.828 39.142 152.828 37.6875C152.828 36.7216 152.726 35.9053 152.521 35.2386C152.321 34.5682 152.031 34.0606 151.652 33.7159C151.277 33.3674 150.83 33.1932 150.311 33.1932C149.527 33.1932 148.911 33.5795 148.464 34.3523C148.018 35.125 147.792 36.2367 147.788 37.6875C147.788 38.6572 147.889 39.4773 148.089 40.1477C148.294 40.8144 148.584 41.3201 148.959 41.6648C149.334 42.0057 149.785 42.1761 150.311 42.1761ZM156.588 43.5V42.2273L160.526 38.1477C160.946 37.7045 161.293 37.3163 161.565 36.983C161.842 36.6458 162.048 36.3258 162.185 36.0227C162.321 35.7197 162.389 35.3977 162.389 35.0568C162.389 34.6705 162.298 34.3371 162.116 34.0568C161.935 33.7727 161.687 33.5549 161.372 33.4034C161.058 33.2481 160.704 33.1705 160.31 33.1705C159.893 33.1705 159.529 33.2557 159.219 33.4261C158.908 33.5966 158.67 33.8371 158.503 34.1477C158.336 34.4583 158.253 34.822 158.253 35.2386H156.577C156.577 34.5303 156.74 33.911 157.065 33.3807C157.391 32.8504 157.838 32.4394 158.406 32.1477C158.974 31.8523 159.62 31.7045 160.344 31.7045C161.075 31.7045 161.719 31.8504 162.276 32.142C162.836 32.4299 163.274 32.8239 163.588 33.3239C163.902 33.8201 164.06 34.3807 164.06 35.0057C164.06 35.4375 163.978 35.8598 163.815 36.2727C163.656 36.6856 163.378 37.1458 162.98 37.6534C162.582 38.1572 162.029 38.7689 161.321 39.4886L159.009 41.9091V41.9943H164.247V43.5H156.588ZM165.906 41.2273V39.8068L170.935 31.8636H172.054V33.9545H171.344L167.747 39.6477V39.7386H174.639V41.2273H165.906ZM171.423 43.5V40.7955L171.435 40.1477V31.8636H173.099V43.5H171.423Z" fill="white"/>
<g clip-path="url(#clip0_400_987)">
<rect width="240" height="48" transform="translate(82.5 121.5)" fill="#0E5835"/>
<rect width="48" height="48" transform="translate(82.5 121.5)" fill="#0E5835"/>
<path fill-rule="evenodd" clip-rule="evenodd" d="M106.5 150.77L112.68 154.5L111.04 147.47L116.5 142.74L109.31 142.13L106.5 135.5L103.69 142.13L96.5 142.74L101.96 147.47L100.32 154.5L106.5 150.77Z" fill="#F3AF00"/>
<rect width="48" height="48" transform="translate(130.5 121.5)" fill="#0E5835"/>
<path fill-rule="evenodd" clip-rule="evenodd" d="M154.5 150.77L160.68 154.5L159.04 147.47L164.5 142.74L157.31 142.13L154.5 135.5L151.69 142.13L144.5 142.74L149.96 147.47L148.32 154.5L154.5 150.77Z" fill="#F3AF00"/>
<rect width="48" height="48" transform="translate(178.5 121.5)" fill="#0E5835"/>
<path fill-rule="evenodd" clip-rule="evenodd" d="M202.5 150.77L208.68 154.5L207.04 147.47L212.5 142.74L205.31 142.13L202.5 135.5L199.69 142.13L192.5 142.74L197.96 147.47L196.32 154.5L202.5 150.77Z" fill="#F3AF00"/>
<rect width="48" height="48" transform="translate(226.5 121.5)" fill="#0E5835"/>
<path fill-rule="evenodd" clip-rule="evenodd" d="M250.5 150.77L256.68 154.5L255.04 147.47L260.5 142.74L253.31 142.13L250.5 135.5L247.69 142.13L240.5 142.74L245.96 147.47L244.32 154.5L250.5 150.77Z" fill="#F3AF00"/>
<rect width="48" height="48" transform="translate(274.5 121.5)" fill="#0E5835"/>
<path fill-rule="evenodd" clip-rule="evenodd" d="M298.5 150.77L304.68 154.5L303.04 147.47L308.5 142.74L301.31 142.13L298.5 135.5L295.69 142.13L288.5 142.74L293.96 147.47L292.32 154.5L298.5 150.77Z" fill="#F3AF00"/>
</g>
<path d="M43.5085 96.5V95.1364C43.5085 94.7339 43.5843 94.3101 43.7358 93.8651C43.8873 93.42 44.098 92.9938 44.3679 92.5866C44.6378 92.1795 44.955 91.8314 45.3196 91.5426L46.3707 92.2955C46.0819 92.7169 45.8357 93.1572 45.6321 93.6165C45.4285 94.0758 45.3267 94.5753 45.3267 95.1151V96.5H43.5085ZM47.1307 96.5V95.1364C47.1307 94.7339 47.2064 94.3101 47.358 93.8651C47.5095 93.42 47.7202 92.9938 47.9901 92.5866C48.2599 92.1795 48.5772 91.8314 48.9418 91.5426L49.9929 92.2955C49.7041 92.7169 49.4579 93.1572 49.2543 93.6165C49.0507 94.0758 48.9489 94.5753 48.9489 95.1151V96.5H47.1307ZM51.9886 106.5V91.9545H54.1832V104.611H60.7741V106.5H51.9886ZM67.8089 106.72C66.7341 106.72 65.8085 106.491 65.032 106.031C64.2602 105.567 63.6636 104.916 63.2422 104.078C62.8255 103.235 62.6172 102.248 62.6172 101.116C62.6172 99.9991 62.8255 99.0142 63.2422 98.1619C63.6636 97.3097 64.2507 96.6444 65.0036 96.1662C65.7611 95.688 66.6465 95.4489 67.6598 95.4489C68.2753 95.4489 68.8719 95.5507 69.4496 95.7543C70.0272 95.9579 70.5457 96.2775 71.005 96.7131C71.4643 97.1487 71.8265 97.7145 72.0916 98.4105C72.3568 99.1018 72.4893 99.9422 72.4893 100.932V101.685H63.8175V100.094H70.4084C70.4084 99.535 70.2947 99.0402 70.0675 98.6094C69.8402 98.1738 69.5206 97.8305 69.1087 97.5795C68.7015 97.3286 68.2232 97.2031 67.674 97.2031C67.0774 97.2031 66.5566 97.3499 66.1115 97.6435C65.6712 97.9323 65.3303 98.3111 65.0888 98.7798C64.852 99.2438 64.7337 99.7481 64.7337 100.293V101.536C64.7337 102.265 64.8615 102.885 65.1172 103.396C65.3776 103.908 65.7398 104.298 66.2038 104.568C66.6679 104.833 67.21 104.966 67.8303 104.966C68.2327 104.966 68.5997 104.909 68.9311 104.795C69.2625 104.677 69.549 104.502 69.7905 104.27C70.032 104.038 70.2166 103.751 70.3445 103.411L72.3544 103.773C72.1934 104.365 71.9046 104.883 71.4879 105.328C71.076 105.768 70.5575 106.112 69.9325 106.358C69.3123 106.599 68.6044 106.72 67.8089 106.72ZM80.1385 110.591V95.5909H82.2124V97.3594H82.3899C82.513 97.1321 82.6906 96.8693 82.9226 96.571C83.1546 96.2727 83.4766 96.0123 83.8885 95.7898C84.3004 95.5625 84.8449 95.4489 85.522 95.4489C86.4027 95.4489 87.1887 95.6714 87.88 96.1165C88.5713 96.5616 89.1134 97.2031 89.5064 98.0412C89.9041 98.8793 90.103 99.8878 90.103 101.067C90.103 102.246 89.9065 103.257 89.5135 104.099C89.1205 104.937 88.5807 105.584 87.8942 106.038C87.2076 106.488 86.424 106.713 85.5433 106.713C84.8804 106.713 84.3383 106.602 83.9169 106.379C83.5002 106.157 83.1735 105.896 82.9368 105.598C82.7 105.3 82.5178 105.035 82.3899 104.803H82.2621V110.591H80.1385ZM82.2195 101.045C82.2195 101.812 82.3307 102.485 82.5533 103.062C82.7758 103.64 83.0978 104.092 83.5192 104.419C83.9406 104.741 84.4567 104.902 85.0675 104.902C85.7019 104.902 86.2322 104.734 86.6584 104.398C87.0845 104.057 87.4065 103.595 87.6243 103.013C87.8468 102.43 87.9581 101.775 87.9581 101.045C87.9581 100.326 87.8492 99.6795 87.6314 99.1065C87.4183 98.5336 87.0964 98.0814 86.6655 97.75C86.2393 97.4186 85.7067 97.2528 85.0675 97.2528C84.4519 97.2528 83.9311 97.4115 83.505 97.7287C83.0836 98.0459 82.764 98.4886 82.5462 99.0568C82.3284 99.625 82.2195 100.288 82.2195 101.045ZM95.657 106.741C94.9657 106.741 94.3407 106.614 93.782 106.358C93.2232 106.098 92.7805 105.721 92.4538 105.229C92.1319 104.736 91.9709 104.133 91.9709 103.418C91.9709 102.802 92.0893 102.295 92.326 101.898C92.5627 101.5 92.8823 101.185 93.2848 100.953C93.6873 100.721 94.1371 100.546 94.6342 100.428C95.1314 100.309 95.638 100.219 96.1541 100.158C96.8075 100.082 97.3378 100.02 97.745 99.973C98.1522 99.9209 98.4482 99.8381 98.6328 99.7244C98.8175 99.6108 98.9098 99.4261 98.9098 99.1705V99.1207C98.9098 98.5005 98.7346 98.0199 98.3842 97.679C98.0386 97.3381 97.5225 97.1676 96.8359 97.1676C96.121 97.1676 95.5575 97.3262 95.1456 97.6435C94.7384 97.956 94.4567 98.304 94.3004 98.6875L92.3047 98.233C92.5414 97.5701 92.8871 97.035 93.3416 96.6278C93.8009 96.2159 94.3288 95.9176 94.9254 95.733C95.522 95.5436 96.1494 95.4489 96.8075 95.4489C97.2431 95.4489 97.7048 95.5009 98.1925 95.6051C98.6849 95.7045 99.1442 95.8892 99.5703 96.1591C100.001 96.429 100.354 96.8149 100.629 97.3168C100.903 97.8139 101.04 98.4602 101.04 99.2557V106.5H98.9666V105.009H98.8814C98.7441 105.283 98.5381 105.553 98.2635 105.818C97.9889 106.083 97.6361 106.304 97.2053 106.479C96.7744 106.654 96.2583 106.741 95.657 106.741ZM96.1186 105.037C96.7057 105.037 97.2076 104.921 97.6243 104.689C98.0457 104.457 98.3653 104.154 98.5831 103.78C98.8056 103.401 98.9169 102.996 98.9169 102.565V101.159C98.8411 101.235 98.6944 101.306 98.4766 101.372C98.2635 101.434 98.0196 101.488 97.745 101.536C97.4704 101.578 97.2029 101.618 96.9425 101.656C96.6821 101.689 96.4643 101.718 96.2891 101.741C95.8771 101.794 95.5007 101.881 95.1598 102.004C94.8236 102.127 94.5537 102.305 94.3501 102.537C94.1513 102.764 94.0518 103.067 94.0518 103.446C94.0518 103.972 94.246 104.369 94.6342 104.639C95.0225 104.904 95.5173 105.037 96.1186 105.037ZM103.869 106.5V95.5909H105.922V97.3239H106.035C106.234 96.7367 106.584 96.2751 107.086 95.9389C107.593 95.598 108.166 95.4276 108.805 95.4276C108.938 95.4276 109.094 95.4323 109.274 95.4418C109.458 95.4512 109.603 95.4631 109.707 95.4773V97.5085C109.622 97.4848 109.47 97.4588 109.252 97.4304C109.035 97.3973 108.817 97.3807 108.599 97.3807C108.097 97.3807 107.65 97.4872 107.257 97.7003C106.868 97.9086 106.561 98.1998 106.333 98.5739C106.106 98.9432 105.993 99.3646 105.993 99.8381V106.5H103.869ZM115.749 106.72C114.693 106.72 113.784 106.481 113.022 106.003C112.264 105.52 111.682 104.855 111.275 104.007C110.868 103.16 110.664 102.189 110.664 101.095C110.664 99.9872 110.872 99.0095 111.289 98.1619C111.706 97.3097 112.293 96.6444 113.05 96.1662C113.808 95.688 114.701 95.4489 115.728 95.4489C116.557 95.4489 117.295 95.6027 117.944 95.9105C118.593 96.2135 119.116 96.6397 119.513 97.1889C119.916 97.7382 120.155 98.3797 120.231 99.1136H118.164C118.05 98.6023 117.79 98.1619 117.383 97.7926C116.98 97.4233 116.441 97.2386 115.763 97.2386C115.172 97.2386 114.653 97.3949 114.208 97.7074C113.768 98.0152 113.424 98.4555 113.178 99.0284C112.932 99.5966 112.809 100.269 112.809 101.045C112.809 101.841 112.93 102.527 113.171 103.105C113.413 103.683 113.754 104.13 114.194 104.447C114.639 104.765 115.162 104.923 115.763 104.923C116.166 104.923 116.531 104.85 116.857 104.703C117.189 104.552 117.466 104.336 117.688 104.057C117.915 103.777 118.074 103.441 118.164 103.048H120.231C120.155 103.754 119.925 104.384 119.542 104.938C119.158 105.491 118.645 105.927 118.001 106.244C117.362 106.562 116.611 106.72 115.749 106.72ZM132.496 106.72C131.422 106.72 130.496 106.491 129.719 106.031C128.948 105.567 128.351 104.916 127.93 104.078C127.513 103.235 127.305 102.248 127.305 101.116C127.305 99.9991 127.513 99.0142 127.93 98.1619C128.351 97.3097 128.938 96.6444 129.691 96.1662C130.449 95.688 131.334 95.4489 132.347 95.4489C132.963 95.4489 133.559 95.5507 134.137 95.7543C134.715 95.9579 135.233 96.2775 135.692 96.7131C136.152 97.1487 136.514 97.7145 136.779 98.4105C137.044 99.1018 137.177 99.9422 137.177 100.932V101.685H128.505V100.094H135.096C135.096 99.535 134.982 99.0402 134.755 98.6094C134.528 98.1738 134.208 97.8305 133.796 97.5795C133.389 97.3286 132.911 97.2031 132.362 97.2031C131.765 97.2031 131.244 97.3499 130.799 97.6435C130.359 97.9323 130.018 98.3111 129.776 98.7798C129.54 99.2438 129.421 99.7481 129.421 100.293V101.536C129.421 102.265 129.549 102.885 129.805 103.396C130.065 103.908 130.427 104.298 130.891 104.568C131.355 104.833 131.897 104.966 132.518 104.966C132.92 104.966 133.287 104.909 133.619 104.795C133.95 104.677 134.237 104.502 134.478 104.27C134.719 104.038 134.904 103.751 135.032 103.411L137.042 103.773C136.881 104.365 136.592 104.883 136.175 105.328C135.763 105.768 135.245 106.112 134.62 106.358C134 106.599 133.292 106.72 132.496 106.72ZM147.708 98.2543L145.783 98.5952C145.703 98.349 145.575 98.1146 145.4 97.892C145.229 97.6695 144.997 97.4872 144.703 97.3452C144.41 97.2031 144.043 97.1321 143.603 97.1321C143.001 97.1321 142.499 97.267 142.097 97.5369C141.694 97.8021 141.493 98.1454 141.493 98.5668C141.493 98.9313 141.628 99.2249 141.898 99.4474C142.168 99.67 142.604 99.8523 143.205 99.9943L144.938 100.392C145.942 100.624 146.69 100.982 147.182 101.464C147.675 101.947 147.921 102.575 147.921 103.347C147.921 104 147.731 104.582 147.353 105.094C146.979 105.6 146.455 105.998 145.783 106.287C145.115 106.576 144.341 106.72 143.461 106.72C142.239 106.72 141.242 106.46 140.471 105.939C139.699 105.413 139.225 104.668 139.05 103.702L141.103 103.389C141.23 103.924 141.493 104.329 141.891 104.604C142.289 104.874 142.807 105.009 143.446 105.009C144.142 105.009 144.699 104.864 145.115 104.575C145.532 104.282 145.74 103.924 145.74 103.503C145.74 103.162 145.613 102.875 145.357 102.643C145.106 102.411 144.72 102.236 144.199 102.118L142.353 101.713C141.335 101.481 140.582 101.112 140.094 100.605C139.611 100.098 139.37 99.4569 139.37 98.6804C139.37 98.0365 139.55 97.473 139.909 96.9901C140.269 96.5071 140.766 96.1307 141.401 95.8608C142.035 95.5862 142.762 95.4489 143.581 95.4489C144.76 95.4489 145.688 95.7045 146.365 96.2159C147.042 96.7225 147.49 97.402 147.708 98.2543ZM155.348 95.5909V97.2955H149.389V95.5909H155.348ZM150.987 92.9773H153.111V103.297C153.111 103.709 153.172 104.019 153.295 104.227C153.419 104.431 153.577 104.571 153.771 104.646C153.97 104.717 154.186 104.753 154.418 104.753C154.588 104.753 154.737 104.741 154.865 104.717C154.993 104.694 155.092 104.675 155.163 104.661L155.547 106.415C155.424 106.462 155.249 106.509 155.021 106.557C154.794 106.609 154.51 106.637 154.169 106.642C153.61 106.652 153.089 106.552 152.607 106.344C152.124 106.135 151.733 105.813 151.435 105.378C151.136 104.942 150.987 104.395 150.987 103.737V92.9773ZM167.564 110.818C166.697 110.818 165.952 110.705 165.327 110.477C164.706 110.25 164.2 109.949 163.807 109.575C163.414 109.201 163.12 108.792 162.926 108.347L164.751 107.594C164.879 107.802 165.05 108.022 165.263 108.254C165.481 108.491 165.774 108.692 166.143 108.858C166.518 109.024 166.998 109.107 167.585 109.107C168.39 109.107 169.055 108.91 169.581 108.517C170.107 108.129 170.369 107.509 170.369 106.656V104.511H170.234C170.107 104.743 169.922 105.001 169.68 105.286C169.444 105.57 169.117 105.816 168.7 106.024C168.284 106.232 167.741 106.337 167.074 106.337C166.212 106.337 165.436 106.135 164.744 105.733C164.058 105.326 163.513 104.727 163.111 103.936C162.713 103.141 162.514 102.163 162.514 101.003C162.514 99.8428 162.711 98.8485 163.104 98.0199C163.501 97.1913 164.046 96.5568 164.737 96.1165C165.429 95.6714 166.212 95.4489 167.088 95.4489C167.765 95.4489 168.312 95.5625 168.729 95.7898C169.145 96.0123 169.47 96.2727 169.702 96.571C169.938 96.8693 170.121 97.1321 170.249 97.3594H170.405V95.5909H172.486V106.741C172.486 107.679 172.268 108.448 171.832 109.05C171.397 109.651 170.807 110.096 170.064 110.385C169.325 110.674 168.492 110.818 167.564 110.818ZM167.543 104.575C168.153 104.575 168.67 104.433 169.091 104.149C169.517 103.86 169.839 103.448 170.057 102.913C170.279 102.374 170.391 101.727 170.391 100.974C170.391 100.241 170.282 99.5942 170.064 99.0355C169.846 98.4768 169.527 98.0412 169.105 97.7287C168.684 97.4115 168.163 97.2528 167.543 97.2528C166.903 97.2528 166.371 97.4186 165.945 97.75C165.518 98.0767 165.196 98.5218 164.979 99.0852C164.766 99.6487 164.659 100.278 164.659 100.974C164.659 101.689 164.768 102.317 164.986 102.857C165.204 103.396 165.526 103.818 165.952 104.121C166.383 104.424 166.913 104.575 167.543 104.575ZM180.036 106.72C178.961 106.72 178.035 106.491 177.259 106.031C176.487 105.567 175.89 104.916 175.469 104.078C175.052 103.235 174.844 102.248 174.844 101.116C174.844 99.9991 175.052 99.0142 175.469 98.1619C175.89 97.3097 176.477 96.6444 177.23 96.1662C177.988 95.688 178.873 95.4489 179.886 95.4489C180.502 95.4489 181.098 95.5507 181.676 95.7543C182.254 95.9579 182.772 96.2775 183.232 96.7131C183.691 97.1487 184.053 97.7145 184.318 98.4105C184.583 99.1018 184.716 99.9422 184.716 100.932V101.685H176.044V100.094H182.635C182.635 99.535 182.521 99.0402 182.294 98.6094C182.067 98.1738 181.747 97.8305 181.335 97.5795C180.928 97.3286 180.45 97.2031 179.901 97.2031C179.304 97.2031 178.783 97.3499 178.338 97.6435C177.898 97.9323 177.557 98.3111 177.315 98.7798C177.079 99.2438 176.96 99.7481 176.96 100.293V101.536C176.96 102.265 177.088 102.885 177.344 103.396C177.604 103.908 177.966 104.298 178.43 104.568C178.894 104.833 179.437 104.966 180.057 104.966C180.459 104.966 180.826 104.909 181.158 104.795C181.489 104.677 181.776 104.502 182.017 104.27C182.259 104.038 182.443 103.751 182.571 103.411L184.581 103.773C184.42 104.365 184.131 104.883 183.714 105.328C183.303 105.768 182.784 106.112 182.159 106.358C181.539 106.599 180.831 106.72 180.036 106.72ZM178.928 94.1349L180.589 90.8608H182.827L180.625 94.1349H178.928ZM189.196 100.023V106.5H187.072V95.5909H189.11V97.3665H189.245C189.496 96.7888 189.889 96.3248 190.424 95.9744C190.964 95.6241 191.644 95.4489 192.463 95.4489C193.206 95.4489 193.857 95.6051 194.416 95.9176C194.975 96.2254 195.408 96.6847 195.716 97.2955C196.023 97.9062 196.177 98.6615 196.177 99.5611V106.5H194.054V99.8168C194.054 99.026 193.848 98.4081 193.436 97.9631C193.024 97.5133 192.458 97.2884 191.738 97.2884C191.246 97.2884 190.808 97.3949 190.424 97.608C190.046 97.821 189.745 98.1335 189.522 98.5455C189.305 98.9527 189.196 99.4451 189.196 100.023ZM199.025 106.5V95.5909H201.149V106.5H199.025ZM200.098 93.9077C199.728 93.9077 199.411 93.7846 199.146 93.5384C198.886 93.2874 198.755 92.9891 198.755 92.6435C198.755 92.2931 198.886 91.9948 199.146 91.7486C199.411 91.4976 199.728 91.3722 200.098 91.3722C200.467 91.3722 200.782 91.4976 201.042 91.7486C201.307 91.9948 201.44 92.2931 201.44 92.6435C201.44 92.9891 201.307 93.2874 201.042 93.5384C200.782 93.7846 200.467 93.9077 200.098 93.9077ZM207.18 106.741C206.489 106.741 205.864 106.614 205.305 106.358C204.747 106.098 204.304 105.721 203.977 105.229C203.655 104.736 203.494 104.133 203.494 103.418C203.494 102.802 203.613 102.295 203.849 101.898C204.086 101.5 204.406 101.185 204.808 100.953C205.211 100.721 205.661 100.546 206.158 100.428C206.655 100.309 207.161 100.219 207.678 100.158C208.331 100.082 208.861 100.02 209.268 99.973C209.676 99.9209 209.972 99.8381 210.156 99.7244C210.341 99.6108 210.433 99.4261 210.433 99.1705V99.1207C210.433 98.5005 210.258 98.0199 209.908 97.679C209.562 97.3381 209.046 97.1676 208.359 97.1676C207.644 97.1676 207.081 97.3262 206.669 97.6435C206.262 97.956 205.98 98.304 205.824 98.6875L203.828 98.233C204.065 97.5701 204.411 97.035 204.865 96.6278C205.324 96.2159 205.852 95.9176 206.449 95.733C207.045 95.5436 207.673 95.4489 208.331 95.4489C208.767 95.4489 209.228 95.5009 209.716 95.6051C210.208 95.7045 210.668 95.8892 211.094 96.1591C211.525 96.429 211.877 96.8149 212.152 97.3168C212.427 97.8139 212.564 98.4602 212.564 99.2557V106.5H210.49V105.009H210.405C210.268 105.283 210.062 105.553 209.787 105.818C209.512 106.083 209.16 106.304 208.729 106.479C208.298 106.654 207.782 106.741 207.18 106.741ZM207.642 105.037C208.229 105.037 208.731 104.921 209.148 104.689C209.569 104.457 209.889 104.154 210.107 103.78C210.329 103.401 210.44 102.996 210.44 102.565V101.159C210.365 101.235 210.218 101.306 210 101.372C209.787 101.434 209.543 101.488 209.268 101.536C208.994 101.578 208.726 101.618 208.466 101.656C208.205 101.689 207.988 101.718 207.812 101.741C207.401 101.794 207.024 101.881 206.683 102.004C206.347 102.127 206.077 102.305 205.874 102.537C205.675 102.764 205.575 103.067 205.575 103.446C205.575 103.972 205.769 104.369 206.158 104.639C206.546 104.904 207.041 105.037 207.642 105.037ZM217.516 91.9545V106.5H215.392V91.9545H217.516ZM228.343 91.9545L228.159 102.317H226.191L226.007 91.9545H228.343ZM227.179 106.635C226.786 106.635 226.449 106.498 226.17 106.223C225.891 105.944 225.753 105.607 225.758 105.214C225.753 104.826 225.891 104.495 226.17 104.22C226.449 103.941 226.786 103.801 227.179 103.801C227.562 103.801 227.894 103.941 228.173 104.22C228.452 104.495 228.594 104.826 228.599 105.214C228.594 105.475 228.526 105.714 228.393 105.932C228.265 106.145 228.095 106.315 227.882 106.443C227.669 106.571 227.434 106.635 227.179 106.635ZM234.222 91.9545L234.038 102.317H232.07L231.886 91.9545H234.222ZM233.058 106.635C232.665 106.635 232.328 106.498 232.049 106.223C231.77 105.944 231.632 105.607 231.637 105.214C231.632 104.826 231.77 104.495 232.049 104.22C232.328 103.941 232.665 103.801 233.058 103.801C233.441 103.801 233.772 103.941 234.052 104.22C234.331 104.495 234.473 104.826 234.478 105.214C234.473 105.475 234.405 105.714 234.272 105.932C234.144 106.145 233.974 106.315 233.761 106.443C233.548 106.571 233.313 106.635 233.058 106.635ZM239.249 91.9545V93.3182C239.249 93.7206 239.173 94.1444 239.022 94.5895C238.875 95.0298 238.667 95.4536 238.397 95.8608C238.127 96.268 237.81 96.6184 237.445 96.9119L236.394 96.1591C236.673 95.7519 236.915 95.3187 237.118 94.8594C237.327 94.4001 237.431 93.8935 237.431 93.3395V91.9545H239.249ZM242.864 91.9545V93.3182C242.864 93.7206 242.788 94.1444 242.637 94.5895C242.49 95.0298 242.282 95.4536 242.012 95.8608C241.742 96.268 241.425 96.6184 241.06 96.9119L240.009 96.1591C240.288 95.7519 240.53 95.3187 240.733 94.8594C240.942 94.4001 241.046 93.8935 241.046 93.3395V91.9545H242.864Z" fill="white"/>
</g>
<defs>
<filter id="filter0_d_400_987" x="0.5" y="0.5" width="396" height="202" filterUnits="userSpaceOnUse" color-interpolation-filters="sRGB">
<feFlood flood-opacity="0" result="BackgroundImageFix"/>
<feColorMatrix in="SourceAlpha" type="matrix" values="0 0 0 0 0 0 0 0 0 0 0 0 0 0 0 0 0 0 127 0" result="hardAlpha"/>
<feOffset dx="-4" dy="8"/>
<feGaussianBlur stdDeviation="10"/>
<feComposite in2="hardAlpha" operator="out"/>
<feColorMatrix type="matrix" values="0 0 0 0 0 0 0 0 0 0 0 0 0 0 0 0 0 0 0.1 0"/>
<feBlend mode="normal" in2="BackgroundImageFix" result="effect1_dropShadow_400_987"/>
<feBlend mode="normal" in="SourceGraphic" in2="effect1_dropShadow_400_987" result="shape"/>
</filter>
<clipPath id="clip0_400_987">
<rect width="240" height="48" fill="white" transform="translate(82.5 121.5)"/>
</clipPath>
</defs>
</svg>
