<svg width="397" height="202" viewBox="0 0 397 202" fill="none" xmlns="http://www.w3.org/2000/svg">
<g filter="url(#filter0_d_400_964)">
<rect x="24.5" y="12" width="356" height="162" rx="12" fill="#0E5835" shape-rendering="crispEdges"/>
<rect x="25" y="12.5" width="355" height="161" rx="11.5" stroke="white" shape-rendering="crispEdges"/>
<path d="M47.7784 43V31.3636H55.0739V32.875H49.5341V36.4205H54.6932V37.9261H49.5341V41.4886H55.142V43H47.7784ZM57.2827 43V34.2727H58.9247V35.6591H59.0156C59.1747 35.1894 59.455 34.8201 59.8565 34.5511C60.2618 34.2784 60.7202 34.142 61.2315 34.142C61.3376 34.142 61.4626 34.1458 61.6065 34.1534C61.7543 34.161 61.8698 34.1705 61.9531 34.1818V35.8068C61.8849 35.7879 61.7637 35.767 61.5895 35.7443C61.4152 35.7178 61.241 35.7045 61.0668 35.7045C60.6652 35.7045 60.3073 35.7898 59.9929 35.9602C59.6823 36.1269 59.4361 36.3598 59.2543 36.6591C59.0724 36.9545 58.9815 37.2917 58.9815 37.6705V43H57.2827ZM63.4233 43V34.2727H65.1222V43H63.4233ZM64.2812 32.9261C63.9858 32.9261 63.732 32.8277 63.5199 32.6307C63.3116 32.4299 63.2074 32.1913 63.2074 31.9148C63.2074 31.6345 63.3116 31.3958 63.5199 31.1989C63.732 30.9981 63.9858 30.8977 64.2812 30.8977C64.5767 30.8977 64.8286 30.9981 65.0369 31.1989C65.2491 31.3958 65.3551 31.6345 65.3551 31.9148C65.3551 32.1913 65.2491 32.4299 65.0369 32.6307C64.8286 32.8277 64.5767 32.9261 64.2812 32.9261ZM71.0838 43.1761C70.2391 43.1761 69.5118 42.9848 68.902 42.6023C68.2959 42.2159 67.83 41.6837 67.5043 41.0057C67.1785 40.3277 67.0156 39.5511 67.0156 38.6761C67.0156 37.7898 67.1823 37.0076 67.5156 36.3295C67.849 35.6477 68.3187 35.1155 68.9247 34.733C69.5308 34.3504 70.2448 34.1591 71.0668 34.1591C71.7296 34.1591 72.3205 34.2822 72.8395 34.5284C73.3584 34.7708 73.777 35.1117 74.0952 35.5511C74.4171 35.9905 74.6084 36.5038 74.669 37.0909H73.0156C72.9247 36.6818 72.7164 36.3295 72.3906 36.0341C72.0687 35.7386 71.6368 35.5909 71.0952 35.5909C70.6217 35.5909 70.2069 35.7159 69.8509 35.9659C69.4986 36.2121 69.224 36.5644 69.027 37.0227C68.83 37.4773 68.7315 38.0152 68.7315 38.6364C68.7315 39.2727 68.8281 39.822 69.0213 40.2841C69.2145 40.7462 69.4872 41.1042 69.8395 41.358C70.1955 41.6117 70.6141 41.7386 71.0952 41.7386C71.4171 41.7386 71.7088 41.6799 71.9702 41.5625C72.2353 41.4413 72.4569 41.2689 72.6349 41.0455C72.8168 40.822 72.9437 40.553 73.0156 40.2386H74.669C74.6084 40.803 74.4247 41.3068 74.1179 41.75C73.8111 42.1932 73.4001 42.5417 72.8849 42.7955C72.3736 43.0492 71.7732 43.1761 71.0838 43.1761Z" fill="white"/>
<path d="M78.6193 43V41.7273L82.5568 37.6477C82.9773 37.2045 83.3239 36.8163 83.5966 36.483C83.8731 36.1458 84.0795 35.8258 84.2159 35.5227C84.3523 35.2197 84.4205 34.8977 84.4205 34.5568C84.4205 34.1705 84.3295 33.8371 84.1477 33.5568C83.9659 33.2727 83.7178 33.0549 83.4034 32.9034C83.089 32.7481 82.7348 32.6705 82.3409 32.6705C81.9242 32.6705 81.5606 32.7557 81.25 32.9261C80.9394 33.0966 80.7008 33.3371 80.5341 33.6477C80.3674 33.9583 80.2841 34.322 80.2841 34.7386H78.608C78.608 34.0303 78.7708 33.411 79.0966 32.8807C79.4223 32.3504 79.8693 31.9394 80.4375 31.6477C81.0057 31.3523 81.6515 31.2045 82.375 31.2045C83.1061 31.2045 83.75 31.3504 84.3068 31.642C84.8674 31.9299 85.3049 32.3239 85.6193 32.8239C85.9337 33.3201 86.0909 33.8807 86.0909 34.5057C86.0909 34.9375 86.0095 35.3598 85.8466 35.7727C85.6875 36.1856 85.4091 36.6458 85.0114 37.1534C84.6136 37.6572 84.0606 38.2689 83.3523 38.9886L81.0398 41.4091V41.4943H86.2784V43H78.6193ZM92.2727 43.1591C91.5606 43.1591 90.9205 43.0227 90.3523 42.75C89.7879 42.4735 89.3371 42.0947 89 41.6136C88.6629 41.1326 88.483 40.5833 88.4602 39.9659H90.1648C90.2064 40.4659 90.428 40.8769 90.8295 41.1989C91.2311 41.5208 91.7121 41.6818 92.2727 41.6818C92.7197 41.6818 93.1155 41.5795 93.4602 41.375C93.8087 41.1667 94.0814 40.8807 94.2784 40.517C94.4792 40.1534 94.5795 39.7386 94.5795 39.2727C94.5795 38.7992 94.4773 38.3769 94.2727 38.0057C94.0682 37.6345 93.786 37.3428 93.4261 37.1307C93.0701 36.9186 92.661 36.8106 92.1989 36.8068C91.8466 36.8068 91.4924 36.8674 91.1364 36.9886C90.7803 37.1098 90.4924 37.2689 90.2727 37.4659L88.6648 37.2273L89.3182 31.3636H95.7159V32.8693H90.7784L90.4091 36.125H90.4773C90.7045 35.9053 91.0057 35.7216 91.3807 35.5739C91.7595 35.4261 92.1648 35.3523 92.5966 35.3523C93.3049 35.3523 93.9356 35.5208 94.4886 35.858C95.0455 36.1951 95.483 36.6553 95.8011 37.2386C96.1231 37.8182 96.2822 38.4848 96.2784 39.2386C96.2822 39.9924 96.1117 40.6648 95.767 41.2557C95.4261 41.8466 94.9527 42.3125 94.3466 42.6534C93.7443 42.9905 93.053 43.1591 92.2727 43.1591ZM102.808 30.8182L99.0582 44.75H97.5412L101.291 30.8182H102.808ZM108.28 43.1932C107.382 43.1894 106.615 42.9527 105.979 42.483C105.342 42.0133 104.856 41.3295 104.518 40.4318C104.181 39.5341 104.013 38.4527 104.013 37.1875C104.013 35.9261 104.181 34.8485 104.518 33.9545C104.859 33.0606 105.348 32.3788 105.984 31.9091C106.625 31.4394 107.39 31.2045 108.28 31.2045C109.17 31.2045 109.933 31.4413 110.57 31.9148C111.206 32.3845 111.693 33.0663 112.03 33.9602C112.371 34.8504 112.541 35.9261 112.541 37.1875C112.541 38.4564 112.373 39.5398 112.036 40.4375C111.698 41.3314 111.212 42.0152 110.575 42.4886C109.939 42.9583 109.174 43.1932 108.28 43.1932ZM108.28 41.6761C109.068 41.6761 109.683 41.2917 110.126 40.5227C110.573 39.7538 110.797 38.642 110.797 37.1875C110.797 36.2216 110.695 35.4053 110.49 34.7386C110.289 34.0682 110 33.5606 109.621 33.2159C109.246 32.8674 108.799 32.6932 108.28 32.6932C107.496 32.6932 106.88 33.0795 106.433 33.8523C105.986 34.625 105.761 35.7367 105.757 37.1875C105.757 38.1572 105.857 38.9773 106.058 39.6477C106.263 40.3144 106.553 40.8201 106.928 41.1648C107.303 41.5057 107.753 41.6761 108.28 41.6761ZM118.398 43.1591C117.686 43.1591 117.045 43.0227 116.477 42.75C115.913 42.4735 115.462 42.0947 115.125 41.6136C114.788 41.1326 114.608 40.5833 114.585 39.9659H116.29C116.331 40.4659 116.553 40.8769 116.955 41.1989C117.356 41.5208 117.837 41.6818 118.398 41.6818C118.845 41.6818 119.241 41.5795 119.585 41.375C119.934 41.1667 120.206 40.8807 120.403 40.517C120.604 40.1534 120.705 39.7386 120.705 39.2727C120.705 38.7992 120.602 38.3769 120.398 38.0057C120.193 37.6345 119.911 37.3428 119.551 37.1307C119.195 36.9186 118.786 36.8106 118.324 36.8068C117.972 36.8068 117.617 36.8674 117.261 36.9886C116.905 37.1098 116.617 37.2689 116.398 37.4659L114.79 37.2273L115.443 31.3636H121.841V32.8693H116.903L116.534 36.125H116.602C116.83 35.9053 117.131 35.7216 117.506 35.5739C117.884 35.4261 118.29 35.3523 118.722 35.3523C119.43 35.3523 120.061 35.5208 120.614 35.858C121.17 36.1951 121.608 36.6553 121.926 37.2386C122.248 37.8182 122.407 38.4848 122.403 39.2386C122.407 39.9924 122.237 40.6648 121.892 41.2557C121.551 41.8466 121.078 42.3125 120.472 42.6534C119.869 42.9905 119.178 43.1591 118.398 43.1591ZM128.933 30.8182L125.183 44.75H123.666L127.416 30.8182H128.933ZM130.354 43V41.7273L134.291 37.6477C134.712 37.2045 135.058 36.8163 135.331 36.483C135.607 36.1458 135.814 35.8258 135.95 35.5227C136.087 35.2197 136.155 34.8977 136.155 34.5568C136.155 34.1705 136.064 33.8371 135.882 33.5568C135.7 33.2727 135.452 33.0549 135.138 32.9034C134.823 32.7481 134.469 32.6705 134.075 32.6705C133.659 32.6705 133.295 32.7557 132.984 32.9261C132.674 33.0966 132.435 33.3371 132.268 33.6477C132.102 33.9583 132.018 34.322 132.018 34.7386H130.342C130.342 34.0303 130.505 33.411 130.831 32.8807C131.157 32.3504 131.604 31.9394 132.172 31.6477C132.74 31.3523 133.386 31.2045 134.109 31.2045C134.84 31.2045 135.484 31.3504 136.041 31.642C136.602 31.9299 137.039 32.3239 137.354 32.8239C137.668 33.3201 137.825 33.8807 137.825 34.5057C137.825 34.9375 137.744 35.3598 137.581 35.7727C137.422 36.1856 137.143 36.6458 136.746 37.1534C136.348 37.6572 135.795 38.2689 135.087 38.9886L132.774 41.4091V41.4943H138.013V43H130.354ZM144.217 43.1932C143.32 43.1894 142.553 42.9527 141.916 42.483C141.28 42.0133 140.793 41.3295 140.456 40.4318C140.119 39.5341 139.95 38.4527 139.95 37.1875C139.95 35.9261 140.119 34.8485 140.456 33.9545C140.797 33.0606 141.286 32.3788 141.922 31.9091C142.562 31.4394 143.327 31.2045 144.217 31.2045C145.107 31.2045 145.871 31.4413 146.507 31.9148C147.143 32.3845 147.63 33.0663 147.967 33.9602C148.308 34.8504 148.479 35.9261 148.479 37.1875C148.479 38.4564 148.31 39.5398 147.973 40.4375C147.636 41.3314 147.149 42.0152 146.513 42.4886C145.876 42.9583 145.111 43.1932 144.217 43.1932ZM144.217 41.6761C145.005 41.6761 145.621 41.2917 146.064 40.5227C146.511 39.7538 146.734 38.642 146.734 37.1875C146.734 36.2216 146.632 35.4053 146.428 34.7386C146.227 34.0682 145.937 33.5606 145.558 33.2159C145.183 32.8674 144.736 32.6932 144.217 32.6932C143.433 32.6932 142.818 33.0795 142.371 33.8523C141.924 34.625 141.698 35.7367 141.695 37.1875C141.695 38.1572 141.795 38.9773 141.996 39.6477C142.2 40.3144 142.49 40.8201 142.865 41.1648C143.24 41.5057 143.691 41.6761 144.217 41.6761ZM150.494 43V41.7273L154.432 37.6477C154.852 37.2045 155.199 36.8163 155.472 36.483C155.748 36.1458 155.955 35.8258 156.091 35.5227C156.227 35.2197 156.295 34.8977 156.295 34.5568C156.295 34.1705 156.205 33.8371 156.023 33.5568C155.841 33.2727 155.593 33.0549 155.278 32.9034C154.964 32.7481 154.61 32.6705 154.216 32.6705C153.799 32.6705 153.436 32.7557 153.125 32.9261C152.814 33.0966 152.576 33.3371 152.409 33.6477C152.242 33.9583 152.159 34.322 152.159 34.7386H150.483C150.483 34.0303 150.646 33.411 150.972 32.8807C151.297 32.3504 151.744 31.9394 152.312 31.6477C152.881 31.3523 153.527 31.2045 154.25 31.2045C154.981 31.2045 155.625 31.3504 156.182 31.642C156.742 31.9299 157.18 32.3239 157.494 32.8239C157.809 33.3201 157.966 33.8807 157.966 34.5057C157.966 34.9375 157.884 35.3598 157.722 35.7727C157.563 36.1856 157.284 36.6458 156.886 37.1534C156.489 37.6572 155.936 38.2689 155.227 38.9886L152.915 41.4091V41.4943H158.153V43H150.494ZM159.812 40.7273V39.3068L164.841 31.3636H165.96V33.4545H165.25L161.653 39.1477V39.2386H168.545V40.7273H159.812ZM165.33 43V40.2955L165.341 39.6477V31.3636H167.006V43H165.33Z" fill="white"/>
<g clip-path="url(#clip0_400_964)">
<rect width="240" height="48" transform="translate(82.5 121)" fill="#0E5835"/>
<rect width="48" height="48" transform="translate(82.5 121)" fill="#0E5835"/>
<path fill-rule="evenodd" clip-rule="evenodd" d="M106.5 150.27L112.68 154L111.04 146.97L116.5 142.24L109.31 141.63L106.5 135L103.69 141.63L96.5 142.24L101.96 146.97L100.32 154L106.5 150.27Z" fill="#F3AF00"/>
<rect width="48" height="48" transform="translate(130.5 121)" fill="#0E5835"/>
<path fill-rule="evenodd" clip-rule="evenodd" d="M154.5 150.27L160.68 154L159.04 146.97L164.5 142.24L157.31 141.63L154.5 135L151.69 141.63L144.5 142.24L149.96 146.97L148.32 154L154.5 150.27Z" fill="#F3AF00"/>
<rect width="48" height="48" transform="translate(178.5 121)" fill="#0E5835"/>
<path fill-rule="evenodd" clip-rule="evenodd" d="M202.5 150.27L208.68 154L207.04 146.97L212.5 142.24L205.31 141.63L202.5 135L199.69 141.63L192.5 142.24L197.96 146.97L196.32 154L202.5 150.27Z" fill="#F3AF00"/>
<rect width="48" height="48" transform="translate(226.5 121)" fill="#0E5835"/>
<path fill-rule="evenodd" clip-rule="evenodd" d="M250.5 150.27L256.68 154L255.04 146.97L260.5 142.24L253.31 141.63L250.5 135L247.69 141.63L240.5 142.24L245.96 146.97L244.32 154L250.5 150.27Z" fill="#F3AF00"/>
<rect width="48" height="48" transform="translate(274.5 121)" fill="#0E5835"/>
<path fill-rule="evenodd" clip-rule="evenodd" d="M298.5 150.27L304.68 154L303.04 146.97L308.5 142.24L301.31 141.63L298.5 135L295.69 141.63L288.5 142.24L293.96 146.97L292.32 154L298.5 150.27Z" fill="#F3AF00"/>
</g>
<path d="M43.206 87V86.0455C43.206 85.7637 43.259 85.4671 43.3651 85.1555C43.4711 84.844 43.6186 84.5457 43.8075 84.2607C43.9964 83.9756 44.2185 83.732 44.4737 83.5298L45.2095 84.0568C45.0073 84.3518 44.835 84.66 44.6925 84.9815C44.55 85.303 44.4787 85.6527 44.4787 86.0305V87H43.206ZM45.7415 87V86.0455C45.7415 85.7637 45.7945 85.4671 45.9006 85.1555C46.0066 84.844 46.1541 84.5457 46.343 84.2607C46.532 83.9756 46.754 83.732 47.0092 83.5298L47.745 84.0568C47.5429 84.3518 47.3705 84.66 47.228 84.9815C47.0855 85.303 47.0142 85.6527 47.0142 86.0305V87H45.7415ZM48.6399 85.1406V83.8182H56.5199V85.1406H53.343V94H51.8118V85.1406H48.6399ZM57.3489 94V86.3636H58.7857V87.5767H58.8652C59.0044 87.1657 59.2497 86.8426 59.601 86.6072C59.9557 86.3686 60.3567 86.2493 60.8042 86.2493C60.897 86.2493 61.0063 86.2526 61.1323 86.2592C61.2615 86.2659 61.3626 86.2741 61.4355 86.2841V87.706C61.3759 87.6894 61.2698 87.6712 61.1174 87.6513C60.9649 87.6281 60.8124 87.6165 60.66 87.6165C60.3087 87.6165 59.9954 87.6911 59.7203 87.8402C59.4486 87.986 59.2331 88.1899 59.074 88.4517C58.915 88.7102 58.8354 89.0052 58.8354 89.3366V94H57.3489ZM65.6651 94.1541C64.9492 94.1541 64.3245 93.9901 63.7908 93.6619C63.2572 93.3338 62.8429 92.8748 62.5479 92.2848C62.253 91.6948 62.1055 91.0054 62.1055 90.2166C62.1055 89.4245 62.253 88.7318 62.5479 88.1385C62.8429 87.5452 63.2572 87.0845 63.7908 86.7564C64.3245 86.4283 64.9492 86.2642 65.6651 86.2642C66.381 86.2642 67.0058 86.4283 67.5394 86.7564C68.073 87.0845 68.4873 87.5452 68.7823 88.1385C69.0773 88.7318 69.2248 89.4245 69.2248 90.2166C69.2248 91.0054 69.0773 91.6948 68.7823 92.2848C68.4873 92.8748 68.073 93.3338 67.5394 93.6619C67.0058 93.9901 66.381 94.1541 65.6651 94.1541ZM65.6701 92.9062C66.1341 92.9062 66.5186 92.7836 66.8235 92.5384C67.1284 92.2931 67.3538 91.9666 67.4996 91.5589C67.6488 91.1513 67.7234 90.7022 67.7234 90.2116C67.7234 89.7244 67.6488 89.277 67.4996 88.8693C67.3538 88.4583 67.1284 88.1286 66.8235 87.88C66.5186 87.6314 66.1341 87.5071 65.6701 87.5071C65.2028 87.5071 64.815 87.6314 64.5067 87.88C64.2018 88.1286 63.9748 88.4583 63.8256 88.8693C63.6798 89.277 63.6069 89.7244 63.6069 90.2116C63.6069 90.7022 63.6798 91.1513 63.8256 91.5589C63.9748 91.9666 64.2018 92.2931 64.5067 92.5384C64.815 92.7836 65.2028 92.9062 65.6701 92.9062ZM70.8841 96.8636V86.3636H72.3358V87.6016H72.46C72.5462 87.4425 72.6705 87.2585 72.8329 87.0497C72.9953 86.8409 73.2207 86.6586 73.5091 86.5028C73.7974 86.3438 74.1786 86.2642 74.6525 86.2642C75.269 86.2642 75.8192 86.42 76.3031 86.7315C76.787 87.0431 77.1665 87.4922 77.4416 88.0788C77.72 88.6655 77.8592 89.3714 77.8592 90.1967C77.8592 91.022 77.7217 91.7296 77.4466 92.3196C77.1715 92.9062 76.7936 93.3587 76.313 93.6768C75.8324 93.9917 75.2839 94.1491 74.6674 94.1491C74.2034 94.1491 73.8239 94.0713 73.5289 93.9155C73.2373 93.7597 73.0086 93.5774 72.8429 93.3686C72.6771 93.1598 72.5495 92.9742 72.46 92.8118H72.3706V96.8636H70.8841ZM72.3407 90.1818C72.3407 90.7187 72.4186 91.1894 72.5744 91.5938C72.7302 91.9981 72.9556 92.3146 73.2505 92.5433C73.5455 92.7687 73.9068 92.8814 74.3343 92.8814C74.7785 92.8814 75.1497 92.7637 75.448 92.5284C75.7463 92.2898 75.9717 91.9666 76.1241 91.5589C76.2799 91.1513 76.3578 90.6922 76.3578 90.1818C76.3578 89.678 76.2815 89.2256 76.1291 88.8246C75.9799 88.4235 75.7546 88.107 75.4529 87.875C75.1547 87.643 74.7818 87.527 74.3343 87.527C73.9035 87.527 73.5389 87.638 73.2406 87.8601C72.9456 88.0821 72.7219 88.392 72.5694 88.7898C72.417 89.1875 72.3407 89.6515 72.3407 90.1818ZM83.3491 94V83.8182H84.8356V87.6016H84.9251C85.0112 87.4425 85.1355 87.2585 85.2979 87.0497C85.4603 86.8409 85.6857 86.6586 85.9741 86.5028C86.2624 86.3438 86.6436 86.2642 87.1175 86.2642C87.734 86.2642 88.2842 86.42 88.7681 86.7315C89.252 87.0431 89.6315 87.4922 89.9066 88.0788C90.185 88.6655 90.3242 89.3714 90.3242 90.1967C90.3242 91.022 90.1867 91.7296 89.9116 92.3196C89.6365 92.9062 89.2586 93.3587 88.7781 93.6768C88.2975 93.9917 87.7489 94.1491 87.1325 94.1491C86.6684 94.1491 86.2889 94.0713 85.994 93.9155C85.7023 93.7597 85.4736 93.5774 85.3079 93.3686C85.1422 93.1598 85.0146 92.9742 84.9251 92.8118H84.8008V94H83.3491ZM84.8058 90.1818C84.8058 90.7187 84.8836 91.1894 85.0394 91.5938C85.1952 91.9981 85.4206 92.3146 85.7156 92.5433C86.0105 92.7687 86.3718 92.8814 86.7994 92.8814C87.2435 92.8814 87.6147 92.7637 87.913 92.5284C88.2113 92.2898 88.4367 91.9666 88.5891 91.5589C88.7449 91.1513 88.8228 90.6922 88.8228 90.1818C88.8228 89.678 88.7466 89.2256 88.5941 88.8246C88.445 88.4235 88.2196 88.107 87.918 87.875C87.6197 87.643 87.2468 87.527 86.7994 87.527C86.3685 87.527 86.0039 87.638 85.7056 87.8601C85.4106 88.0821 85.1869 88.392 85.0344 88.7898C84.882 89.1875 84.8058 89.6515 84.8058 90.1818ZM91.9934 94V86.3636H93.4799V94H91.9934ZM92.7441 85.1854C92.4856 85.1854 92.2636 85.0992 92.0779 84.9268C91.8957 84.7512 91.8045 84.5424 91.8045 84.3004C91.8045 84.0552 91.8957 83.8464 92.0779 83.674C92.2636 83.4983 92.4856 83.4105 92.7441 83.4105C93.0027 83.4105 93.2231 83.4983 93.4054 83.674C93.591 83.8464 93.6838 84.0552 93.6838 84.3004C93.6838 84.5424 93.591 84.7512 93.4054 84.9268C93.2231 85.0992 93.0027 85.1854 92.7441 85.1854ZM98.771 94.1541C98.0186 94.1541 97.3706 93.9934 96.8271 93.6719C96.2868 93.3471 95.8692 92.8913 95.5742 92.3047C95.2826 91.7147 95.1367 91.0237 95.1367 90.2315C95.1367 89.4493 95.2826 88.7599 95.5742 88.1634C95.8692 87.5668 96.2802 87.1011 96.8072 86.7663C97.3375 86.4316 97.9573 86.2642 98.6665 86.2642C99.0974 86.2642 99.515 86.3355 99.9194 86.478C100.324 86.6205 100.687 86.8442 101.008 87.1491C101.33 87.4541 101.583 87.8501 101.769 88.3374C101.954 88.8213 102.047 89.4096 102.047 90.1023V90.6293H95.9769V89.5156H100.591C100.591 89.1245 100.511 88.7782 100.352 88.4766C100.193 88.1716 99.9691 87.9313 99.6808 87.7557C99.3957 87.58 99.061 87.4922 98.6765 87.4922C98.2589 87.4922 97.8943 87.5949 97.5827 87.8004C97.2745 88.0026 97.0359 88.2678 96.8668 88.5959C96.7011 88.9207 96.6183 89.2737 96.6183 89.6548V90.5249C96.6183 91.0353 96.7077 91.4695 96.8867 91.8274C97.069 92.1854 97.3226 92.4588 97.6474 92.6477C97.9722 92.8333 98.3517 92.9261 98.7859 92.9261C99.0676 92.9261 99.3245 92.8864 99.5565 92.8068C99.7885 92.724 99.989 92.6013 100.158 92.4389C100.327 92.2765 100.456 92.076 100.546 91.8374L101.953 92.0909C101.84 92.5052 101.638 92.8681 101.346 93.1797C101.058 93.4879 100.695 93.7282 100.257 93.9006C99.8233 94.0696 99.3278 94.1541 98.771 94.1541ZM105.183 89.4659V94H103.697V86.3636H105.123V87.6065H105.218C105.394 87.2022 105.669 86.8774 106.043 86.6321C106.421 86.3868 106.897 86.2642 107.47 86.2642C107.99 86.2642 108.446 86.3736 108.837 86.5923C109.228 86.8078 109.532 87.1293 109.747 87.5568C109.962 87.9844 110.07 88.513 110.07 89.1428V94H108.584V89.3217C108.584 88.7682 108.439 88.3357 108.151 88.0241C107.863 87.7093 107.467 87.5518 106.963 87.5518C106.618 87.5518 106.312 87.6264 106.043 87.7756C105.778 87.9247 105.568 88.1435 105.412 88.4318C105.259 88.7169 105.183 89.0616 105.183 89.4659ZM113.998 92.608L113.923 93.1499C113.873 93.5476 113.789 93.9619 113.67 94.3928C113.554 94.8269 113.433 95.2296 113.307 95.6009C113.184 95.9721 113.083 96.267 113.003 96.4858H111.949C111.992 96.2803 112.052 96.0019 112.128 95.6506C112.205 95.3026 112.279 94.9131 112.352 94.4822C112.425 94.0514 112.48 93.6122 112.516 93.1648L112.566 92.608H113.998ZM121.124 83.8182V94H119.638V83.8182H121.124ZM126.415 94.1541C125.663 94.1541 125.015 93.9934 124.472 93.6719C123.931 93.3471 123.514 92.8913 123.219 92.3047C122.927 91.7147 122.781 91.0237 122.781 90.2315C122.781 89.4493 122.927 88.7599 123.219 88.1634C123.514 87.5668 123.925 87.1011 124.452 86.7663C124.982 86.4316 125.602 86.2642 126.311 86.2642C126.742 86.2642 127.16 86.3355 127.564 86.478C127.968 86.6205 128.331 86.8442 128.653 87.1491C128.974 87.4541 129.228 87.8501 129.413 88.3374C129.599 88.8213 129.692 89.4096 129.692 90.1023V90.6293H123.621V89.5156H128.235C128.235 89.1245 128.156 88.7782 127.996 88.4766C127.837 88.1716 127.614 87.9313 127.325 87.7557C127.04 87.58 126.705 87.4922 126.321 87.4922C125.903 87.4922 125.539 87.5949 125.227 87.8004C124.919 88.0026 124.68 88.2678 124.511 88.5959C124.346 88.9207 124.263 89.2737 124.263 89.6548V90.5249C124.263 91.0353 124.352 91.4695 124.531 91.8274C124.714 92.1854 124.967 92.4588 125.292 92.6477C125.617 92.8333 125.996 92.9261 126.43 92.9261C126.712 92.9261 126.969 92.8864 127.201 92.8068C127.433 92.724 127.634 92.6013 127.803 92.4389C127.972 92.2765 128.101 92.076 128.19 91.8374L129.597 92.0909C129.485 92.5052 129.282 92.8681 128.991 93.1797C128.702 93.4879 128.339 93.7282 127.902 93.9006C127.468 94.0696 126.972 94.1541 126.415 94.1541ZM137.063 88.228L135.716 88.4666C135.66 88.2943 135.57 88.1302 135.448 87.9744C135.328 87.8187 135.166 87.6911 134.96 87.5916C134.755 87.4922 134.498 87.4425 134.19 87.4425C133.769 87.4425 133.418 87.5369 133.136 87.7259C132.854 87.9115 132.713 88.1518 132.713 88.4467C132.713 88.7019 132.808 88.9074 132.997 89.0632C133.186 89.219 133.49 89.3466 133.911 89.446L135.124 89.7244C135.827 89.8868 136.351 90.1371 136.695 90.4751C137.04 90.8132 137.213 91.2524 137.213 91.7926C137.213 92.25 137.08 92.6577 136.815 93.0156C136.553 93.3703 136.187 93.6487 135.716 93.8509C135.249 94.053 134.707 94.1541 134.09 94.1541C133.235 94.1541 132.538 93.9718 131.997 93.6072C131.457 93.2393 131.126 92.7173 131.003 92.0412L132.44 91.8224C132.529 92.197 132.713 92.4804 132.992 92.6726C133.27 92.8615 133.633 92.956 134.08 92.956C134.568 92.956 134.957 92.8549 135.249 92.6527C135.54 92.4472 135.686 92.197 135.686 91.902C135.686 91.6634 135.597 91.4628 135.418 91.3004C135.242 91.138 134.972 91.0154 134.607 90.9325L133.315 90.6491C132.602 90.4867 132.075 90.2282 131.734 89.8736C131.396 89.5189 131.227 89.0698 131.227 88.5263C131.227 88.0755 131.353 87.6811 131.605 87.343C131.856 87.005 132.204 86.7415 132.649 86.5526C133.093 86.3603 133.602 86.2642 134.175 86.2642C135 86.2642 135.65 86.4432 136.124 86.8011C136.598 87.1558 136.911 87.6314 137.063 88.228ZM145.843 94.1541C145.091 94.1541 144.443 93.9934 143.899 93.6719C143.359 93.3471 142.941 92.8913 142.646 92.3047C142.355 91.7147 142.209 91.0237 142.209 90.2315C142.209 89.4493 142.355 88.7599 142.646 88.1634C142.941 87.5668 143.352 87.1011 143.879 86.7663C144.41 86.4316 145.03 86.2642 145.739 86.2642C146.17 86.2642 146.587 86.3355 146.992 86.478C147.396 86.6205 147.759 86.8442 148.08 87.1491C148.402 87.4541 148.655 87.8501 148.841 88.3374C149.027 88.8213 149.119 89.4096 149.119 90.1023V90.6293H143.049V89.5156H147.663C147.663 89.1245 147.583 88.7782 147.424 88.4766C147.265 88.1716 147.041 87.9313 146.753 87.7557C146.468 87.58 146.133 87.4922 145.749 87.4922C145.331 87.4922 144.967 87.5949 144.655 87.8004C144.347 88.0026 144.108 88.2678 143.939 88.5959C143.773 88.9207 143.691 89.2737 143.691 89.6548V90.5249C143.691 91.0353 143.78 91.4695 143.959 91.8274C144.141 92.1854 144.395 92.4588 144.72 92.6477C145.044 92.8333 145.424 92.9261 145.858 92.9261C146.14 92.9261 146.397 92.8864 146.629 92.8068C146.861 92.724 147.061 92.6013 147.23 92.4389C147.399 92.2765 147.529 92.076 147.618 91.8374L149.025 92.0909C148.912 92.5052 148.71 92.8681 148.419 93.1797C148.13 93.4879 147.767 93.7282 147.33 93.9006C146.896 94.0696 146.4 94.1541 145.843 94.1541ZM145.068 85.3445L146.231 83.0526H147.797L146.256 85.3445H145.068ZM155.924 96.8636V92.8118H155.835C155.745 92.9742 155.616 93.1598 155.447 93.3686C155.281 93.5774 155.053 93.7597 154.761 93.9155C154.469 94.0713 154.092 94.1491 153.627 94.1491C153.011 94.1491 152.461 93.9917 151.977 93.6768C151.496 93.3587 151.118 92.9062 150.843 92.3196C150.572 91.7296 150.436 91.022 150.436 90.1967C150.436 89.3714 150.573 88.6655 150.848 88.0788C151.127 87.4922 151.508 87.0431 151.992 86.7315C152.476 86.42 153.024 86.2642 153.637 86.2642C154.111 86.2642 154.493 86.3438 154.781 86.5028C155.073 86.6586 155.298 86.8409 155.457 87.0497C155.619 87.2585 155.745 87.4425 155.835 87.6016H155.959V86.3636H157.411V96.8636H155.924ZM153.956 92.8814C154.383 92.8814 154.744 92.7687 155.039 92.5433C155.338 92.3146 155.563 91.9981 155.716 91.5938C155.871 91.1894 155.949 90.7187 155.949 90.1818C155.949 89.6515 155.873 89.1875 155.721 88.7898C155.568 88.392 155.344 88.0821 155.049 87.8601C154.754 87.638 154.39 87.527 153.956 87.527C153.508 87.527 153.135 87.643 152.837 87.875C152.539 88.107 152.313 88.4235 152.161 88.8246C152.012 89.2256 151.937 89.678 151.937 90.1818C151.937 90.6922 152.013 91.1513 152.166 91.5589C152.318 91.9666 152.544 92.2898 152.842 92.5284C153.144 92.7637 153.515 92.8814 153.956 92.8814ZM164.247 90.8331V86.3636H165.738V94H164.277V92.6776H164.197C164.021 93.0852 163.74 93.425 163.352 93.6967C162.967 93.9652 162.489 94.0994 161.915 94.0994C161.425 94.0994 160.99 93.9917 160.613 93.7763C160.238 93.5575 159.943 93.2344 159.728 92.8068C159.516 92.3793 159.409 91.8506 159.409 91.2209V86.3636H160.896V91.0419C160.896 91.5623 161.04 91.9766 161.328 92.2848C161.617 92.593 161.991 92.7472 162.452 92.7472C162.73 92.7472 163.007 92.6776 163.282 92.5384C163.561 92.3991 163.791 92.1887 163.973 91.907C164.159 91.6252 164.25 91.2673 164.247 90.8331ZM167.736 94V86.3636H169.222V94H167.736ZM168.486 85.1854C168.228 85.1854 168.006 85.0992 167.82 84.9268C167.638 84.7512 167.547 84.5424 167.547 84.3004C167.547 84.0552 167.638 83.8464 167.82 83.674C168.006 83.4983 168.228 83.4105 168.486 83.4105C168.745 83.4105 168.965 83.4983 169.148 83.674C169.333 83.8464 169.426 84.0552 169.426 84.3004C169.426 84.5424 169.333 84.7512 169.148 84.9268C168.965 85.0992 168.745 85.1854 168.486 85.1854ZM171.222 96.8636V86.3636H172.674V87.6016H172.798C172.884 87.4425 173.008 87.2585 173.171 87.0497C173.333 86.8409 173.559 86.6586 173.847 86.5028C174.135 86.3438 174.516 86.2642 174.99 86.2642C175.607 86.2642 176.157 86.42 176.641 86.7315C177.125 87.0431 177.504 87.4922 177.779 88.0788C178.058 88.6655 178.197 89.3714 178.197 90.1967C178.197 91.022 178.06 91.7296 177.784 92.3196C177.509 92.9062 177.132 93.3587 176.651 93.6768C176.17 93.9917 175.622 94.1491 175.005 94.1491C174.541 94.1491 174.162 94.0713 173.867 93.9155C173.575 93.7597 173.346 93.5774 173.181 93.3686C173.015 93.1598 172.887 92.9742 172.798 92.8118H172.708V96.8636H171.222ZM172.679 90.1818C172.679 90.7187 172.757 91.1894 172.912 91.5938C173.068 91.9981 173.293 92.3146 173.588 92.5433C173.883 92.7687 174.245 92.8814 174.672 92.8814C175.116 92.8814 175.488 92.7637 175.786 92.5284C176.084 92.2898 176.31 91.9666 176.462 91.5589C176.618 91.1513 176.696 90.6922 176.696 90.1818C176.696 89.678 176.619 89.2256 176.467 88.8246C176.318 88.4235 176.092 88.107 175.791 87.875C175.493 87.643 175.12 87.527 174.672 87.527C174.241 87.527 173.877 87.638 173.578 87.8601C173.283 88.0821 173.06 88.392 172.907 88.7898C172.755 89.1875 172.679 89.6515 172.679 90.1818ZM183.154 94.1541C182.401 94.1541 181.753 93.9934 181.21 93.6719C180.67 93.3471 180.252 92.8913 179.957 92.3047C179.665 91.7147 179.52 91.0237 179.52 90.2315C179.52 89.4493 179.665 88.7599 179.957 88.1634C180.252 87.5668 180.663 87.1011 181.19 86.7663C181.72 86.4316 182.34 86.2642 183.049 86.2642C183.48 86.2642 183.898 86.3355 184.302 86.478C184.707 86.6205 185.069 86.8442 185.391 87.1491C185.712 87.4541 185.966 87.8501 186.152 88.3374C186.337 88.8213 186.43 89.4096 186.43 90.1023V90.6293H180.36V89.5156H184.973C184.973 89.1245 184.894 88.7782 184.735 88.4766C184.576 88.1716 184.352 87.9313 184.064 87.7557C183.779 87.58 183.444 87.4922 183.059 87.4922C182.642 87.4922 182.277 87.5949 181.966 87.8004C181.657 88.0026 181.419 88.2678 181.25 88.5959C181.084 88.9207 181.001 89.2737 181.001 89.6548V90.5249C181.001 91.0353 181.091 91.4695 181.27 91.8274C181.452 92.1854 181.705 92.4588 182.03 92.6477C182.355 92.8333 182.734 92.9261 183.169 92.9261C183.45 92.9261 183.707 92.8864 183.939 92.8068C184.171 92.724 184.372 92.6013 184.541 92.4389C184.71 92.2765 184.839 92.076 184.929 91.8374L186.336 92.0909C186.223 92.5052 186.021 92.8681 185.729 93.1797C185.441 93.4879 185.078 93.7282 184.64 93.9006C184.206 94.0696 183.711 94.1541 183.154 94.1541ZM193.802 88.228L192.454 88.4666C192.398 88.2943 192.309 88.1302 192.186 87.9744C192.067 87.8187 191.904 87.6911 191.699 87.5916C191.493 87.4922 191.236 87.4425 190.928 87.4425C190.507 87.4425 190.156 87.5369 189.874 87.7259C189.592 87.9115 189.452 88.1518 189.452 88.4467C189.452 88.7019 189.546 88.9074 189.735 89.0632C189.924 89.219 190.229 89.3466 190.65 89.446L191.863 89.7244C192.565 89.8868 193.089 90.1371 193.434 90.4751C193.778 90.8132 193.951 91.2524 193.951 91.7926C193.951 92.25 193.818 92.6577 193.553 93.0156C193.291 93.3703 192.925 93.6487 192.454 93.8509C191.987 94.053 191.445 94.1541 190.829 94.1541C189.974 94.1541 189.276 93.9718 188.736 93.6072C188.195 93.2393 187.864 92.7173 187.741 92.0412L189.178 91.8224C189.268 92.197 189.452 92.4804 189.73 92.6726C190.008 92.8615 190.371 92.956 190.819 92.956C191.306 92.956 191.695 92.8549 191.987 92.6527C192.279 92.4472 192.425 92.197 192.425 91.902C192.425 91.6634 192.335 91.4628 192.156 91.3004C191.98 91.138 191.71 91.0154 191.346 90.9325L190.053 90.6491C189.34 90.4867 188.814 90.2282 188.472 89.8736C188.134 89.5189 187.965 89.0698 187.965 88.5263C187.965 88.0755 188.091 87.6811 188.343 87.343C188.595 87.005 188.943 86.7415 189.387 86.5526C189.831 86.3603 190.34 86.2642 190.913 86.2642C191.738 86.2642 192.388 86.4432 192.862 86.8011C193.336 87.1558 193.649 87.6314 193.802 88.228ZM202.507 94.1541C201.791 94.1541 201.166 93.9901 200.633 93.6619C200.099 93.3338 199.685 92.8748 199.39 92.2848C199.095 91.6948 198.947 91.0054 198.947 90.2166C198.947 89.4245 199.095 88.7318 199.39 88.1385C199.685 87.5452 200.099 87.0845 200.633 86.7564C201.166 86.4283 201.791 86.2642 202.507 86.2642C203.223 86.2642 203.848 86.4283 204.381 86.7564C204.915 87.0845 205.329 87.5452 205.624 88.1385C205.919 88.7318 206.067 89.4245 206.067 90.2166C206.067 91.0054 205.919 91.6948 205.624 92.2848C205.329 92.8748 204.915 93.3338 204.381 93.6619C203.848 93.9901 203.223 94.1541 202.507 94.1541ZM202.512 92.9062C202.976 92.9062 203.36 92.7836 203.665 92.5384C203.97 92.2931 204.196 91.9666 204.341 91.5589C204.491 91.1513 204.565 90.7022 204.565 90.2116C204.565 89.7244 204.491 89.277 204.341 88.8693C204.196 88.4583 203.97 88.1286 203.665 87.88C203.36 87.6314 202.976 87.5071 202.512 87.5071C202.045 87.5071 201.657 87.6314 201.349 87.88C201.044 88.1286 200.817 88.4583 200.667 88.8693C200.522 89.277 200.449 89.7244 200.449 90.2116C200.449 90.7022 200.522 91.1513 200.667 91.5589C200.817 91.9666 201.044 92.2931 201.349 92.5384C201.657 92.7836 202.045 92.9062 202.512 92.9062ZM209.212 89.4659V94H207.726V86.3636H209.153V87.6065H209.247C209.423 87.2022 209.698 86.8774 210.072 86.6321C210.45 86.3868 210.926 86.2642 211.499 86.2642C212.02 86.2642 212.475 86.3736 212.866 86.5923C213.258 86.8078 213.561 87.1293 213.776 87.5568C213.992 87.9844 214.099 88.513 214.099 89.1428V94H212.613V89.3217C212.613 88.7682 212.469 88.3357 212.18 88.0241C211.892 87.7093 211.496 87.5518 210.992 87.5518C210.647 87.5518 210.341 87.6264 210.072 87.7756C209.807 87.9247 209.597 88.1435 209.441 88.4318C209.289 88.7169 209.212 89.0616 209.212 89.4659ZM219.658 86.3636V87.5568H215.487V86.3636H219.658ZM216.605 84.5341H218.092V91.7578C218.092 92.0462 218.135 92.2633 218.221 92.4091C218.307 92.5516 218.418 92.6494 218.554 92.7024C218.693 92.7521 218.844 92.777 219.006 92.777C219.126 92.777 219.23 92.7687 219.32 92.7521C219.409 92.7356 219.479 92.7223 219.528 92.7124L219.797 93.9403C219.711 93.9735 219.588 94.0066 219.429 94.0398C219.27 94.0762 219.071 94.0961 218.832 94.0994C218.441 94.1061 218.077 94.0365 217.739 93.8906C217.401 93.7448 217.127 93.5194 216.918 93.2145C216.71 92.9096 216.605 92.5268 216.605 92.0661V84.5341ZM228.298 94.1541C227.546 94.1541 226.898 93.9934 226.354 93.6719C225.814 93.3471 225.397 92.8913 225.102 92.3047C224.81 91.7147 224.664 91.0237 224.664 90.2315C224.664 89.4493 224.81 88.7599 225.102 88.1634C225.397 87.5668 225.808 87.1011 226.335 86.7663C226.865 86.4316 227.485 86.2642 228.194 86.2642C228.625 86.2642 229.042 86.3355 229.447 86.478C229.851 86.6205 230.214 86.8442 230.536 87.1491C230.857 87.4541 231.111 87.8501 231.296 88.3374C231.482 88.8213 231.575 89.4096 231.575 90.1023V90.6293H225.504V89.5156H230.118C230.118 89.1245 230.038 88.7782 229.879 88.4766C229.72 88.1716 229.496 87.9313 229.208 87.7557C228.923 87.58 228.588 87.4922 228.204 87.4922C227.786 87.4922 227.422 87.5949 227.11 87.8004C226.802 88.0026 226.563 88.2678 226.394 88.5959C226.228 88.9207 226.146 89.2737 226.146 89.6548V90.5249C226.146 91.0353 226.235 91.4695 226.414 91.8274C226.596 92.1854 226.85 92.4588 227.175 92.6477C227.5 92.8333 227.879 92.9261 228.313 92.9261C228.595 92.9261 228.852 92.8864 229.084 92.8068C229.316 92.724 229.516 92.6013 229.685 92.4389C229.854 92.2765 229.984 92.076 230.073 91.8374L231.48 92.0909C231.367 92.5052 231.165 92.8681 230.874 93.1797C230.585 93.4879 230.222 93.7282 229.785 93.9006C229.351 94.0696 228.855 94.1541 228.298 94.1541ZM227.523 85.3445L228.686 83.0526H230.252L228.711 85.3445H227.523ZM236.789 86.3636V87.5568H232.617V86.3636H236.789ZM233.736 84.5341H235.222V91.7578C235.222 92.0462 235.266 92.2633 235.352 92.4091C235.438 92.5516 235.549 92.6494 235.685 92.7024C235.824 92.7521 235.975 92.777 236.137 92.777C236.257 92.777 236.361 92.7687 236.45 92.7521C236.54 92.7356 236.61 92.7223 236.659 92.7124L236.928 93.9403C236.842 93.9735 236.719 94.0066 236.56 94.0398C236.401 94.0762 236.202 94.0961 235.963 94.0994C235.572 94.1061 235.208 94.0365 234.869 93.8906C234.531 93.7448 234.258 93.5194 234.049 93.2145C233.84 92.9096 233.736 92.5268 233.736 92.0661V84.5341ZM241.642 94.1541C240.89 94.1541 240.242 93.9934 239.698 93.6719C239.158 93.3471 238.74 92.8913 238.445 92.3047C238.154 91.7147 238.008 91.0237 238.008 90.2315C238.008 89.4493 238.154 88.7599 238.445 88.1634C238.74 87.5668 239.151 87.1011 239.678 86.7663C240.209 86.4316 240.828 86.2642 241.538 86.2642C241.969 86.2642 242.386 86.3355 242.79 86.478C243.195 86.6205 243.558 86.8442 243.879 87.1491C244.201 87.4541 244.454 87.8501 244.64 88.3374C244.826 88.8213 244.918 89.4096 244.918 90.1023V90.6293H238.848V89.5156H243.462C243.462 89.1245 243.382 88.7782 243.223 88.4766C243.064 88.1716 242.84 87.9313 242.552 87.7557C242.267 87.58 241.932 87.4922 241.548 87.4922C241.13 87.4922 240.765 87.5949 240.454 87.8004C240.146 88.0026 239.907 88.2678 239.738 88.5959C239.572 88.9207 239.489 89.2737 239.489 89.6548V90.5249C239.489 91.0353 239.579 91.4695 239.758 91.8274C239.94 92.1854 240.194 92.4588 240.518 92.6477C240.843 92.8333 241.223 92.9261 241.657 92.9261C241.939 92.9261 242.196 92.8864 242.428 92.8068C242.66 92.724 242.86 92.6013 243.029 92.4389C243.198 92.2765 243.327 92.076 243.417 91.8374L244.824 92.0909C244.711 92.5052 244.509 92.8681 244.217 93.1797C243.929 93.4879 243.566 93.7282 243.129 93.9006C242.694 94.0696 242.199 94.1541 241.642 94.1541ZM240.866 85.3445L242.03 83.0526H243.596L242.055 85.3445H240.866ZM252.495 94.169C252.011 94.169 251.574 94.0795 251.183 93.9006C250.791 93.7183 250.482 93.4548 250.253 93.1101C250.027 92.7654 249.915 92.3428 249.915 91.8423C249.915 91.4115 249.998 91.0568 250.163 90.7784C250.329 90.5 250.553 90.2796 250.835 90.1172C251.116 89.9548 251.431 89.8321 251.779 89.7493C252.127 89.6664 252.482 89.6035 252.843 89.5604C253.3 89.5073 253.672 89.4643 253.957 89.4311C254.242 89.3946 254.449 89.3366 254.578 89.2571C254.707 89.1776 254.772 89.0483 254.772 88.8693V88.8345C254.772 88.4003 254.649 88.0639 254.404 87.8253C254.162 87.5866 253.801 87.4673 253.32 87.4673C252.82 87.4673 252.425 87.5784 252.137 87.8004C251.852 88.0192 251.655 88.2628 251.545 88.5312L250.148 88.2131C250.314 87.7491 250.556 87.3745 250.874 87.0895C251.196 86.8011 251.565 86.5923 251.983 86.4631C252.401 86.3305 252.84 86.2642 253.3 86.2642C253.605 86.2642 253.929 86.3007 254.27 86.3736C254.615 86.4432 254.936 86.5724 255.234 86.7614C255.536 86.9503 255.783 87.2204 255.975 87.5717C256.167 87.9197 256.263 88.3722 256.263 88.929V94H254.812V92.956H254.752C254.656 93.1482 254.512 93.3371 254.32 93.5227C254.127 93.7083 253.88 93.8625 253.579 93.9851C253.277 94.1077 252.916 94.169 252.495 94.169ZM252.818 92.9759C253.229 92.9759 253.58 92.8946 253.872 92.7322C254.167 92.5698 254.391 92.3577 254.543 92.0959C254.699 91.8307 254.777 91.5473 254.777 91.2457V90.2614C254.724 90.3144 254.621 90.3641 254.469 90.4105C254.32 90.4536 254.149 90.4917 253.957 90.5249C253.764 90.5547 253.577 90.5829 253.395 90.6094C253.213 90.6326 253.06 90.6525 252.938 90.669C252.649 90.7055 252.386 90.7668 252.147 90.853C251.912 90.9392 251.723 91.0634 251.58 91.2259C251.441 91.3849 251.371 91.5971 251.371 91.8622C251.371 92.2301 251.507 92.5085 251.779 92.6974C252.051 92.883 252.397 92.9759 252.818 92.9759ZM263.081 90.8331V86.3636H264.572V94H263.111V92.6776H263.031C262.855 93.0852 262.574 93.425 262.186 93.6967C261.801 93.9652 261.323 94.0994 260.749 94.0994C260.259 94.0994 259.824 93.9917 259.447 93.7763C259.072 93.5575 258.777 93.2344 258.562 92.8068C258.349 92.3793 258.243 91.8506 258.243 91.2209V86.3636H259.73V91.0419C259.73 91.5623 259.874 91.9766 260.162 92.2848C260.451 92.593 260.825 92.7472 261.286 92.7472C261.564 92.7472 261.841 92.6776 262.116 92.5384C262.395 92.3991 262.625 92.1887 262.807 91.907C262.993 91.6252 263.084 91.2673 263.081 90.8331ZM273.839 86.3636V87.5568H269.668V86.3636H273.839ZM270.787 84.5341H272.273V91.7578C272.273 92.0462 272.316 92.2633 272.403 92.4091C272.489 92.5516 272.6 92.6494 272.736 92.7024C272.875 92.7521 273.026 92.777 273.188 92.777C273.307 92.777 273.412 92.7687 273.501 92.7521C273.591 92.7356 273.66 92.7223 273.71 92.7124L273.979 93.9403C273.892 93.9735 273.77 94.0066 273.611 94.0398C273.452 94.0762 273.253 94.0961 273.014 94.0994C272.623 94.1061 272.258 94.0365 271.92 93.8906C271.582 93.7448 271.309 93.5194 271.1 93.2145C270.891 92.9096 270.787 92.5268 270.787 92.0661V84.5341ZM278.618 94.1541C277.902 94.1541 277.278 93.9901 276.744 93.6619C276.21 93.3338 275.796 92.8748 275.501 92.2848C275.206 91.6948 275.059 91.0054 275.059 90.2166C275.059 89.4245 275.206 88.7318 275.501 88.1385C275.796 87.5452 276.21 87.0845 276.744 86.7564C277.278 86.4283 277.902 86.2642 278.618 86.2642C279.334 86.2642 279.959 86.4283 280.493 86.7564C281.026 87.0845 281.44 87.5452 281.735 88.1385C282.03 88.7318 282.178 89.4245 282.178 90.2166C282.178 91.0054 282.03 91.6948 281.735 92.2848C281.44 92.8748 281.026 93.3338 280.493 93.6619C279.959 93.9901 279.334 94.1541 278.618 94.1541ZM278.623 92.9062C279.087 92.9062 279.472 92.7836 279.777 92.5384C280.082 92.2931 280.307 91.9666 280.453 91.5589C280.602 91.1513 280.676 90.7022 280.676 90.2116C280.676 89.7244 280.602 89.277 280.453 88.8693C280.307 88.4583 280.082 88.1286 279.777 87.88C279.472 87.6314 279.087 87.5071 278.623 87.5071C278.156 87.5071 277.768 87.6314 277.46 87.88C277.155 88.1286 276.928 88.4583 276.779 88.8693C276.633 89.277 276.56 89.7244 276.56 90.2116C276.56 90.7022 276.633 91.1513 276.779 91.5589C276.928 91.9666 277.155 92.2931 277.46 92.5384C277.768 92.7836 278.156 92.9062 278.623 92.9062ZM283.837 96.8636V86.3636H285.289V87.6016H285.413C285.499 87.4425 285.624 87.2585 285.786 87.0497C285.948 86.8409 286.174 86.6586 286.462 86.5028C286.751 86.3438 287.132 86.2642 287.606 86.2642C288.222 86.2642 288.772 86.42 289.256 86.7315C289.74 87.0431 290.12 87.4922 290.395 88.0788C290.673 88.6655 290.812 89.3714 290.812 90.1967C290.812 91.022 290.675 91.7296 290.4 92.3196C290.125 92.9062 289.747 93.3587 289.266 93.6768C288.786 93.9917 288.237 94.1491 287.621 94.1491C287.157 94.1491 286.777 94.0713 286.482 93.9155C286.19 93.7597 285.962 93.5774 285.796 93.3686C285.63 93.1598 285.503 92.9742 285.413 92.8118H285.324V96.8636H283.837ZM285.294 90.1818C285.294 90.7187 285.372 91.1894 285.528 91.5938C285.683 91.9981 285.909 92.3146 286.204 92.5433C286.499 92.7687 286.86 92.8814 287.287 92.8814C287.732 92.8814 288.103 92.7637 288.401 92.5284C288.699 92.2898 288.925 91.9666 289.077 91.5589C289.233 91.1513 289.311 90.6922 289.311 90.1818C289.311 89.678 289.235 89.2256 289.082 88.8246C288.933 88.4235 288.708 88.107 288.406 87.875C288.108 87.643 287.735 87.527 287.287 87.527C286.857 87.527 286.492 87.638 286.194 87.8601C285.899 88.0821 285.675 88.392 285.523 88.7898C285.37 89.1875 285.294 89.6515 285.294 90.1818ZM298.405 94.169C297.921 94.169 297.484 94.0795 297.093 93.9006C296.702 93.7183 296.392 93.4548 296.163 93.1101C295.938 92.7654 295.825 92.3428 295.825 91.8423C295.825 91.4115 295.908 91.0568 296.074 90.7784C296.239 90.5 296.463 90.2796 296.745 90.1172C297.026 89.9548 297.341 89.8321 297.689 89.7493C298.037 89.6664 298.392 89.6035 298.753 89.5604C299.211 89.5073 299.582 89.4643 299.867 89.4311C300.152 89.3946 300.359 89.3366 300.488 89.2571C300.618 89.1776 300.682 89.0483 300.682 88.8693V88.8345C300.682 88.4003 300.56 88.0639 300.314 87.8253C300.072 87.5866 299.711 87.4673 299.23 87.4673C298.73 87.4673 298.336 87.5784 298.047 87.8004C297.762 88.0192 297.565 88.2628 297.456 88.5312L296.059 88.2131C296.224 87.7491 296.466 87.3745 296.784 87.0895C297.106 86.8011 297.475 86.5923 297.893 86.4631C298.311 86.3305 298.75 86.2642 299.211 86.2642C299.516 86.2642 299.839 86.3007 300.18 86.3736C300.525 86.4432 300.846 86.5724 301.145 86.7614C301.446 86.9503 301.693 87.2204 301.885 87.5717C302.078 87.9197 302.174 88.3722 302.174 88.929V94H300.722V92.956H300.662C300.566 93.1482 300.422 93.3371 300.23 93.5227C300.038 93.7083 299.791 93.8625 299.489 93.9851C299.187 94.1077 298.826 94.169 298.405 94.169ZM298.728 92.9759C299.139 92.9759 299.491 92.8946 299.782 92.7322C300.077 92.5698 300.301 92.3577 300.453 92.0959C300.609 91.8307 300.687 91.5473 300.687 91.2457V90.2614C300.634 90.3144 300.531 90.3641 300.379 90.4105C300.23 90.4536 300.059 90.4917 299.867 90.5249C299.675 90.5547 299.487 90.5829 299.305 90.6094C299.123 90.6326 298.97 90.6525 298.848 90.669C298.559 90.7055 298.296 90.7668 298.057 90.853C297.822 90.9392 297.633 91.0634 297.49 91.2259C297.351 91.3849 297.282 91.5971 297.282 91.8622C297.282 92.2301 297.417 92.5085 297.689 92.6974C297.961 92.883 298.307 92.9759 298.728 92.9759ZM310.413 86.3636L307.644 94H306.053L303.279 86.3636H304.874L306.808 92.2401H306.888L308.817 86.3636H310.413ZM314.841 94.1541C314.089 94.1541 313.441 93.9934 312.897 93.6719C312.357 93.3471 311.94 92.8913 311.645 92.3047C311.353 91.7147 311.207 91.0237 311.207 90.2315C311.207 89.4493 311.353 88.7599 311.645 88.1634C311.94 87.5668 312.35 87.1011 312.877 86.7663C313.408 86.4316 314.028 86.2642 314.737 86.2642C315.168 86.2642 315.585 86.3355 315.99 86.478C316.394 86.6205 316.757 86.8442 317.078 87.1491C317.4 87.4541 317.654 87.8501 317.839 88.3374C318.025 88.8213 318.118 89.4096 318.118 90.1023V90.6293H312.047V89.5156H316.661C316.661 89.1245 316.581 88.7782 316.422 88.4766C316.263 88.1716 316.039 87.9313 315.751 87.7557C315.466 87.58 315.131 87.4922 314.747 87.4922C314.329 87.4922 313.965 87.5949 313.653 87.8004C313.345 88.0026 313.106 88.2678 312.937 88.5959C312.771 88.9207 312.689 89.2737 312.689 89.6548V90.5249C312.689 91.0353 312.778 91.4695 312.957 91.8274C313.139 92.1854 313.393 92.4588 313.718 92.6477C314.042 92.8333 314.422 92.9261 314.856 92.9261C315.138 92.9261 315.395 92.8864 315.627 92.8068C315.859 92.724 316.059 92.6013 316.228 92.4389C316.397 92.2765 316.527 92.076 316.616 91.8374L318.023 92.0909C317.91 92.5052 317.708 92.8681 317.417 93.1797C317.128 93.4879 316.765 93.7282 316.328 93.9006C315.894 94.0696 315.398 94.1541 314.841 94.1541ZM322.983 94.1541C322.244 94.1541 321.608 93.9867 321.074 93.652C320.544 93.3139 320.136 92.8482 319.851 92.255C319.566 91.6617 319.424 90.9822 319.424 90.2166C319.424 89.4411 319.57 88.7566 319.861 88.1634C320.153 87.5668 320.564 87.1011 321.094 86.7663C321.625 86.4316 322.249 86.2642 322.969 86.2642C323.549 86.2642 324.066 86.3719 324.52 86.5874C324.974 86.7995 325.34 87.0978 325.618 87.4822C325.9 87.8667 326.068 88.3158 326.121 88.8295H324.674C324.594 88.4716 324.412 88.1634 324.127 87.9048C323.845 87.6463 323.467 87.517 322.993 87.517C322.579 87.517 322.216 87.6264 321.905 87.8452C321.596 88.0606 321.356 88.3688 321.184 88.7699C321.011 89.1676 320.925 89.6383 320.925 90.1818C320.925 90.7386 321.01 91.2192 321.179 91.6236C321.348 92.0279 321.586 92.3411 321.895 92.5632C322.206 92.7853 322.573 92.8963 322.993 92.8963C323.275 92.8963 323.53 92.8449 323.759 92.7422C323.991 92.6361 324.185 92.4853 324.341 92.2898C324.5 92.0942 324.611 91.8589 324.674 91.5838H326.121C326.068 92.0777 325.907 92.5185 325.638 92.9062C325.37 93.294 325.01 93.599 324.559 93.821C324.112 94.0431 323.587 94.1541 322.983 94.1541ZM44.9858 110.466V115H43.4993V107.364H44.9261V108.607H45.0206C45.1963 108.202 45.4714 107.877 45.8459 107.632C46.2237 107.387 46.6993 107.264 47.2727 107.264C47.7931 107.264 48.2488 107.374 48.6399 107.592C49.031 107.808 49.3343 108.129 49.5497 108.557C49.7652 108.984 49.8729 109.513 49.8729 110.143V115H48.3864V110.322C48.3864 109.768 48.2422 109.336 47.9538 109.024C47.6655 108.709 47.2694 108.552 46.7656 108.552C46.4209 108.552 46.1143 108.626 45.8459 108.776C45.5807 108.925 45.3703 109.143 45.2145 109.432C45.062 109.717 44.9858 110.062 44.9858 110.466ZM55.0831 115.154C54.3672 115.154 53.7424 114.99 53.2088 114.662C52.6752 114.334 52.2609 113.875 51.9659 113.285C51.6709 112.695 51.5234 112.005 51.5234 111.217C51.5234 110.424 51.6709 109.732 51.9659 109.138C52.2609 108.545 52.6752 108.085 53.2088 107.756C53.7424 107.428 54.3672 107.264 55.0831 107.264C55.799 107.264 56.4238 107.428 56.9574 107.756C57.491 108.085 57.9053 108.545 58.2003 109.138C58.4953 109.732 58.6428 110.424 58.6428 111.217C58.6428 112.005 58.4953 112.695 58.2003 113.285C57.9053 113.875 57.491 114.334 56.9574 114.662C56.4238 114.99 55.799 115.154 55.0831 115.154ZM55.0881 113.906C55.5521 113.906 55.9366 113.784 56.2415 113.538C56.5464 113.293 56.7718 112.967 56.9176 112.559C57.0668 112.151 57.1413 111.702 57.1413 111.212C57.1413 110.724 57.0668 110.277 56.9176 109.869C56.7718 109.458 56.5464 109.129 56.2415 108.88C55.9366 108.631 55.5521 108.507 55.0881 108.507C54.6207 108.507 54.233 108.631 53.9247 108.88C53.6198 109.129 53.3928 109.458 53.2436 109.869C53.0978 110.277 53.0249 110.724 53.0249 111.212C53.0249 111.702 53.0978 112.151 53.2436 112.559C53.3928 112.967 53.6198 113.293 53.9247 113.538C54.233 113.784 54.6207 113.906 55.0881 113.906ZM65.1394 111.833V107.364H66.6309V115H65.1692V113.678H65.0897C64.914 114.085 64.6323 114.425 64.2445 114.697C63.86 114.965 63.3811 115.099 62.8077 115.099C62.3172 115.099 61.883 114.992 61.5051 114.776C61.1306 114.558 60.8356 114.234 60.6202 113.807C60.4081 113.379 60.302 112.851 60.302 112.221V107.364H61.7885V112.042C61.7885 112.562 61.9327 112.977 62.2211 113.285C62.5094 113.593 62.8839 113.747 63.3446 113.747C63.623 113.747 63.8998 113.678 64.1749 113.538C64.4533 113.399 64.6837 113.189 64.8659 112.907C65.0516 112.625 65.1427 112.267 65.1394 111.833ZM74.3505 109.228L73.0032 109.467C72.9469 109.294 72.8574 109.13 72.7347 108.974C72.6154 108.819 72.453 108.691 72.2475 108.592C72.042 108.492 71.7852 108.442 71.4769 108.442C71.056 108.442 70.7047 108.537 70.4229 108.726C70.1412 108.911 70.0004 109.152 70.0004 109.447C70.0004 109.702 70.0948 109.907 70.2837 110.063C70.4727 110.219 70.7776 110.347 71.1985 110.446L72.4116 110.724C73.1142 110.887 73.6379 111.137 73.9826 111.475C74.3273 111.813 74.4996 112.252 74.4996 112.793C74.4996 113.25 74.3671 113.658 74.1019 114.016C73.8401 114.37 73.4738 114.649 73.0032 114.851C72.5359 115.053 71.994 115.154 71.3775 115.154C70.5224 115.154 69.8247 114.972 69.2844 114.607C68.7442 114.239 68.4128 113.717 68.2901 113.041L69.7269 112.822C69.8164 113.197 70.0004 113.48 70.2788 113.673C70.5572 113.862 70.9201 113.956 71.3675 113.956C71.8548 113.956 72.2442 113.855 72.5359 113.653C72.8275 113.447 72.9734 113.197 72.9734 112.902C72.9734 112.663 72.8839 112.463 72.7049 112.3C72.5292 112.138 72.2591 112.015 71.8945 111.933L70.6019 111.649C69.8893 111.487 69.3623 111.228 69.021 110.874C68.6829 110.519 68.5138 110.07 68.5138 109.526C68.5138 109.076 68.6398 108.681 68.8917 108.343C69.1436 108.005 69.4916 107.741 69.9357 107.553C70.3799 107.36 70.8886 107.264 71.462 107.264C72.2873 107.264 72.9369 107.443 73.4109 107.801C73.8848 108.156 74.198 108.631 74.3505 109.228ZM83.1303 115.154C82.378 115.154 81.73 114.993 81.1864 114.672C80.6462 114.347 80.2286 113.891 79.9336 113.305C79.6419 112.715 79.4961 112.024 79.4961 111.232C79.4961 110.449 79.6419 109.76 79.9336 109.163C80.2286 108.567 80.6396 108.101 81.1665 107.766C81.6969 107.432 82.3166 107.264 83.0259 107.264C83.4568 107.264 83.8744 107.335 84.2788 107.478C84.6831 107.621 85.046 107.844 85.3675 108.149C85.689 108.454 85.9426 108.85 86.1282 109.337C86.3138 109.821 86.4066 110.41 86.4066 111.102V111.629H80.3363V110.516H84.9499C84.9499 110.125 84.8704 109.778 84.7113 109.477C84.5522 109.172 84.3285 108.931 84.0401 108.756C83.7551 108.58 83.4203 108.492 83.0359 108.492C82.6183 108.492 82.2537 108.595 81.9421 108.8C81.6339 109.003 81.3952 109.268 81.2262 109.596C81.0605 109.921 80.9776 110.274 80.9776 110.655V111.525C80.9776 112.035 81.0671 112.469 81.2461 112.827C81.4284 113.185 81.6819 113.459 82.0067 113.648C82.3316 113.833 82.7111 113.926 83.1452 113.926C83.427 113.926 83.6838 113.886 83.9158 113.807C84.1478 113.724 84.3484 113.601 84.5174 113.439C84.6864 113.277 84.8157 113.076 84.9052 112.837L86.3121 113.091C86.1995 113.505 85.9973 113.868 85.7056 114.18C85.4173 114.488 85.0543 114.728 84.6168 114.901C84.1826 115.07 83.6871 115.154 83.1303 115.154ZM91.6206 107.364V108.557H87.4494V107.364H91.6206ZM88.568 105.534H90.0545V112.758C90.0545 113.046 90.0976 113.263 90.1838 113.409C90.2699 113.552 90.381 113.649 90.5169 113.702C90.6561 113.752 90.8069 113.777 90.9693 113.777C91.0886 113.777 91.193 113.769 91.2825 113.752C91.372 113.736 91.4416 113.722 91.4913 113.712L91.7598 114.94C91.6736 114.973 91.551 115.007 91.3919 115.04C91.2328 115.076 91.0339 115.096 90.7953 115.099C90.4042 115.106 90.0396 115.036 89.7015 114.891C89.3635 114.745 89.09 114.519 88.8812 114.214C88.6724 113.91 88.568 113.527 88.568 113.066V105.534ZM98.4565 104.818V115H96.97V104.818H98.4565ZM103.748 115.154C102.995 115.154 102.347 114.993 101.804 114.672C101.263 114.347 100.846 113.891 100.551 113.305C100.259 112.715 100.113 112.024 100.113 111.232C100.113 110.449 100.259 109.76 100.551 109.163C100.846 108.567 101.257 108.101 101.784 107.766C102.314 107.432 102.934 107.264 103.643 107.264C104.074 107.264 104.492 107.335 104.896 107.478C105.3 107.621 105.663 107.844 105.985 108.149C106.306 108.454 106.56 108.85 106.745 109.337C106.931 109.821 107.024 110.41 107.024 111.102V111.629H100.953V110.516H105.567C105.567 110.125 105.488 109.778 105.328 109.477C105.169 109.172 104.946 108.931 104.657 108.756C104.372 108.58 104.038 108.492 103.653 108.492C103.235 108.492 102.871 108.595 102.559 108.8C102.251 109.003 102.012 109.268 101.843 109.596C101.678 109.921 101.595 110.274 101.595 110.655V111.525C101.595 112.035 101.684 112.469 101.863 112.827C102.046 113.185 102.299 113.459 102.624 113.648C102.949 113.833 103.328 113.926 103.762 113.926C104.044 113.926 104.301 113.886 104.533 113.807C104.765 113.724 104.966 113.601 105.135 113.439C105.304 113.277 105.433 113.076 105.522 112.837L106.929 113.091C106.817 113.505 106.614 113.868 106.323 114.18C106.034 114.488 105.672 114.728 105.234 114.901C104.8 115.07 104.304 115.154 103.748 115.154ZM114.395 109.228L113.048 109.467C112.992 109.294 112.902 109.13 112.78 108.974C112.66 108.819 112.498 108.691 112.292 108.592C112.087 108.492 111.83 108.442 111.522 108.442C111.101 108.442 110.75 108.537 110.468 108.726C110.186 108.911 110.045 109.152 110.045 109.447C110.045 109.702 110.14 109.907 110.329 110.063C110.518 110.219 110.823 110.347 111.243 110.446L112.456 110.724C113.159 110.887 113.683 111.137 114.028 111.475C114.372 111.813 114.545 112.252 114.545 112.793C114.545 113.25 114.412 113.658 114.147 114.016C113.885 114.37 113.519 114.649 113.048 114.851C112.581 115.053 112.039 115.154 111.422 115.154C110.567 115.154 109.87 114.972 109.329 114.607C108.789 114.239 108.458 113.717 108.335 113.041L109.772 112.822C109.861 113.197 110.045 113.48 110.324 113.673C110.602 113.862 110.965 113.956 111.412 113.956C111.9 113.956 112.289 113.855 112.581 113.653C112.872 113.447 113.018 113.197 113.018 112.902C113.018 112.663 112.929 112.463 112.75 112.3C112.574 112.138 112.304 112.015 111.939 111.933L110.647 111.649C109.934 111.487 109.407 111.228 109.066 110.874C108.728 110.519 108.559 110.07 108.559 109.526C108.559 109.076 108.685 108.681 108.937 108.343C109.189 108.005 109.537 107.741 109.981 107.553C110.425 107.36 110.934 107.264 111.507 107.264C112.332 107.264 112.982 107.443 113.456 107.801C113.93 108.156 114.243 108.631 114.395 109.228ZM122.106 115.169C121.622 115.169 121.185 115.08 120.794 114.901C120.403 114.718 120.093 114.455 119.864 114.11C119.639 113.765 119.526 113.343 119.526 112.842C119.526 112.411 119.609 112.057 119.775 111.778C119.94 111.5 120.164 111.28 120.446 111.117C120.728 110.955 121.042 110.832 121.39 110.749C121.738 110.666 122.093 110.603 122.454 110.56C122.912 110.507 123.283 110.464 123.568 110.431C123.853 110.395 124.06 110.337 124.189 110.257C124.319 110.178 124.383 110.048 124.383 109.869V109.835C124.383 109.4 124.261 109.064 124.015 108.825C123.773 108.587 123.412 108.467 122.932 108.467C122.431 108.467 122.037 108.578 121.748 108.8C121.463 109.019 121.266 109.263 121.157 109.531L119.76 109.213C119.925 108.749 120.167 108.375 120.486 108.089C120.807 107.801 121.177 107.592 121.594 107.463C122.012 107.33 122.451 107.264 122.912 107.264C123.217 107.264 123.54 107.301 123.881 107.374C124.226 107.443 124.547 107.572 124.846 107.761C125.147 107.95 125.394 108.22 125.586 108.572C125.779 108.92 125.875 109.372 125.875 109.929V115H124.423V113.956H124.363C124.267 114.148 124.123 114.337 123.931 114.523C123.739 114.708 123.492 114.862 123.19 114.985C122.889 115.108 122.527 115.169 122.106 115.169ZM122.43 113.976C122.84 113.976 123.192 113.895 123.483 113.732C123.778 113.57 124.002 113.358 124.155 113.096C124.31 112.831 124.388 112.547 124.388 112.246V111.261C124.335 111.314 124.233 111.364 124.08 111.411C123.931 111.454 123.76 111.492 123.568 111.525C123.376 111.555 123.189 111.583 123.006 111.609C122.824 111.633 122.671 111.652 122.549 111.669C122.26 111.705 121.997 111.767 121.758 111.853C121.523 111.939 121.334 112.063 121.192 112.226C121.052 112.385 120.983 112.597 120.983 112.862C120.983 113.23 121.119 113.509 121.39 113.697C121.662 113.883 122.009 113.976 122.43 113.976ZM129.341 110.466V115H127.855V107.364H129.282V108.607H129.376C129.552 108.202 129.827 107.877 130.201 107.632C130.579 107.387 131.055 107.264 131.628 107.264C132.149 107.264 132.604 107.374 132.995 107.592C133.386 107.808 133.69 108.129 133.905 108.557C134.121 108.984 134.228 109.513 134.228 110.143V115H132.742V110.322C132.742 109.768 132.598 109.336 132.309 109.024C132.021 108.709 131.625 108.552 131.121 108.552C130.776 108.552 130.47 108.626 130.201 108.776C129.936 108.925 129.726 109.143 129.57 109.432C129.417 109.717 129.341 110.062 129.341 110.466ZM136.222 115V107.364H137.708V115H136.222ZM136.973 106.185C136.714 106.185 136.492 106.099 136.306 105.927C136.124 105.751 136.033 105.542 136.033 105.3C136.033 105.055 136.124 104.846 136.306 104.674C136.492 104.498 136.714 104.411 136.973 104.411C137.231 104.411 137.452 104.498 137.634 104.674C137.819 104.846 137.912 105.055 137.912 105.3C137.912 105.542 137.819 105.751 137.634 105.927C137.452 106.099 137.231 106.185 136.973 106.185ZM139.708 115V107.364H141.135V108.607H141.23C141.389 108.186 141.649 107.857 142.01 107.622C142.371 107.384 142.804 107.264 143.308 107.264C143.818 107.264 144.246 107.384 144.59 107.622C144.938 107.861 145.195 108.189 145.361 108.607H145.441C145.623 108.199 145.913 107.874 146.311 107.632C146.708 107.387 147.182 107.264 147.732 107.264C148.425 107.264 148.99 107.481 149.428 107.915C149.869 108.35 150.089 109.004 150.089 109.879V115H148.602V110.018C148.602 109.501 148.462 109.127 148.18 108.895C147.898 108.663 147.562 108.547 147.171 108.547C146.687 108.547 146.311 108.696 146.042 108.994C145.774 109.289 145.639 109.669 145.639 110.133V115H144.158V109.924C144.158 109.51 144.029 109.177 143.77 108.925C143.512 108.673 143.175 108.547 142.761 108.547C142.479 108.547 142.219 108.621 141.98 108.771C141.745 108.916 141.554 109.12 141.409 109.382C141.266 109.644 141.195 109.947 141.195 110.292V115H139.708ZM154.304 115.169C153.82 115.169 153.382 115.08 152.991 114.901C152.6 114.718 152.29 114.455 152.061 114.11C151.836 113.765 151.723 113.343 151.723 112.842C151.723 112.411 151.806 112.057 151.972 111.778C152.138 111.5 152.361 111.28 152.643 111.117C152.925 110.955 153.24 110.832 153.588 110.749C153.936 110.666 154.29 110.603 154.652 110.56C155.109 110.507 155.48 110.464 155.765 110.431C156.05 110.395 156.257 110.337 156.387 110.257C156.516 110.178 156.581 110.048 156.581 109.869V109.835C156.581 109.4 156.458 109.064 156.213 108.825C155.971 108.587 155.609 108.467 155.129 108.467C154.628 108.467 154.234 108.578 153.946 108.8C153.661 109.019 153.463 109.263 153.354 109.531L151.957 109.213C152.123 108.749 152.365 108.375 152.683 108.089C153.004 107.801 153.374 107.592 153.792 107.463C154.209 107.33 154.648 107.264 155.109 107.264C155.414 107.264 155.737 107.301 156.078 107.374C156.423 107.443 156.745 107.572 157.043 107.761C157.345 107.95 157.592 108.22 157.784 108.572C157.976 108.92 158.072 109.372 158.072 109.929V115H156.62V113.956H156.561C156.465 114.148 156.32 114.337 156.128 114.523C155.936 114.708 155.689 114.862 155.387 114.985C155.086 115.108 154.725 115.169 154.304 115.169ZM154.627 113.976C155.038 113.976 155.389 113.895 155.681 113.732C155.976 113.57 156.199 113.358 156.352 113.096C156.508 112.831 156.586 112.547 156.586 112.246V111.261C156.533 111.314 156.43 111.364 156.277 111.411C156.128 111.454 155.958 111.492 155.765 111.525C155.573 111.555 155.386 111.583 155.203 111.609C155.021 111.633 154.869 111.652 154.746 111.669C154.458 111.705 154.194 111.767 153.956 111.853C153.72 111.939 153.531 112.063 153.389 112.226C153.25 112.385 153.18 112.597 153.18 112.862C153.18 113.23 153.316 113.509 153.588 113.697C153.859 113.883 154.206 113.976 154.627 113.976ZM164.889 111.833V107.364H166.381V115H164.919V113.678H164.84C164.664 114.085 164.382 114.425 163.994 114.697C163.61 114.965 163.131 115.099 162.558 115.099C162.067 115.099 161.633 114.992 161.255 114.776C160.881 114.558 160.586 114.234 160.37 113.807C160.158 113.379 160.052 112.851 160.052 112.221V107.364H161.539V112.042C161.539 112.562 161.683 112.977 161.971 113.285C162.259 113.593 162.634 113.747 163.095 113.747C163.373 113.747 163.65 113.678 163.925 113.538C164.203 113.399 164.434 113.189 164.616 112.907C164.802 112.625 164.893 112.267 164.889 111.833ZM169.551 107.364L171.237 110.337L172.937 107.364H174.563L172.181 111.182L174.583 115H172.957L171.237 112.146L169.522 115H167.891L170.267 111.182L167.921 107.364H169.551ZM177.963 104.818L177.834 112.072H176.457L176.328 104.818H177.963ZM177.148 115.094C176.873 115.094 176.638 114.998 176.442 114.806C176.247 114.611 176.15 114.375 176.154 114.1C176.15 113.828 176.247 113.596 176.442 113.404C176.638 113.209 176.873 113.111 177.148 113.111C177.417 113.111 177.649 113.209 177.844 113.404C178.04 113.596 178.139 113.828 178.142 114.1C178.139 114.282 178.091 114.45 177.998 114.602C177.909 114.751 177.789 114.871 177.64 114.96C177.491 115.05 177.327 115.094 177.148 115.094ZM182.079 104.818L181.949 112.072H180.572L180.443 104.818H182.079ZM181.263 115.094C180.988 115.094 180.753 114.998 180.557 114.806C180.362 114.611 180.266 114.375 180.269 114.1C180.266 113.828 180.362 113.596 180.557 113.404C180.753 113.209 180.988 113.111 181.263 113.111C181.532 113.111 181.764 113.209 181.959 113.404C182.155 113.596 182.254 113.828 182.258 114.1C182.254 114.282 182.206 114.45 182.113 114.602C182.024 114.751 181.905 114.871 181.756 114.96C181.606 115.05 181.442 115.094 181.263 115.094ZM185.597 104.818V105.773C185.597 106.054 185.544 106.351 185.438 106.663C185.335 106.971 185.19 107.268 185.001 107.553C184.812 107.838 184.59 108.083 184.335 108.288L183.599 107.761C183.794 107.476 183.963 107.173 184.106 106.852C184.252 106.53 184.325 106.175 184.325 105.788V104.818H185.597ZM188.128 104.818V105.773C188.128 106.054 188.075 106.351 187.969 106.663C187.866 106.971 187.72 107.268 187.531 107.553C187.342 107.838 187.12 108.083 186.865 108.288L186.129 107.761C186.325 107.476 186.494 107.173 186.636 106.852C186.782 106.53 186.855 106.175 186.855 105.788V104.818H188.128Z" fill="white"/>
</g>
<defs>
<filter id="filter0_d_400_964" x="0.5" y="0" width="396" height="202" filterUnits="userSpaceOnUse" color-interpolation-filters="sRGB">
<feFlood flood-opacity="0" result="BackgroundImageFix"/>
<feColorMatrix in="SourceAlpha" type="matrix" values="0 0 0 0 0 0 0 0 0 0 0 0 0 0 0 0 0 0 127 0" result="hardAlpha"/>
<feOffset dx="-4" dy="8"/>
<feGaussianBlur stdDeviation="10"/>
<feComposite in2="hardAlpha" operator="out"/>
<feColorMatrix type="matrix" values="0 0 0 0 0 0 0 0 0 0 0 0 0 0 0 0 0 0 0.1 0"/>
<feBlend mode="normal" in2="BackgroundImageFix" result="effect1_dropShadow_400_964"/>
<feBlend mode="normal" in="SourceGraphic" in2="effect1_dropShadow_400_964" result="shape"/>
</filter>
<clipPath id="clip0_400_964">
<rect width="240" height="48" fill="white" transform="translate(82.5 121)"/>
</clipPath>
</defs>
</svg>
