<svg width="45" height="46" viewBox="0 0 45 46" fill="none" xmlns="http://www.w3.org/2000/svg">
<path d="M22.5001 22.1C24.554 22.1 26.5617 21.4666 28.2695 20.2799C29.9772 19.0932 31.3082 17.4064 32.0942 15.433C32.8802 13.4595 33.0859 11.288 32.6852 9.19303C32.2845 7.09803 31.2954 5.17366 29.8431 3.66325C28.3908 2.15284 26.5405 1.12424 24.526 0.707524C22.5116 0.290803 20.4236 0.504679 18.5261 1.32211C16.6285 2.13953 15.0067 3.5238 13.8656 5.29985C12.7245 7.0759 12.1155 9.16397 12.1155 11.3C12.1182 14.1635 13.2132 16.9088 15.1601 18.9336C17.107 20.9584 19.7468 22.0971 22.5001 22.1ZM22.5001 4.1C23.8693 4.1 25.2079 4.52228 26.3463 5.31342C27.4848 6.10457 28.3722 7.22906 28.8962 8.54468C29.4202 9.86031 29.5573 11.308 29.2901 12.7047C29.023 14.1013 28.3637 15.3842 27.3954 16.3912C26.4272 17.3981 25.1937 18.0838 23.8507 18.3617C22.5078 18.6395 21.1158 18.4969 19.8507 17.9519C18.5857 17.407 17.5045 16.4841 16.7438 15.3001C15.983 14.1161 15.577 12.724 15.577 11.3C15.577 9.39044 16.3064 7.5591 17.6047 6.20884C18.9031 4.85857 20.664 4.1 22.5001 4.1Z" fill="#FFE0B5"/>
<path d="M22.5 23.8999C8.82692 23.8999 0 31.6723 0 43.6999C0 44.1773 0.182348 44.6351 0.506931 44.9727C0.831513 45.3103 1.27174 45.4999 1.73077 45.4999H43.2692C43.7283 45.4999 44.1685 45.3103 44.4931 44.9727C44.8177 44.6351 45 44.1773 45 43.6999C45 31.6723 36.1731 23.8999 22.5 23.8999ZM3.53942 41.8999C4.48096 31.3249 13.7735 27.4999 22.5 27.4999C31.2265 27.4999 40.519 31.3249 41.4606 41.8999H3.53942Z" fill="#FFE0B5"/>
</svg>
